<?xml version="1.0" encoding="utf-8"?>
<!-- Generator: Adobe Illustrator 17.0.0, SVG Export Plug-In . SVG Version: 6.00 Build 0)  -->
<!DOCTYPE svg PUBLIC "-//W3C//DTD SVG 1.1//EN" "http://www.w3.org/Graphics/SVG/1.1/DTD/svg11.dtd">
<svg version="1.1" id="Livello_1" xmlns="http://www.w3.org/2000/svg" xmlns:xlink="http://www.w3.org/1999/xlink" x="0px" y="0px"
	 width="812.3px" height="171px" viewBox="0 0 812.3 171" style="enable-background:new 0 0 812.3 171;" xml:space="preserve">
<style type="text/css">
	.st0{fill:none;}
	.st1{fill:#008EFF;}
</style>
<g>
	<path class="st0" d="M243.5,33h-14.2v105h14.2c29,0,52.5-23.6,52.5-52.6S272.5,33,243.5,33z"/>
	<path class="st0" d="M89.5,64.2c0.1,0,0.2-0.1,0.2-0.1C89.7,64.1,89.6,64.2,89.5,64.2z"/>
	<path class="st0" d="M68.8,106.2c-0.2-0.3-0.3-0.6-0.3-0.9C68.5,105.7,68.6,106,68.8,106.2c0.4,0.6,1,0.8,1.7,0.8
		C69.8,107,69.1,106.8,68.8,106.2z"/>
	<polygon class="st0" points="70.5,105 108.5,105 90.2,66 	"/>
	<path class="st0" d="M89.4,64.3c-0.4,0.2-0.7,0.6-0.9,1l-19.8,39.2l19.8-39.1C88.7,64.9,89,64.5,89.4,64.3z"/>
	<path class="st1" d="M87.2,0L0,171h34.8l15.9-31.7c0.3-0.7,1-1.3,1.8-1.3H125c0.8,0,1.5,0.7,1.8,1.4l14.7,31.6h34.3L95,0H87.2z
		 M110.2,106.3c-0.4,0.6-1,0.7-1.7,0.7h-38c-0.7,0-1.3-0.1-1.7-0.7c-0.2-0.3-0.3-0.6-0.3-0.9c0-0.3,0.1-0.6,0.2-0.9l19.8-39.2
		c0.2-0.4,0.5-0.8,0.9-1c0,0,0.1-0.1,0.1-0.1c0.1,0,0.2-0.1,0.2-0.1c0.2-0.1,0.3-0.1,0.5-0.1c0,0,0,0,0,0c0.8,0,1.5,0.7,1.8,1.4
		l18.2,39C110.6,105,110.5,105.7,110.2,106.3z"/>
	<polygon class="st0" points="70.5,105 108.5,105 90.2,66 	"/>
	<g>
		<path class="st0" d="M243.5,33h-14.2v105h14.2c29,0,52.5-23.6,52.5-52.6S272.5,33,243.5,33z"/>
		<path class="st1" d="M322.2,52C322.1,52,322.1,52,322.2,52C318,41.7,312,32.8,303.8,24.6c-7.8-7.8-16.9-13.8-27.1-18.2
			C266.3,2.1,255.1,0,243.5,0h-47.2v171h11.9c0.4,0,0.7,0,1,0h34.3c11.8,0,22.9-2.3,33.2-6.9c0,0,0,0,0.1,0
			c9.8-4,18.9-10.1,27.1-18.3c8-7.8,14.2-16.9,18.3-27.1c0,0,0,0,0-0.1c4.5-10.3,6.8-21.5,6.8-33.4C329,73.4,326.7,62.3,322.2,52z
			 M243.5,140H229c-1.1,0-1.7-1-1.7-2.1V32.7c0-1.1,0.6-1.7,1.7-1.7h14.5c30.1,0,54.5,24.3,54.5,54.4C298,115.6,273.5,140,243.5,140
			z"/>
		<path class="st0" d="M243.5,33h-14.2v105h14.2c29,0,52.5-23.6,52.5-52.6S272.5,33,243.5,33z"/>
	</g>
	<path class="st1" d="M450.1,65.9c-0.4,0.3-0.9,0.4-1.3,0.4c-0.5,0-1-0.1-1.3-0.4L374.7,0h-9.4v171h31V65.7c0-0.8,0.6-1.5,1.3-1.8
		c0.3-0.1,0.6-0.2,0.9-0.2c0.5,0,1,0.2,1.4,0.5l48.9,44.5l48.9-44.5c0.4-0.3,0.9-0.5,1.4-0.5c0.3,0,0.6,0.1,0.9,0.2
		c0.7,0.3,1.4,1,1.4,1.8V171h31V0h-9.8L450.1,65.9z"/>
	<path class="st1" d="M568.3,31h16.9c1.1,0,2.1,0.6,2.1,1.7v105.2c0,1.1-1,2.1-2.1,2.1h-16.9v31h68v-31h-16.1c-1.1,0-1.9-1-1.9-2.1
		V32.7c0-1.1,0.8-1.7,1.9-1.7h16.1V0h-68V31z"/>
	<path class="st1" d="M781.3,95.7c0,0.8-0.7,1.6-1.4,1.9c-0.2,0.1-0.7,0.2-0.9,0.2c-0.5,0-1-0.1-1.4-0.5L681.4,0h-8.1v171h31V70.7
		c0-0.8,0.5-1.5,1.2-1.8c0.2-0.1,0.5-0.1,0.7-0.1c0.5,0,1.1,0.2,1.4,0.6L805.6,171h6.7V0h-31V95.7z"/>
</g>
</svg>
