<?xml version="1.0" encoding="utf-8"?>
<!-- Generator: Adobe Illustrator 17.0.0, SVG Export Plug-In . SVG Version: 6.00 Build 0)  -->
<!DOCTYPE svg PUBLIC "-//W3C//DTD SVG 1.1//EN" "http://www.w3.org/Graphics/SVG/1.1/DTD/svg11.dtd">
<svg version="1.1" id="Livello_1" xmlns="http://www.w3.org/2000/svg" xmlns:xlink="http://www.w3.org/1999/xlink" x="0px" y="0px"
	 width="36px" height="26px" viewBox="0 0 36 26" style="enable-background:new 0 0 36 26;" xml:space="preserve">
<style type="text/css">
	.st0{fill:#226699;}
	.st1{fill:#DD2E44;}
	.st2{fill:#EEEEEE;}
</style>
<g>
	<polygon class="st0" points="0,4.1 0,8 5.6,8 	"/>
	<polygon class="st0" points="4.7,26 13,26 13,20.2 	"/>
	<polygon class="st0" points="23,20.2 23,26 31.3,26 	"/>
	<polygon class="st0" points="0,18 0,21.9 5.6,18 	"/>
	<polygon class="st0" points="31.3,0 23,0 23,5.8 	"/>
	<polygon class="st0" points="36,21.9 36,18 30.4,18 	"/>
	<polygon class="st0" points="36,8 36,4.1 30.4,8 	"/>
	<polygon class="st0" points="13,0 4.7,0 13,5.8 	"/>
	<path class="st1" d="M25.1,18l9.7,6.8c0.5-0.5,0.8-1.1,1-1.7L28.6,18H25.1z"/>
	<path class="st1" d="M13,18h-2.1l-9.7,6.8c0.5,0.5,1.2,0.9,1.9,1.1l9.9-6.9V18z"/>
	<path class="st1" d="M23,8h2.1l9.7-6.8c-0.5-0.5-1.2-0.9-1.9-1.1L23,7.1V8z"/>
	<path class="st1" d="M10.9,8L1.1,1.2c-0.5,0.5-0.8,1.1-1,1.7L7.4,8H10.9z"/>
	<path class="st2" d="M36,16H21v10h2v-5.8l8.3,5.8H32c1.1,0,2.1-0.5,2.9-1.2L25.1,18h3.5l7.2,5.1c0.1-0.3,0.2-0.7,0.2-1.1v-0.1
		L30.4,18H36V16z"/>
	<path class="st2" d="M0,16v2h5.6L0,21.9V22c0,1.1,0.4,2.1,1.1,2.8l9.7-6.8H13v0.9l-9.9,6.9C3.4,26,3.7,26,4,26h0.7l8.3-5.8V26h2V16
		H0z"/>
	<path class="st2" d="M36,4c0-1.1-0.4-2.1-1.1-2.8L25.1,8H23V7.1l9.9-6.9C32.6,0,32.3,0,32,0h-0.7L23,5.8V0h-2v10h15V8h-5.6L36,4
		L36,4z"/>
	<path class="st2" d="M13,0v5.8L4.7,0H4C2.9,0,1.9,0.5,1.1,1.2L10.9,8H7.4L0.2,2.9C0.1,3.3,0,3.6,0,4v0.1L5.6,8H0v2h15V0H13z"/>
	<polygon class="st1" points="21,10 21,0 15,0 15,10 0,10 0,13 0,16 15,16 15,26 21,26 21,16 36,16 36,13 36,10 	"/>
</g>
</svg>
