<?xml version="1.0" encoding="utf-8"?>
<!-- Generator: Adobe Illustrator 17.0.0, SVG Export Plug-In . SVG Version: 6.00 Build 0)  -->
<!DOCTYPE svg PUBLIC "-//W3C//DTD SVG 1.1//EN" "http://www.w3.org/Graphics/SVG/1.1/DTD/svg11.dtd">
<svg version="1.1" id="Livello_1" xmlns="http://www.w3.org/2000/svg" xmlns:xlink="http://www.w3.org/1999/xlink" x="0px" y="0px"
	 width="388.9px" height="54.4px" viewBox="0 0 388.9 54.4" style="enable-background:new 0 0 388.9 54.4;" xml:space="preserve">
<style type="text/css">
	.st0{fill:#008EFF;}
</style>
<g>
	<path class="st0" d="M35,11.5H10.5v9.7h20.2v10.5H10.5v21.9H0V1h35V11.5z"/>
	<path class="st0" d="M97.3,27.2c0,15-12.2,27.2-27.2,27.2S42.9,42.2,42.9,27.2C42.9,12.2,55.1,0,70.1,0S97.3,12.2,97.3,27.2z
		 M53.7,27.2c0,9.1,7.3,16.4,16.4,16.4s16.4-7.3,16.4-16.4c0-9.1-7.3-16.4-16.4-16.4S53.7,18.1,53.7,27.2z"/>
	<path class="st0" d="M131.2,53.5l-9.8-21.1h-5.2v21h-10.5V0.9h19.8c8.7,0,15.7,7.1,15.7,15.8c0,6.4-3.8,11.8-9.2,14.3l10.4,22.5
		H131.2z M116.1,11.4V22h9.3c2.9,0,5.2-2.3,5.2-5.2s-2.3-5.3-5.2-5.3H116.1z"/>
	<path class="st0" d="M212.3,34.1c0,11.2-9.1,20.3-20.3,20.3c-11.2,0-20.3-9.1-20.4-20.2V1h10.5v33.1c0,2.6,1,5.1,2.9,7
		s4.3,2.8,7,2.8s5-1,6.9-2.8s2.8-4.3,2.9-6.9h-0.1V1h10.5L212.3,34.1L212.3,34.1z"/>
	<path class="st0" d="M256.5,53.5l-29.5-30.7v30.7h-10.5V1h3.3l29,29.4V1h10.5v52.6H256.5z"/>
	<path class="st0" d="M285.1,11.5V43h5.5v10.5H269V43h5.6V11.5H269V1h21.7v10.5H285.1z"/>
	<path class="st0" d="M314,1c8.5,0,15.4,6.9,15.4,15.4c0,3.2-1,6.1-2.7,8.6c3.8,2.9,6.2,7.5,6.2,12.6c0,8.8-7.1,15.9-15.9,15.9
		h-17.3V1H314z M313.6,21.8c2.9,0,6.1-2.4,6.1-6.1s-3.2-5.9-6.1-5.9H309v12H313.6z M316.9,44.6c3.5,0,6.5-2.8,6.5-6.3
		c0-3.5-2.9-6.4-6.5-6.4h-7.6v12.7H316.9z"/>
	<path class="st0" d="M341.2,53.5v-3l29-39.7h-24.3V1h43V4l-29.1,39.7h27.4v9.8H341.2z"/>
</g>
</svg>
