<?xml version="1.0" encoding="utf-8"?>
<!-- Generator: Adobe Illustrator 17.0.0, SVG Export Plug-In . SVG Version: 6.00 Build 0)  -->
<!DOCTYPE svg PUBLIC "-//W3C//DTD SVG 1.1//EN" "http://www.w3.org/Graphics/SVG/1.1/DTD/svg11.dtd">
<svg version="1.1" id="Livello_1" xmlns="http://www.w3.org/2000/svg" xmlns:xlink="http://www.w3.org/1999/xlink" x="0px" y="0px"
	 width="587.2px" height="54.6px" viewBox="0 0 587.2 54.6" style="enable-background:new 0 0 587.2 54.6;" xml:space="preserve">
<style type="text/css">
	.st0{fill:#008EFF;}
</style>
<g>
	<path class="st0" d="M35,11.5H10.5v9.7h20.2v10.5H10.5v21.9H0V1h35V11.5z"/>
	<path class="st0" d="M97.3,27.2c0,15-12.2,27.2-27.2,27.2S42.9,42.2,42.9,27.2C42.9,12.2,55.1,0,70.1,0S97.3,12.2,97.3,27.2z
		 M53.7,27.2c0,9.1,7.3,16.4,16.4,16.4s16.4-7.3,16.4-16.4c0-9.1-7.3-16.4-16.4-16.4S53.7,18.1,53.7,27.2z"/>
	<path class="st0" d="M131.2,53.5l-9.8-21.1h-5.2v21h-10.5V0.9h19.8c8.7,0,15.7,7.1,15.7,15.8c0,6.4-3.8,11.8-9.2,14.3l10.4,22.5
		H131.2z M116.1,11.4V22h9.3c2.9,0,5.2-2.3,5.2-5.2s-2.3-5.3-5.2-5.3H116.1z"/>
	<path class="st0" d="M207.7,11.5h-24.5v9.7h20.2v10.5h-20.2V43h24.3v10.5h-34.8V1h35V11.5z"/>
	<path class="st0" d="M246.4,27.3l18.7,26.2h-12.9L240,36.4l-12.2,17.2h-12.9l18.7-26.2L214.9,1h12.9L240,18.2L252.2,1h12.9
		L246.4,27.3z"/>
	<path class="st0" d="M310.8,1v10.5h-14.5v42.1h-10.5V11.5h-14.6V1H310.8z"/>
	<path class="st0" d="M352.9,11.5h-24.5v9.7h20.2v10.5h-20.2V43h24.3v10.5h-34.8V1h35V11.5z"/>
	<path class="st0" d="M387.5,53.5l-9.8-21.1h-5.2v21h-10.5V0.9h19.8c8.7,0,15.8,7.1,15.8,15.8c0,6.4-3.8,11.8-9.2,14.3l10.4,22.5
		H387.5z M372.4,11.4V22h9.3c2.9,0,5.2-2.3,5.2-5.2s-2.3-5.3-5.2-5.3H372.4z"/>
	<path class="st0" d="M446.6,53.5l-29.5-30.7v30.7h-10.5V1h3.3l29,29.4V1h10.5v52.6H446.6z"/>
	<path class="st0" d="M492.4,43.8h-21.7l-5,9.8h-11.8L480.7,1h3.1l24.8,52.6h-11.6L492.4,43.8z M487.4,33.3l-5.5-11.7L476,33.3
		H487.4z"/>
	<path class="st0" d="M524.3,43h19.6v10.4h-30.1V1h10.5V43z"/>
	<path class="st0" d="M567.4,31.3c-1.7-0.4-5-1.3-8-3.3c-4.2-2.8-6.5-6.8-6.8-11.8c-0.2-4.2,1.1-7.9,3.8-10.7
		c3.9-4,9.5-5.2,12.2-5.2c7.6,0,11.9,2.8,15.7,5.2l1.7,1.1l-5.5,8.9l-1.9-1.2c-3.4-2.2-5.5-3.6-10.1-3.6c-0.7,0-3.3,0.5-4.7,2
		c-0.4,0.4-1,1.3-0.9,3c0.1,2.7,2,4.2,6.8,5.4c0.6,0.2,1,0.3,1.5,0.5c5,1.7,8.9,4,11.6,7c2.7,3,4.1,6.5,4.1,10.3
		c0,3.7-1.6,7.5-4.2,10.4c-3.1,3.4-7.3,5.4-12.1,5.4c-2.3,0-5.5-0.1-9.2-1.3c-4.7-1.5-8.9-4.1-12.5-8l7.6-7.2
		c5.5,5.9,11.8,5.9,14.1,5.9c4.3,0,5.8-4,5.8-5.3c0-2.8-3.2-5.5-8.7-7.3l-0.2-0.1L567.4,31.3z"/>
</g>
</svg>
