<?xml version="1.0" encoding="utf-8"?>
<!-- Generator: Adobe Illustrator 17.0.0, SVG Export Plug-In . SVG Version: 6.00 Build 0)  -->
<!DOCTYPE svg PUBLIC "-//W3C//DTD SVG 1.1//EN" "http://www.w3.org/Graphics/SVG/1.1/DTD/svg11.dtd">
<svg version="1.1" id="Livello_1" xmlns="http://www.w3.org/2000/svg" xmlns:xlink="http://www.w3.org/1999/xlink" x="0px" y="0px"
	 width="425.2px" height="226.201px" viewBox="0 0 425.2 226.201" enable-background="new 0 0 425.2 226.201" xml:space="preserve">
<g>
	<path fill="#FFFFFF" d="M75.056,63.363l7.744,6.928c14.125-1.926,26.956-0.102,36.138,6.34c4.422,9.156,8.315,20.07,11.434,29.706
		c0.564-0.168,1.17-0.295,1.867-0.354c-1.564-13.326-4.811-26.502-9.721-39.164c1.354-5.17,3.414-10.324,6.223-15.285
		c5.062-8.973,12.545-17.305,22.055-24.148l2.135-10.662c-9.475,5.273-17.506,11.881-23.711,19.238
		c-5.145,6.113-9.029,12.721-11.61,19.447C116.498,53.122,103.332,26.494,74.611,0L64.47,5.734
		c27.957,21.801,48.287,58.527,48.287,58.527S92.595,56.619,75.056,63.363"/>
	<path fill="#FFFFFF" d="M146.818,38.205l-2.119,10.175c8.719,11.266,13.562,23.299,12.57,34.465
		c-5.719,8.408-13.219,17.235-20.012,24.761c0.428,0.404,0.84,0.858,1.244,1.438c10.756-8.021,20.541-17.42,29.058-27.998
		c5.154-1.422,10.645-2.211,16.346-2.262c10.309-0.101,21.254,2.22,31.941,7.028l10.301-3.479
		c-9.309-5.575-19.037-9.225-28.512-10.914c-7.871-1.404-15.539-1.463-22.652-0.328c1.422-2.111,17.9-26.83,26.486-64.952
		L191.43,0.228c-4.902,35.112-26.537,71.081-26.537,71.081S161.422,50.027,146.818,38.205"/>
	<path fill="#FFFFFF" d="M190.875,162.99l-7.742-6.92c-14.117,1.926-26.957,0.101-36.139-6.341
		c-4.422-9.165-8.316-20.069-11.443-29.704c-0.562,0.158-1.16,0.293-1.857,0.353c1.562,13.327,4.809,26.502,9.719,39.165
		c-1.354,5.171-3.414,10.316-6.221,15.277c-5.062,8.98-12.555,17.312-22.055,24.146l-2.136,10.67
		c9.483-5.271,17.505-11.879,23.71-19.236c5.146-6.105,9.021-12.73,11.605-19.457c1.115,2.287,14.291,28.926,43.006,55.425
		l10.139-5.75c-27.965-21.792-48.295-58.521-48.295-58.521S173.346,169.732,190.875,162.99"/>
	<path fill="#FFFFFF" d="M118.937,188.213l2.117-10.164c-8.719-11.268-13.561-23.299-12.569-34.465
		c5.718-8.408,13.218-17.244,20.003-24.763c-0.43-0.403-0.832-0.864-1.236-1.436c-10.762,8.02-20.549,17.422-29.058,27.998
		c-5.162,1.412-10.646,2.211-16.345,2.254c-10.309,0.109-21.266-2.221-31.942-7.021l-10.3,3.482
		c9.299,5.574,19.036,9.223,28.512,10.912c7.861,1.404,15.529,1.455,22.651,0.328c-1.431,2.102-17.901,26.83-26.485,64.953
		l10.039,5.91c4.893-35.121,26.527-71.09,26.527-71.09S104.332,176.4,118.937,188.213"/>
	<path fill="#FFFFFF" d="M60.93,138.615l9.863-3.246c5.39-13.184,13.386-23.392,23.551-28.125
		c10.148,0.758,21.541,2.834,31.453,4.953c0.135-0.572,0.328-1.16,0.623-1.791c-12.326-5.313-25.358-9.09-38.768-11.166
		c-3.811-3.767-7.24-8.113-10.133-13.032c-5.247-8.871-8.711-19.517-9.88-31.169l-8.173-7.182
		c-0.176,10.838,1.539,21.096,4.802,30.145c2.716,7.516,6.509,14.183,11.048,19.792c-2.539-0.185-32.195-2.095-69.501,9.526
		l-0.093,11.652c32.859-13.318,74.832-12.561,74.832-12.561S63.848,120.058,60.93,138.615"/>
	<g>
		<path fill="#FFFFFF" d="M182.5,108.596l-4.061,2.406c-0.758-1.318-1.482-2.178-2.17-2.578c-0.715-0.459-1.639-0.688-2.771-0.688
			c-1.389,0-2.541,0.395-3.459,1.182c-0.916,0.775-1.375,1.75-1.375,2.924c0,1.621,1.203,2.924,3.609,3.914l3.309,1.354
			c2.693,1.09,4.662,2.42,5.908,3.988c1.246,1.57,1.869,3.494,1.869,5.774c0,3.053-1.016,5.576-3.051,7.568
			c-2.047,2.006-4.59,3.01-7.627,3.01c-2.879,0-5.256-0.857-7.133-2.568c-1.848-1.711-3-4.113-3.459-7.207l5.07-1.117
			c0.23,1.947,0.631,3.295,1.203,4.039c1.031,1.432,2.535,2.148,4.512,2.148c1.562,0,2.857-0.523,3.889-1.568
			c1.031-1.043,1.547-2.367,1.547-3.971c0-0.645-0.09-1.234-0.267-1.771c-0.18-0.538-0.459-1.032-0.838-1.481
			c-0.381-0.451-0.871-0.875-1.473-1.268c-0.602-0.392-1.316-0.77-2.148-1.127l-3.201-1.332c-4.539-1.918-6.811-4.723-6.811-8.416
			c0-2.488,0.953-4.572,2.857-6.246c1.906-1.689,4.275-2.533,7.111-2.533C177.365,103.032,180.352,104.887,182.5,108.596z"/>
		<path fill="#FFFFFF" d="M189.969,136.849V101.42l24.191,25.309v-23.053h5.006v35.192l-24.191-25.245v23.225h-5.006V136.849z"/>
		<path fill="#FFFFFF" d="M226.334,120.112c0-4.67,1.711-8.68,5.135-12.031c3.408-3.352,7.506-5.027,12.289-5.027
			c4.727,0,8.779,1.689,12.16,5.07c3.394,3.381,5.092,7.441,5.092,12.182c0,4.77-1.705,8.817-5.113,12.139
			c-3.424,3.338-7.555,5.006-12.396,5.006c-4.283,0-8.129-1.482-11.537-4.447C228.211,129.724,226.334,125.427,226.334,120.112z
			 M231.383,120.164c0,3.664,1.232,6.676,3.695,9.038c2.449,2.361,5.277,3.543,8.486,3.543c3.48,0,6.416-1.203,8.809-3.607
			c2.393-2.432,3.588-5.395,3.588-8.887c0-3.533-1.182-6.496-3.545-8.887c-2.35-2.404-5.256-3.605-8.723-3.605
			c-3.451,0-6.367,1.201-8.744,3.605C232.572,113.741,231.383,116.674,231.383,120.164z"/>
		<path fill="#FFFFFF" d="M268.092,103.676l8.637,22.172l9.024-23.784l8.637,23.784l9.174-22.172H309l-14.824,35.278l-8.529-23.504
			l-8.894,23.526l-14.094-35.299h5.433V103.676z"/>
		<path fill="#FFFFFF" d="M313.695,136.849v-33.172h6.961c3.336,0,5.973,0.33,7.906,0.988c2.076,0.645,3.959,1.74,5.65,3.287
			c3.422,3.123,5.135,7.227,5.135,12.311c0,5.1-1.783,9.225-5.35,12.375c-1.791,1.576-3.668,2.672-5.629,3.287
			c-1.834,0.615-4.434,0.924-7.799,0.924H313.695z M318.701,132.143h2.256c2.248,0,4.117-0.236,5.607-0.709
			c1.488-0.502,2.836-1.297,4.039-2.385c2.463-2.248,3.695-5.178,3.695-8.788c0-3.639-1.219-6.588-3.652-8.852
			c-2.191-2.02-5.422-3.029-9.689-3.029h-2.256V132.143z"/>
		<path fill="#FFFFFF" d="M364.066,128.792h-14.2l-3.694,8.057h-5.393l16.412-35.256l15.834,35.256h-5.479L364.066,128.792z
			 M362.025,124.086l-4.92-11.279l-5.155,11.279H362.025z"/>
		<path fill="#FFFFFF" d="M381.547,122.518l-10.828-18.842h5.758l7.584,13.256l7.605-13.256h5.758l-10.871,18.842v14.331h-5.006
			V122.518z"/>
		<path fill="#FFFFFF" d="M419.564,108.596l-4.061,2.406c-0.758-1.318-1.482-2.178-2.17-2.578c-0.715-0.459-1.639-0.688-2.772-0.688
			c-1.389,0-2.541,0.395-3.459,1.182c-0.916,0.775-1.375,1.75-1.375,2.924c0,1.621,1.203,2.924,3.609,3.914l3.309,1.354
			c2.693,1.09,4.662,2.42,5.908,3.988c1.246,1.57,1.869,3.494,1.869,5.774c0,3.053-1.016,5.576-3.051,7.568
			c-2.047,2.006-4.59,3.01-7.627,3.01c-2.879,0-5.256-0.857-7.133-2.568c-1.848-1.711-3-4.113-3.459-7.207l5.07-1.117
			c0.23,1.947,0.631,3.295,1.203,4.039c1.031,1.432,2.535,2.148,4.512,2.148c1.563,0,2.857-0.523,3.889-1.568
			c1.031-1.043,1.547-2.367,1.547-3.971c0-0.645-0.09-1.234-0.268-1.771c-0.18-0.538-0.459-1.032-0.838-1.481
			c-0.381-0.451-0.871-0.875-1.473-1.268c-0.602-0.392-1.316-0.77-2.148-1.127l-3.201-1.332c-4.539-1.918-6.811-4.723-6.811-8.416
			c0-2.488,0.953-4.572,2.857-6.246c1.906-1.689,4.275-2.533,7.111-2.533C414.43,103.032,417.416,104.887,419.564,108.596z"/>
		<path fill="#FFFFFF" d="M240.482,184.968h15.441v5.881h-27.85l14.395-17.43c1.414-1.738,2.602-3.242,3.559-4.514
			c0.959-1.271,1.688-2.336,2.189-3.195c1.02-1.683,1.531-3.194,1.531-4.538c0-1.934-0.682-3.555-2.041-4.861
			c-1.361-1.307-3.045-1.959-5.049-1.959c-4.189,0-6.59,2.479-7.197,7.438h-6.23c1.002-8.736,5.414-13.105,13.238-13.105
			c3.777,0,6.947,1.199,9.508,3.6c2.578,2.398,3.867,5.371,3.867,8.916c0,2.256-0.6,4.466-1.799,6.632
			c-0.609,1.129-1.5,2.467-2.672,4.016c-1.174,1.551-2.656,3.381-4.445,5.494L240.482,184.968z"/>
		<path fill="#FFFFFF" d="M263.701,169.845c0-6.604,1.541-11.878,4.619-15.815c2.758-3.564,6.098-5.346,10.018-5.346
			c3.922,0,7.26,1.781,10.018,5.346c3.078,3.938,4.619,9.301,4.619,16.085c0,6.77-1.541,12.123-4.619,16.061
			c-2.758,3.562-6.088,5.346-9.99,5.346c-3.904,0-7.252-1.783-10.045-5.346C265.242,182.237,263.701,176.794,263.701,169.845z
			 M269.879,169.872c0,4.604,0.795,8.426,2.387,11.469c1.59,2.99,3.619,4.486,6.086,4.486c2.449,0,4.478-1.496,6.086-4.486
			c1.609-2.971,2.414-6.723,2.414-11.254c0-4.529-0.805-8.288-2.414-11.278c-1.607-2.973-3.637-4.457-6.086-4.457
			c-2.432,0-4.451,1.484-6.061,4.457C270.684,161.764,269.879,165.45,269.879,169.872z"/>
		<path fill="#FFFFFF" d="M306.687,155.264h-7.17l3.438-5.881h9.99v41.466h-6.258L306.687,155.264L306.687,155.264z"/>
		<path fill="#FFFFFF" d="M343.201,147.932l4.592,3.438l-9.91,13.482c0.537-0.072,0.994-0.125,1.371-0.162
			c0.375-0.035,0.67-0.053,0.885-0.053c3.367,0,6.275,1.288,8.729,3.866c2.435,2.541,3.651,5.605,3.651,9.186
			c0,3.797-1.361,7.055-4.081,9.775c-2.703,2.703-5.953,4.057-9.748,4.057c-3.76,0-7.055-1.334-9.883-4.002
			c-2.775-2.668-4.162-5.828-4.162-9.48c0-3.275,1.352-6.752,4.055-10.422L343.201,147.932z M346.424,178.093
			c0-2.203-0.762-4.064-2.283-5.586c-1.539-1.543-3.393-2.312-5.559-2.312c-2.186,0-4.037,0.762-5.559,2.285
			c-1.523,1.521-2.283,3.365-2.283,5.531s0.76,4.012,2.283,5.533c1.522,1.521,3.383,2.283,5.586,2.283
			c2.148,0,3.982-0.762,5.504-2.283C345.654,182.003,346.424,180.186,346.424,178.093z"/>
	</g>
</g>
</svg>
