<?xml version="1.0" encoding="utf-8"?>
<!-- Generator: Adobe Illustrator 17.0.0, SVG Export Plug-In . SVG Version: 6.00 Build 0)  -->
<!DOCTYPE svg PUBLIC "-//W3C//DTD SVG 1.1//EN" "http://www.w3.org/Graphics/SVG/1.1/DTD/svg11.dtd">
<svg version="1.1" id="Livello_1" xmlns="http://www.w3.org/2000/svg" xmlns:xlink="http://www.w3.org/1999/xlink" x="0px" y="0px"
	 width="770px" height="177.5px" viewBox="0 0 770 177.5" style="enable-background:new 0 0 770 177.5;" xml:space="preserve">
<style type="text/css">
	.st0{fill:#008EFF;}
	.st1{fill:none;}
</style>
<g>
	<path class="st0" d="M31,141.5V3.4H0v171h96v-31H32.8C31.6,143.4,31,142.6,31,141.5z"/>
	<g>
		<path class="st1" d="M191.3,34c-30.2,0-54.8,24.5-54.8,54.8s24.5,54.8,54.8,54.8S246,119,246,88.8S221.5,34,191.3,34z"/>
		<g>
			<path class="st1" d="M191.3,32c-31.3,0-56.8,25.5-56.8,56.8s25.5,56.8,56.8,56.8S248,120,248,88.8S222.5,32,191.3,32z"/>
			<path class="st0" d="M191.3,0c-48.9,0-88.8,39.8-88.8,88.8c0,48.9,39.8,88.8,88.8,88.8S280,137.7,280,88.8
				C280,39.8,240.2,0,191.3,0z M191.3,145.5c-31.3,0-56.8-25.5-56.8-56.8S160,32,191.3,32S248,57.5,248,88.8
				S222.5,145.5,191.3,145.5z"/>
		</g>
		<path class="st1" d="M191.3,0c-48.9,0-88.8,39.8-88.8,88.8c0,48.9,39.8,88.8,88.8,88.8S280,137.7,280,88.8
			C280,39.8,240.2,0,191.3,0z"/>
		<path class="st1" d="M191.3,34c-30.2,0-54.8,24.5-54.8,54.8s24.5,54.8,54.8,54.8S246,119,246,88.8S221.5,34,191.3,34z"/>
	</g>
	<path class="st0" d="M418,101.4h38.8c0.6,0,1.2,0.3,1.6,0.8c0.3,0.4,0.4,0.8,0.4,1.3c0,0.2,0,0.3-0.1,0.5
		c-2.6,10.3-7.9,19.3-15.5,26.7c-10.9,10.7-25.3,16.7-40.4,16.7H402c-15.3,0-29.8-6.3-40.7-17.4c-10.6-10.9-16.3-25.9-16.3-41
		c0,0,0,0,0,0c0,0,0-0.1,0-0.1c0-15.3,6.1-29.7,17.1-40.5c10.8-10.8,25.3-17,40.6-17h0.5c11.3,1,21.6,3.4,30.5,9.3l11.2-11l11.2-11
		C440.9,7.1,422.7,1.4,403.5,0.4h-0.7c-23.5,0-45.7,9.3-62.4,25.8C323.6,42.8,314.2,65,314,88.5c-0.2,23.7,8.7,46,25.3,62.7
		c16.5,16.7,38.7,26,62.5,26.3c8.6,0,31.1-1.9,54-20.1c0.4-0.3,0.8-0.4,1.2-0.4c0.3,0,0.6,0.1,0.9,0.2c0.7,0.3,1.1,1,1.1,1.8v15.4
		h31v-104h-72V101.4z"/>
	<path class="st0" d="M526,34.4h17.2c1.1,0,1.8,0.7,1.8,1.8v105.2c0,1.1-0.6,1.9-1.8,1.9H526v31h69v-31h-16.8
		c-1.1,0-2.2-0.8-2.2-1.9V36.2c0-1.1,1.1-1.8,2.2-1.8H595v-31h-69V34.4z"/>
	<path class="st0" d="M739,99.2c0,0.8-0.5,1.6-1.2,1.9c-0.2,0.1-0.5,0.2-0.8,0.2c-0.5,0-1-0.2-1.4-0.5L639.4,3.4H631v171h31V74.2
		c0-0.8,0.6-1.6,1.4-1.9c0.2-0.1,0.6-0.2,0.9-0.2c0.5,0,1.1,0.2,1.4,0.6l97.9,101.6h6.4V3.4h-31V99.2z"/>
</g>
</svg>
