<?xml version="1.0" encoding="utf-8"?>
<!-- Generator: Adobe Illustrator 17.0.0, SVG Export Plug-In . SVG Version: 6.00 Build 0)  -->
<!DOCTYPE svg PUBLIC "-//W3C//DTD SVG 1.1//EN" "http://www.w3.org/Graphics/SVG/1.1/DTD/svg11.dtd">
<svg version="1.1" id="Livello_1" xmlns="http://www.w3.org/2000/svg" xmlns:xlink="http://www.w3.org/1999/xlink" x="0px" y="0px"
	 width="1037.8px" height="187.2px" viewBox="0 0 1037.8 187.2" style="enable-background:new 0 0 1037.8 187.2;"
	 xml:space="preserve">
<style type="text/css">
	.st0{fill:#008EFF;}
</style>
<g>
	<path class="st0" d="M43.7,103.3c-4.1-1.1-11.9-3.1-19.1-7.9C14.6,88.7,9,79,8.5,66.9C7.9,56.8,11.2,48,17.6,41.2
		C27,31.4,40.5,28.7,47,28.7c18.4,0,28.6,6.7,37.8,12.6l4.1,2.7L75.8,65.5l-4.5-2.9C63.2,57.4,58,53.9,47,53.9
		c-1.6,0-7.9,1.3-11.2,4.7c-1.1,1.1-2.3,3.1-2.2,7.2c0.2,6.5,4.7,10.1,16.2,13c1.4,0.4,2.5,0.7,3.6,1.1c12.1,4.1,21.4,9.7,27.9,16.7
		c6.5,7.2,9.9,15.7,9.9,24.7c0,8.8-3.8,18-10.1,25c-7.4,8.3-17.6,13-29,13c-5.6,0-13.1-0.4-22.1-3.1c-11.3-3.6-21.4-9.9-30.1-19.1
		l18.4-17.3C31.7,134,46.6,134,52.2,134c10.4,0,13.9-9.5,13.9-12.8c0-6.8-7.7-13.1-20.9-17.6l-0.5-0.2L43.7,103.3z"/>
	<path class="st0" d="M207.2,156.7l-70.9-73.6v73.6h-25.2V30.5h7.9l69.7,70.6V30.5h25.2v126.2H207.2z"/>
	<path class="st0" d="M587.6,30.5l-57.8,126.2h-6.1l-21.1-46.3l-21.2,46.3h-6.1L417.7,30.5h27.9l33.7,70.9l11.2-21.2l-24.3-49.7H494
		l32.8,69.8l32.9-69.8H587.6z"/>
	<path class="st0" d="M646.7,30.5c8.5,0,16.7,1.6,24.5,4.9c7.6,3.2,14.2,7.7,20,13.5c5.9,5.9,10.4,12.6,13.5,20.2
		c3.4,7.7,5,16,5,24.5c0,8.6-1.6,16.9-5,24.7c-3.1,7.6-7.6,14.2-13.5,20c-5.8,5.8-12.4,10.4-20,13.5c-7.7,3.4-16,5-24.5,5h-25.4
		v-0.2H611v-126H646.7z M646.7,131.5c20.9,0,37.8-17.1,37.8-38c0-20.9-16.9-37.8-37.8-37.8h-10.4v75.8H646.7z"/>
	<path class="st0" d="M784.9,30.5l59.6,126.2h-27.9l-36-76.7l-39.1,76.7h-28.3l64.3-126.2H784.9z"/>
	<path class="st0" d="M946.6,30.5l-41,79.9v46.3h-25.2v-46.3l-41.2-79.9H867l25.9,47.5l25.7-47.5H946.6z"/>
	<path class="st0" d="M990.3,103.3c-4.1-1.1-11.9-3.1-19.1-7.9C961.1,88.7,955.6,79,955,66.9c-0.5-10.1,2.7-18.9,9.2-25.7
		c9.4-9.7,22.9-12.4,29.3-12.4c18.4,0,28.6,6.7,37.8,12.6l4.1,2.7l-13.1,21.4l-4.5-2.9c-8.1-5.2-13.3-8.6-24.3-8.6
		c-1.6,0-7.9,1.3-11.2,4.7c-1.1,1.1-2.3,3.1-2.2,7.2c0.2,6.5,4.7,10.1,16.2,13c1.4,0.4,2.5,0.7,3.6,1.1c12.1,4.1,21.4,9.7,27.9,16.7
		c6.5,7.2,9.9,15.7,9.9,24.7c0,8.8-3.8,18-10.1,25c-7.4,8.3-17.6,13-29,13c-5.6,0-13.1-0.4-22.1-3.1c-11.3-3.6-21.4-9.9-30.1-19.1
		l18.4-17.3c13.3,14.2,28.3,14.2,33.8,14.2c10.4,0,13.9-9.5,13.9-12.8c0-6.8-7.7-13.1-20.9-17.6l-0.5-0.2L990.3,103.3z"/>
	<g>
		<path class="st0" d="M345.4,187.2c-0.1,0-0.2,0-0.4,0c-0.3-0.2-0.5-0.4-0.8-0.7c-3.7-2.5-7.4-4.9-11.2-7.2c-2.6-1.6-3.5-4.1-3.4-7
			c0.1-3.6,0.3-7.2,0.4-10.9c0.3-6.6,0.6-13.3,0.9-20c0.1-1.8,0.1-3.6,0.1-5.4c0-1.4-0.9-2.4-2.2-2.6c-1.6-0.3-3.1-0.7-4.7-0.7
			c-2.2,0.1-4.5,0.4-6.7,0.7c-3.3,0.3-3.5,1.5-3.2,4.2c1.2,10.6,2.3,21.2,3.4,31.8c0.3,2.7-0.6,5-2.9,6.6c-3.8,2.8-7.7,5.5-11.5,8.3
			c-0.1,0.1-0.2,0.1-0.4,0.1c-0.5-7.6-1-15.1-1.4-22.6c-0.4-6-0.7-11.9-1.1-17.8c-0.1-1.3-0.7-1.6-1.9-0.9c-2.9,1.9-5.8,3.8-8.6,5.8
			c-8.4,6-16.4,12.6-24.3,19.2c-0.4,0.3-0.7,0.6-1.4,1.1c-0.3-1.3-0.7-2.2-0.8-3.3c-0.4-3.6-0.7-7.2-1-10.7
			c-0.3-3.2,0.7-5.7,3.4-7.6c7.3-5.3,14.7-10.7,22-15.9c2.4-1.7,4.8-3.4,7.1-5.1c1-0.7,1.4-1.6,1-2.8c-1.2-4.3-3.4-7.9-7.2-10.4
			c-2.2-1.4-3.4-1.3-5.1,0.5c-2.3,2.3-4.6,4.6-6.9,7c-4.7,4.7-9.4,9.4-14,14.1c-3.4,3.4-7.4,4.4-11.9,2.8c-1.9-0.7-3.8-1.3-5.7-1.9
			c-1.7-0.5-3.4-1-5.3-1.6c0.3-0.2,0.4-0.4,0.7-0.6c9.8-8.9,19.7-17.7,29.4-26.5c0.9-0.7,0.7-1.6-0.4-1.9c-2.2-0.7-4.3-1.4-6.6-2.1
			c-11.1-3.4-22.3-5.9-33.7-8.1c-0.7-0.1-1.3-0.2-1.6-0.9c0-0.1,0-0.2,0-0.4c0.2-0.2,0.5-0.4,0.7-0.7c3.6-3.3,7.2-6.5,10.7-9.8
			c1-0.8,2.1-1.2,3.3-1.2c1,0,2.1,0.1,3.1,0.4c7.7,2.1,15.4,4.2,23.2,6.3c3.7,1,7.4,2.2,11.2,3.2c1.7,0.4,2.3,0.2,3.3-1.3
			c0.5-0.8,1-1.7,1.5-2.6c1.8-3.4,2.2-7.1,1.5-10.9c-0.1-1-0.8-1.6-1.8-1.8c-0.4-0.1-0.9-0.1-1.3-0.2c-3.9-0.4-7.7-0.9-11.5-1.3
			c-6.6-0.8-13.1-1.6-19.7-2.4c-3.5-0.4-6-2.1-7.3-5.4c-1-2.7-2.1-5.4-3.2-8c-0.6-1.6-1.3-3.1-1.9-4.8c14.2,2.5,27.9,5.5,42,6.4
			c-4.8-14.2-11.7-27.4-18.4-40.8c0.7,0.1,1.2,0.1,1.6,0.1c3.3,0.4,6.6,0.8,9.8,1c4.8,0.2,8.2,2.4,10.1,6.9
			c3.4,8.3,6.9,16.7,10.4,25c0.8,2,1.6,4.1,2.5,6.1c0.7,1.7,1.8,2.3,3.6,2.1c1-0.1,1.9-0.2,2.8-0.4c3.2-0.7,6-1.9,8.3-4.3
			c1.3-1.4,1.5-2.5,0.5-4.2c-0.1-0.2-0.3-0.5-0.4-0.7c-2.9-4.5-6-9.1-8.8-13.6s-5.6-9.2-8.3-13.7c-1.4-2.4-1.6-4.8-0.1-7.3
			c2.3-4.1,4.5-8.2,6.9-12.2c0.1-0.1,0.2-0.2,0.4-0.4c6.7,12.7,13.3,25.2,21.4,37.1c0.2-0.4,0.4-0.6,0.6-0.9
			c3.5-6.2,7.2-12.3,10.4-18.6c3.5-6.9,6.6-14,9.9-21c0.1,0,0.1,0,0.1,0c0.1,0.4,0.3,0.7,0.5,1c2.4,4.1,4.8,8.2,7.2,12.3
			c0.4,0.7,0.8,1.6,1,2.5c0.3,1.9-0.4,3.6-1.3,5.2c-3.9,7.4-8,14.7-12,22c-1.7,3.1-3.4,6.1-5.1,9.2c-0.8,1.6-0.7,2.2,0.5,3.4
			c1,1,2.2,1.9,3.4,2.8c2.5,1.9,5.4,2.7,8.4,2.8c1.3,0,2.2-0.5,2.7-1.8c0.1-0.4,0.3-0.7,0.4-1c3.3-9.5,6.6-19.1,9.8-28.6
			c0.7-2.2,2.1-3.9,3.8-5.3c0.4-0.4,1-0.7,1.6-0.7c3.6-0.7,7.4-1.5,11-2.2c1.6-0.3,3.1-0.5,4.8-0.8c-6,13-11.5,25.9-15.9,39.5
			c0.5-0.1,1-0.1,1.3-0.1c8.9-1.1,17.7-2.8,26.5-4.9c4.9-1.2,9.8-2.5,14.7-3.7c0.3-0.1,0.7,0.1,1,0.2c0.1,0.1,0.2,0.5,0.1,0.7
			c-1.7,4.5-3.4,9.1-5.2,13.6c-0.5,1.3-1.4,2.3-2.6,2.8c-1.4,0.6-2.8,1-4.3,1.3c-9,1.8-18.1,3.4-27.2,5.1c-2.2,0.4-4.4,0.7-6.6,1.2
			c-1.4,0.3-2.2,1.2-2.5,2.7c-0.8,4.5,0.1,8.6,2.6,12.4c1.2,1.9,1.9,2.2,4,1.3c9.7-3.4,19.4-6.9,29.1-10.2c1.3-0.4,2.9-0.7,4.4-0.7
			c2.8,0,4.9,1.6,6.9,3.4c2.9,2.7,5.8,5.4,8.7,8c0,0.1,0,0.1,0,0.1c-1,0.2-2,0.4-3.1,0.7c-10.7,2.8-21.4,5.6-31.9,9.3
			c-1.9,0.7-3.7,1.4-5.7,2.1c10.8,10.7,22.6,19.9,34.9,28.9c-4.5,1.4-8.9,2.8-13.3,4.2c-1.3,0.4-2.7,0.7-4,0.7
			c-2.4-0.1-4.2-1.4-6-2.9c-6.9-6-13.9-12.1-20.9-18.1c-1.7-1.5-3.4-3-5.1-4.5c-0.8-0.7-1.8-1.1-2.8-0.4c-3.7,2.2-6.9,5.1-8.4,9.2
			c-1,2.5-0.5,3.6,1.7,5.1c8.6,5.4,17.2,10.9,25.8,16.2c3.5,2.2,5.1,5.3,4.7,9.3c-0.3,3.9-0.7,7.9-1.1,11.8c0,0.3-0.1,0.5-0.1,0.9
			c-11.2-8.4-22.3-16.8-34.6-23.8c-1,7.1-1.3,14-1.4,20.9c-0.1,5.5,0,11,0.1,16.5C345.4,182.4,345.4,184.9,345.4,187.2z
			 M310.4,119.2c8.3-3.6,16.5-3,24.7,0.6c2.2-8.9,8-14.7,15.8-19c-5.5-7.2-6.3-15.4-5.1-24.1c-4.2-0.4-8.1-1.3-11.8-3.2
			c-3.7-1.9-6.8-4.5-9.5-7.8c-0.9,0.7-1.8,1.3-2.5,2c-2.9,2.9-6.3,4.9-10.2,6c-2.4,0.7-4.8,1-7.2,1.5c-1.9,0.4-2.4,0.7-2.4,2.8
			c0,0.4,0,0.7,0,1.2c0.4,6.1-1.1,11.7-4.5,16.9c-0.7,1-1.2,2.3-1.8,3.5C303.7,103.9,308.2,110.8,310.4,119.2z"/>
	</g>
</g>
</svg>
