<?xml version="1.0" encoding="utf-8"?>
<!-- Generator: Adobe Illustrator 17.0.0, SVG Export Plug-In . SVG Version: 6.00 Build 0)  -->
<!DOCTYPE svg PUBLIC "-//W3C//DTD SVG 1.1//EN" "http://www.w3.org/Graphics/SVG/1.1/DTD/svg11.dtd">
<svg version="1.1" id="Livello_1" xmlns="http://www.w3.org/2000/svg" xmlns:xlink="http://www.w3.org/1999/xlink" x="0px" y="0px"
	 width="824.8px" height="109.2px" viewBox="0 0 824.8 109.2" style="enable-background:new 0 0 824.8 109.2;" xml:space="preserve"
	>
<style type="text/css">
	.st0{fill:#008EFF;}
</style>
<g>
	<path class="st0" d="M36.4,62.5c-3.4-0.9-9.9-2.5-15.9-6.6C12.1,50.4,7.5,42.3,7,32.2c-0.4-8.4,2.2-15.7,7.6-21.4
		c7.8-8.1,19-10.3,24.4-10.3C54.4,0.5,63,6,70.6,10.9l3.4,2.2L63.1,31l-3.7-2.4c-6.8-4.4-11.1-7.2-20.2-7.2c-1.3,0-6.6,1-9.3,3.9
		c-0.9,0.9-2,2.5-1.8,6c0.1,5.4,3.9,8.4,13.5,10.8c1.2,0.3,2.1,0.6,3,0.9c10,3.4,17.8,8.1,23.2,13.9c5.4,6,8.2,13,8.2,20.5
		c0,7.3-3.1,15-8.4,20.8c-6.1,6.9-14.7,10.8-24.1,10.8c-4.6,0-10.9-0.3-18.4-2.6c-9.4-3-17.8-8.2-25-15.9l15.3-14.4
		c11.1,11.8,23.5,11.8,28.2,11.8c8.7,0,11.5-7.9,11.5-10.6c0-5.7-6.4-10.9-17.4-14.7l-0.5-0.2L36.4,62.5z"/>
	<path class="st0" d="M172.6,107.1l-59.1-61.3v61.3h-21V2h6.6l58,58.8V2h21v105.1H172.6z"/>
	<path class="st0" d="M305.1,54.4c0,30-24.4,54.4-54.4,54.4c-30,0-54.4-24.4-54.4-54.4c0-30,24.4-54.4,54.4-54.4
		C280.6,0,305.1,24.4,305.1,54.4z M217.8,54.4c0,18.1,14.7,32.8,32.8,32.8c18.1,0,32.8-14.7,32.8-32.8c0-18.1-14.7-32.8-32.8-32.8
		C232.5,21.6,217.8,36.3,217.8,54.4z"/>
	<path class="st0" d="M449.7,2l-48.1,105.1h-5.1l-17.5-38.5l-17.7,38.5h-5.1L308.1,2h23.2l28,59.1l9.3-17.7L348.4,2h23.2L399,60.1
		L426.4,2H449.7z"/>
	<path class="st0" d="M498.9,2c7,0,13.9,1.3,20.4,4c6.3,2.7,11.8,6.4,16.6,11.2c4.9,4.9,8.7,10.5,11.2,16.8
		c2.9,6.4,4.2,13.3,4.2,20.4c0,7.2-1.3,14.1-4.2,20.5c-2.5,6.3-6.3,11.8-11.2,16.6c-4.8,4.8-10.3,8.7-16.6,11.2
		c-6.5,2.8-13.3,4.2-20.4,4.2h-21.1v-0.1h-8.5V2H498.9z M498.9,86.1c17.4,0,31.5-14.2,31.5-31.6s-14.1-31.5-31.5-31.5h-8.7v63.1
		H498.9z"/>
	<path class="st0" d="M614.1,2l49.6,105.1h-23.2l-30-63.9l-32.5,63.9h-23.5L607.9,2H614.1z"/>
	<path class="st0" d="M748.8,2l-34.2,66.6v38.5h-21V68.5L659.2,2h23.2l21.6,39.6L725.5,2H748.8z"/>
	<path class="st0" d="M785.2,62.5c-3.5-0.9-9.9-2.5-15.9-6.6c-8.4-5.5-13-13.6-13.5-23.7c-0.5-8.4,2.2-15.7,7.6-21.4
		c7.8-8.1,19-10.3,24.4-10.3c15.3,0,23.8,5.5,31.5,10.5l3.5,2.2L811.9,31l-3.8-2.4c-6.8-4.4-11.1-7.2-20.2-7.2c-1.4,0-6.6,1-9.3,3.9
		c-0.9,0.9-2,2.5-1.8,6c0.1,5.4,3.9,8.4,13.5,10.8c1.2,0.3,2.1,0.6,3,0.9c10,3.4,17.8,8.1,23.2,13.9c5.4,6,8.2,13,8.2,20.5
		c0,7.3-3.2,15-8.4,20.8c-6.1,6.9-14.7,10.8-24.1,10.8c-4.7,0-10.9-0.3-18.4-2.6c-9.5-3-17.8-8.2-25-15.9l15.3-14.4
		c11.1,11.8,23.5,11.8,28.2,11.8c8.7,0,11.5-7.9,11.5-10.6c0-5.7-6.5-10.9-17.4-14.7l-0.5-0.2L785.2,62.5z"/>
</g>
</svg>
