<?xml version="1.0" encoding="utf-8"?>
<!-- Generator: Adobe Illustrator 17.0.0, SVG Export Plug-In . SVG Version: 6.00 Build 0)  -->
<!DOCTYPE svg PUBLIC "-//W3C//DTD SVG 1.1//EN" "http://www.w3.org/Graphics/SVG/1.1/DTD/svg11.dtd">
<svg version="1.1" id="Livello_1" xmlns="http://www.w3.org/2000/svg" xmlns:xlink="http://www.w3.org/1999/xlink" x="0px" y="0px"
	 width="1190.7px" height="161px" viewBox="0 0 1190.7 161" style="enable-background:new 0 0 1190.7 161;" xml:space="preserve">
<style type="text/css">
	.st0{fill:#008EFF;}
	.st1{fill:#FFFFFF;}
	.st2{fill:#008EFF;stroke:#008EFF;stroke-width:3;stroke-linecap:round;stroke-linejoin:round;stroke-miterlimit:10;}
	.st3{fill:none;stroke:#008EFF;stroke-width:3;stroke-linecap:round;stroke-linejoin:round;stroke-miterlimit:10;}
</style>
<g>
	<g>
		<path class="st0" d="M251.6,144.7c-5.5,0-12.9-0.3-21.7-3c-10.7-3.4-20.3-9.3-28.4-17.6l16.2-15.2c13.5,13.6,28.2,13.6,33.9,13.6
			c11.6,0,15.4-10.6,15.4-14.3c0-7.5-7.8-14.2-21.9-19.1l-0.6-0.2c-0.1,0-0.1,0-0.2,0l-0.9-0.2l-0.1,0c-4-1.1-11.6-3-18.5-7.7
			c-9.7-6.4-15-15.8-15.5-27.3c-0.5-9.5,2.5-18,8.8-24.6c9.1-9.5,22.5-12,28.2-12c17.9,0,28,6.5,36.9,12.3l3,1.9l-11.6,18.9
			l-3.4-2.2c-8.2-5.3-13.6-8.8-24.9-8.8c-1.6,0-8.5,1.2-12.2,5.1c-1.9,1.9-2.7,4.6-2.6,8.3c0.2,8.4,7.1,11.8,17.3,14.3
			c1.4,0.3,2.4,0.7,3.5,1c11.8,4.1,21,9.6,27.3,16.3c6.2,6.9,9.5,15.1,9.5,23.6c0,8.4-3.5,17.2-9.7,24
			C272.3,140.2,262.4,144.7,251.6,144.7z"/>
		<path class="st1" d="M246.4,18.7c17.4,0,26.9,6.1,36.1,12.1l0,0l1.7,1.1l-10,16.3l-1.9-1.2l-0.2-0.1c-8.1-5.2-14-9-25.7-9
			c-2.1,0-9.3,1.4-13.3,5.6c-2.2,2.2-3.2,5.4-3,9.4c0.3,9.9,9,13.4,18.5,15.8c1.3,0.3,2.3,0.7,3.4,1c11.6,4,20.6,9.3,26.6,15.9
			c6,6.6,9.1,14.5,9.1,22.7c0,8-3.4,16.4-9.3,23c-6.9,7.7-16.4,12-26.7,12c-5.4,0-12.6-0.3-21.2-2.9c-10-3.2-19-8.6-26.7-16.1
			l14-13.2c13.6,13,28.2,13,33.9,13c11.8,0,16.9-10.4,16.9-15.8c0-8.1-8.1-15.4-22.9-20.5l-0.5-0.2c-0.1,0-0.2-0.1-0.4-0.1l-0.8-0.2
			l-0.1,0c-4-1-11.3-2.9-18-7.5c-9.4-6.2-14.4-15-14.9-26.1c-0.5-9.1,2.4-17.2,8.3-23.5C227.9,21.1,240.8,18.7,246.4,18.7
			 M246.4,15.7c-6.5,0-20,2.7-29.3,12.4c-6.5,6.8-9.7,15.7-9.2,25.7c0.5,12.1,6.1,21.8,16.2,28.4c7.2,4.9,14.9,6.8,19.1,7.9l0.9,0.2
			l0.5,0.2c13.1,4.5,20.9,10.8,20.9,17.6c0,3.2-3.4,12.8-13.9,12.8c-5.6,0-20.5,0-33.8-14.2L199.4,124c8.6,9.2,18.7,15.5,30.1,19.1
			c9,2.7,16.6,3.1,22.1,3.1c11.3,0,21.6-4.7,29-13c6.3-7,10.1-16.2,10.1-25c0-9-3.4-17.5-9.9-24.7c-6.5-7-15.8-12.6-27.9-16.7
			c-1.1-0.4-2.2-0.7-3.6-1.1c-11.5-2.9-16-6.5-16.2-13c-0.2-4.1,1.1-6.1,2.2-7.2c3.2-3.4,9.5-4.7,11.2-4.7c11,0,16.2,3.4,24.3,8.6
			l4.5,2.9L288.3,31l-4.1-2.7C275,22.3,264.7,15.7,246.4,15.7L246.4,15.7z"/>
	</g>
	<g>
		<path class="st0" d="M407.2,142.2L336.7,69c-0.3-0.3-0.7-0.5-1.1-0.5c-0.2,0-0.4,0-0.6,0.1c-0.6,0.2-0.9,0.8-0.9,1.4v72.1h-22.2
			V19h5.8L387,89.1c0.3,0.3,0.7,0.4,1.1,0.4c0.2,0,0.4,0,0.6-0.1c0.6-0.2,0.9-0.8,0.9-1.4V19h22.2v123.2H407.2z"/>
		<path class="st1" d="M410.2,20.5v120.2h-2.4l-70-72.7c-0.6-0.6-1.4-0.9-2.2-0.9c-0.4,0-0.8,0.1-1.1,0.2c-1.1,0.5-1.9,1.6-1.9,2.8
			v70.6h-19.2V20.5h3.7l68.8,69.7c0.6,0.6,1.3,0.9,2.1,0.9c0.4,0,0.8-0.1,1.1-0.2c1.1-0.5,1.9-1.6,1.9-2.8V20.5H410.2 M413.2,17.5
			H388V88l-69.7-70.6h-7.9v126.2h25.2V70l70.9,73.6h6.7V17.5L413.2,17.5z"/>
	</g>
	<g>
		<path class="st0" d="M500.2,144.3c-35.2,0-63.8-28.6-63.8-63.8s28.6-63.8,63.8-63.8c35.2,0,63.8,28.6,63.8,63.8
			S535.4,144.3,500.2,144.3z M500.2,39.6c-22.6,0-40.9,18.4-40.9,40.9s18.4,40.9,40.9,40.9c22.6,0,40.9-18.4,40.9-40.9
			S522.7,39.6,500.2,39.6z"/>
		<path class="st1" d="M500.2,18.1c34.4,0,62.3,28,62.3,62.3c0,34.4-28,62.3-62.3,62.3c-34.4,0-62.3-28-62.3-62.3
			C437.8,46.1,465.8,18.1,500.2,18.1 M500.2,122.9c23.4,0,42.4-19,42.4-42.4c0-23.4-19-42.4-42.4-42.4c-23.4,0-42.4,19-42.4,42.4
			C457.7,103.9,476.8,122.9,500.2,122.9 M500.2,15.1c-36,0-65.3,29.3-65.3,65.3c0,36,29.3,65.3,65.3,65.3c36,0,65.3-29.3,65.3-65.3
			C565.5,44.5,536.2,15.1,500.2,15.1L500.2,15.1z M500.2,119.9c-21.8,0-39.4-17.6-39.4-39.4c0-21.8,17.6-39.4,39.4-39.4
			c21.8,0,39.4,17.6,39.4,39.4C539.6,102.3,521.9,119.9,500.2,119.9L500.2,119.9z"/>
	</g>
	<g>
		<path class="st0" d="M676.1,142.2l-20.7-45.4c-0.2-0.5-0.8-0.9-1.4-0.9c0,0,0,0,0,0c-0.6,0-1.1,0.3-1.4,0.9l-20.8,45.4h-4.2
			L571.4,19h24.6L629.3,89c0.2,0.5,0.8,0.8,1.3,0.9c0,0,0,0,0,0c0.6,0,1.1-0.3,1.3-0.8l11.2-21.2c0.2-0.4,0.2-0.9,0-1.4L619.9,19
			h24.5l32.4,69c0.2,0.5,0.8,0.9,1.4,0.9c0,0,0,0,0,0c0.6,0,1.1-0.3,1.4-0.9l32.5-69h24.6l-56.4,123.2H676.1z"/>
		<path class="st1" d="M734.3,20.5l-55,120.2H677l-20.3-44.5c-0.5-1.1-1.6-1.8-2.7-1.8c0,0,0,0,0,0c-1.2,0-2.2,0.7-2.7,1.7
			l-20.4,44.5h-2.3L573.8,20.5h21.3l32.8,69.2c0.5,1,1.5,1.7,2.6,1.7c0,0,0,0,0.1,0c1.1,0,2.1-0.6,2.7-1.6l11.2-21.2
			c0.4-0.8,0.5-1.9,0-2.7l-22.2-45.4h21.2l31.9,68.1c0.5,1.1,1.6,1.7,2.7,1.7c0,0,0,0,0,0c1.2,0,2.2-0.7,2.7-1.7L713,20.5H734.3
			 M739,17.5h-27.9l-32.9,69.8l-32.8-69.8h-27.9l24.3,49.7l-11.2,21.2L597,17.5h-27.9l57.6,126.2h6.1l21.2-46.3l21.1,46.3h6.1
			L739,17.5L739,17.5z"/>
	</g>
	<g>
		<path class="st0" d="M773.4,142.2c-0.2-0.1-0.5-0.2-0.7-0.2h-8.8V19h34.1c8.3,0,16.4,1.6,23.9,4.7c7.3,3.1,13.9,7.6,19.5,13.2
			c5.9,5.9,10.2,12.3,13.2,19.7c3.3,7.4,4.9,15.5,4.9,23.9c0,8.6-1.7,16.7-4.9,24.1c-3,7.4-7.4,13.9-13.2,19.5
			c-5.9,5.9-12.5,10.3-19.5,13.2c-7.4,3.3-15.5,4.9-23.9,4.9H773.4z M787.6,41.2c-0.8,0-1.5,0.7-1.5,1.5v75.8c0,0.8,0.7,1.5,1.5,1.5
			h10.4c21.7,0,39.3-17.7,39.3-39.5c0-21.7-17.6-39.3-39.3-39.3H787.6z"/>
		<path class="st1" d="M798.1,20.5c8.1,0,16,1.6,23.3,4.6c7.2,3.1,13.6,7.4,19,12.9c5.7,5.7,9.9,12,12.8,19.2c0,0,0,0.1,0,0.1
			c3.2,7.2,4.8,15,4.8,23.3c0,8.4-1.6,16.3-4.8,23.4c0,0,0,0.1,0,0.1c-2.9,7.1-7.2,13.5-12.8,19c-5.7,5.7-12.1,10.1-19,12.8
			c0,0-0.1,0-0.1,0c-7.2,3.2-15,4.8-23.3,4.8h-24.4c-0.3-0.1-0.7-0.2-1-0.2h-7.3v-120H798.1 M787.6,121.5h10.4
			c22.5,0,40.8-18.4,40.8-41c0-22.5-18.3-40.8-40.8-40.8h-10.4c-1.7,0-3,1.3-3,3v75.8C784.6,120.1,786,121.5,787.6,121.5
			 M798.1,17.5h-35.6v126h10.3v0.2h25.4c8.5,0,16.7-1.6,24.5-5c7.6-3.1,14.2-7.7,20-13.5c5.9-5.8,10.4-12.4,13.5-20
			c3.4-7.7,5-16,5-24.7c0-8.5-1.6-16.7-5-24.5c-3.1-7.6-7.6-14.2-13.5-20.2c-5.8-5.8-12.4-10.3-20-13.5
			C814.8,19.1,806.5,17.5,798.1,17.5L798.1,17.5z M787.6,118.5V42.7h10.4c20.9,0,37.8,16.9,37.8,37.8c0,20.9-16.9,38-37.8,38H787.6
			L787.6,118.5z"/>
	</g>
	<g>
		<path class="st0" d="M968.9,142.2l-35.6-75.8c-0.2-0.5-0.8-0.9-1.3-0.9c0,0,0,0,0,0c-0.6,0-1.1,0.3-1.3,0.8L892,142.2h-24.9
			L929.8,19h5.5l58.2,123.2H968.9z"/>
		<path class="st1" d="M934.4,20.5l56.7,120.2h-21.3l-35.2-75c-0.5-1-1.5-1.7-2.7-1.7c0,0,0,0,0,0c-1.1,0-2.2,0.6-2.7,1.6l-38.2,75
			h-21.5l61.2-120.2H934.4 M936.3,17.5h-7.4l-64.3,126.2h28.3L932,67l36,76.7h27.9L936.3,17.5L936.3,17.5z"/>
	</g>
	<g>
		<path class="st0" d="M1033.2,142.2V97.4c0-0.2-0.1-0.5-0.2-0.7L992.9,19h24.5l25.5,46.7c0.3,0.5,0.8,0.8,1.3,0.8c0,0,0,0,0,0
			c0.5,0,1.1-0.3,1.3-0.8l25.3-46.7h24.5l-39.9,77.7c-0.1,0.2-0.2,0.4-0.2,0.7v44.8H1033.2z"/>
		<path class="st1" d="M1093,20.5L1054.2,96c-0.2,0.4-0.3,0.9-0.3,1.4v43.3h-19.2V97.4c0-0.5-0.1-0.9-0.3-1.4l-39-75.5h21.2l25.1,46
			c0.5,1,1.5,1.6,2.6,1.6c0,0,0,0,0,0c1.1,0,2.1-0.6,2.6-1.6l24.9-45.9H1093 M1097.9,17.5H1070L1044.3,65l-25.9-47.5h-27.9
			l41.2,79.9v46.3h25.2V97.4L1097.9,17.5L1097.9,17.5z"/>
	</g>
	<g>
		<path class="st0" d="M1150.1,144.7c-5.5,0-12.9-0.3-21.7-3c-10.7-3.4-20.3-9.3-28.4-17.6l16.2-15.2c13.5,13.6,28.2,13.6,33.9,13.6
			c11.6,0,15.4-10.6,15.4-14.3c0-7.5-7.8-14.2-21.9-19.1l-0.6-0.2c-0.1,0-0.1,0-0.2,0l-0.9-0.2l-0.1,0c-4-1.1-11.6-3-18.5-7.7
			c-9.7-6.4-15-15.8-15.5-27.3c-0.5-9.5,2.5-18,8.8-24.6c9.1-9.5,22.5-12,28.2-12c17.9,0,28,6.5,36.9,12.3l3,1.9l-11.6,18.9
			l-3.4-2.2c-8.2-5.3-13.6-8.8-24.9-8.8c-1.6,0-8.5,1.2-12.2,5.1c-1.9,1.9-2.7,4.6-2.6,8.3c0.2,8.4,7.1,11.8,17.3,14.3
			c1.4,0.3,2.4,0.7,3.5,1c11.8,4.1,21,9.6,27.3,16.3c6.2,6.9,9.5,15.1,9.5,23.6c0,8.4-3.5,17.2-9.7,24
			C1170.8,140.2,1160.9,144.7,1150.1,144.7z"/>
		<path class="st1" d="M1144.9,18.7c17.4,0,26.9,6.1,36.1,12.1l0,0l1.7,1.1l-10,16.3l-1.9-1.2l-0.2-0.1c-8.1-5.2-14-9-25.7-9
			c-2.1,0-9.3,1.4-13.3,5.6c-2.2,2.2-3.2,5.4-3,9.4c0.3,9.9,9,13.4,18.5,15.8c1.3,0.3,2.3,0.7,3.4,1c11.6,4,20.6,9.3,26.6,15.9
			c6,6.6,9.1,14.5,9.1,22.7c0,8-3.4,16.4-9.3,23c-6.9,7.7-16.4,12-26.7,12c-5.4,0-12.6-0.3-21.2-2.9c-10-3.2-19-8.6-26.7-16.1
			l14-13.2c13.6,13,28.2,13,33.9,13c11.8,0,16.9-10.4,16.9-15.8c0-8.1-8.1-15.4-22.9-20.5l-0.5-0.2c-0.1,0-0.2-0.1-0.4-0.1l-0.8-0.2
			l-0.1,0c-4-1-11.3-2.9-18-7.5c-9.4-6.2-14.4-15-14.9-26.1c-0.5-9.1,2.4-17.2,8.3-23.5C1126.5,21.1,1139.4,18.7,1144.9,18.7
			 M1144.9,15.7c-6.5,0-20,2.7-29.3,12.4c-6.5,6.8-9.7,15.7-9.2,25.7c0.5,12.1,6.1,21.8,16.2,28.4c7.2,4.9,14.9,6.8,19.1,7.9
			l0.9,0.2l0.5,0.2c13.1,4.5,20.9,10.8,20.9,17.6c0,3.2-3.4,12.8-13.9,12.8c-5.6,0-20.5,0-33.8-14.2l-18.4,17.3
			c8.6,9.2,18.7,15.5,30.1,19.1c9,2.7,16.6,3.1,22.1,3.1c11.3,0,21.6-4.7,29-13c6.3-7,10.1-16.2,10.1-25c0-9-3.4-17.5-9.9-24.7
			c-6.5-7-15.8-12.6-27.9-16.7c-1.1-0.4-2.2-0.7-3.6-1.1c-11.5-2.9-16-6.5-16.2-13c-0.2-4.1,1.1-6.1,2.2-7.2
			c3.2-3.4,9.5-4.7,11.2-4.7c11,0,16.2,3.4,24.3,8.6l4.5,2.9l13.1-21.4l-4.1-2.7C1173.5,22.3,1163.3,15.7,1144.9,15.7L1144.9,15.7z"
			/>
	</g>
</g>
<g>
	<g>
		<path class="st2" d="M49.9,45.7l5.4,4.8c9.9-1.3,18.8-0.1,25.2,4.4c3.1,6.4,5.8,14,8,20.7c0.4-0.1,0.8-0.2,1.3-0.2
			C88.7,66.2,86.4,57,83,48.1c0.9-3.6,2.4-7.2,4.3-10.7c3.5-6.3,8.8-12.1,15.4-16.8l1.5-7.4c-6.6,3.7-12.2,8.3-16.5,13.4
			c-3.6,4.3-6.3,8.9-8.1,13.6c-0.8-1.6-10-20.2-30-38.7l-7.1,4C62,20.7,76.2,46.3,76.2,46.3S62.1,41,49.9,45.7"/>
		<path class="st2" d="M100,28.2l-1.5,7.1c6.1,7.9,9.5,16.3,8.8,24c-4,5.9-9.2,12-14,17.3c0.3,0.3,0.6,0.6,0.9,1
			c7.5-5.6,14.3-12.2,20.3-19.5c3.6-1,7.4-1.5,11.4-1.6c7.2-0.1,14.8,1.5,22.3,4.9l7.2-2.4c-6.5-3.9-13.3-6.4-19.9-7.6
			c-5.5-1-10.8-1-15.8-0.2c1-1.5,12.5-18.7,18.5-45.3l-7-4.1c-3.4,24.5-18.5,49.6-18.5,49.6S110.1,36.4,100,28.2"/>
		<path class="st2" d="M140.4,62.8l-6.9,2.3c-3.8,9.2-9.3,16.3-16.4,19.6c-7.1-0.5-15-2-21.9-3.5c-0.1,0.4-0.2,0.8-0.4,1.3
			c8.6,3.7,17.7,6.3,27.1,7.8c2.7,2.6,5,5.7,7.1,9.1c3.7,6.2,6.1,13.6,6.9,21.7l5.7,5c0.1-7.6-1.1-14.7-3.3-21
			c-1.9-5.2-4.5-9.9-7.7-13.8c1.8,0.1,22.5,1.5,48.5-6.7l0.1-8.1c-22.9,9.3-52.2,8.8-52.2,8.8S138.4,75.7,140.4,62.8"/>
		<path class="st2" d="M130.7,115.2l-5.4-4.8c-9.9,1.3-18.8,0.1-25.2-4.4c-3.1-6.4-5.8-14-8-20.7c-0.4,0.1-0.8,0.2-1.3,0.2
			c1.1,9.3,3.4,18.5,6.8,27.3c-0.9,3.6-2.4,7.2-4.3,10.7c-3.5,6.3-8.8,12.1-15.4,16.8l-1.5,7.4c6.6-3.7,12.2-8.3,16.5-13.4
			c3.6-4.3,6.3-8.9,8.1-13.6c0.8,1.6,10,20.2,30,38.7l7.1-4c-19.5-15.2-33.7-40.8-33.7-40.8S118.5,119.9,130.7,115.2"/>
		<path class="st2" d="M80.5,132.8l1.5-7.1c-6.1-7.9-9.5-16.3-8.8-24c4-5.9,9.2-12,14-17.3c-0.3-0.3-0.6-0.6-0.9-1
			C78.8,89,72,95.6,66,102.9c-3.6,1-7.4,1.5-11.4,1.6c-7.2,0.1-14.8-1.5-22.3-4.9l-7.2,2.4c6.5,3.9,13.3,6.4,19.9,7.6
			c5.5,1,10.8,1,15.8,0.2c-1,1.5-12.5,18.7-18.5,45.3l7,4.1c3.4-24.5,18.5-49.6,18.5-49.6S70.3,124.6,80.5,132.8"/>
		<path class="st2" d="M40,98.2l6.9-2.3c3.8-9.2,9.3-16.3,16.4-19.6c7.1,0.5,15,2,21.9,3.5c0.1-0.4,0.2-0.8,0.4-1.2
			c-8.6-3.7-17.7-6.3-27.1-7.8c-2.7-2.6-5.1-5.7-7.1-9.1c-3.7-6.2-6.1-13.6-6.9-21.7l-5.7-5c-0.1,7.6,1.1,14.7,3.4,21
			c1.9,5.2,4.5,9.9,7.7,13.8c-1.8-0.1-22.5-1.5-48.5,6.6l-0.1,8.1c22.9-9.3,52.2-8.8,52.2-8.8S42.1,85.3,40,98.2"/>
	</g>
</g>
<line class="st3" x1="83.4" y1="77.6" x2="93.3" y2="80.9"/>
<line class="st3" x1="88.5" y1="75.7" x2="90.8" y2="85.5"/>
<line class="st3" x1="86.3" y1="83.4" x2="94.1" y2="77.6"/>
<line class="st3" x1="89.8" y1="75.5" x2="92.1" y2="85.2"/>
<line class="st3" x1="94.7" y1="82.5" x2="85.3" y2="79.8"/>
<line class="st3" x1="87.2" y1="84.4" x2="94.1" y2="77.6"/>
<line class="st3" x1="87.2" y1="84.4" x2="93.3" y2="76.6"/>
</svg>
