<?xml version="1.0" encoding="utf-8"?>
<!-- Generator: Adobe Illustrator 17.0.0, SVG Export Plug-In . SVG Version: 6.00 Build 0)  -->
<!DOCTYPE svg PUBLIC "-//W3C//DTD SVG 1.1//EN" "http://www.w3.org/Graphics/SVG/1.1/DTD/svg11.dtd">
<svg version="1.1" id="Livello_1" xmlns="http://www.w3.org/2000/svg" xmlns:xlink="http://www.w3.org/1999/xlink" x="0px" y="0px"
	 width="1037.8px" height="180.2px" viewBox="0 0 1037.8 180.2" style="enable-background:new 0 0 1037.8 180.2;"
	 xml:space="preserve">
<style type="text/css">
	.st0{fill:#008EFF;}
</style>
<g>
	<path class="st0" d="M43.7,99.7c-4.1-1.1-11.9-3.1-19.1-7.9C14.6,85.1,9,75.4,8.5,63.4c-0.5-10.1,2.7-18.9,9.2-25.7
		C27,27.9,40.5,25.2,47,25.2c18.4,0,28.6,6.7,37.8,12.6l4.1,2.7L75.8,61.9L71.3,59C63.2,53.8,58,50.4,47,50.4
		c-1.6,0-7.9,1.3-11.2,4.7c-1.1,1.1-2.3,3.1-2.2,7.2c0.2,6.5,4.7,10.1,16.2,13c1.4,0.4,2.5,0.7,3.6,1.1c12.1,4.1,21.4,9.7,27.9,16.7
		c6.5,7.2,9.9,15.7,9.9,24.7c0,8.8-3.8,18-10.1,25c-7.4,8.3-17.6,13-29,13c-5.6,0-13.1-0.4-22.1-3.1C18.7,149,8.6,142.7,0,133.6
		l18.4-17.3c13.3,14.2,28.3,14.2,33.8,14.2c10.4,0,13.9-9.5,13.9-12.8c0-6.8-7.7-13.1-20.9-17.6l-0.5-0.2L43.7,99.7z"/>
	<path class="st0" d="M207.2,153.2l-70.9-73.6v73.6h-25.2V27h7.9l69.7,70.6V27h25.2v126.2H207.2z"/>
	<path class="st0" d="M587.6,27l-57.8,126.2h-6.1l-21.1-46.3l-21.2,46.3h-6.1L417.7,27h27.9l33.7,70.9l11.2-21.2L466.1,27H494
		l32.8,69.8L559.7,27H587.6z"/>
	<path class="st0" d="M646.7,27c8.5,0,16.7,1.6,24.5,4.9c7.6,3.2,14.2,7.7,20,13.5c5.9,5.9,10.4,12.6,13.5,20.2c3.4,7.7,5,16,5,24.5
		c0,8.6-1.6,16.9-5,24.7c-3.1,7.6-7.6,14.2-13.5,20c-5.8,5.8-12.4,10.4-20,13.5c-7.7,3.4-16,5-24.5,5h-25.4V153H611V27H646.7z
		 M646.7,128c20.9,0,37.8-17.1,37.8-38c0-20.9-16.9-37.8-37.8-37.8h-10.4V128H646.7z"/>
	<path class="st0" d="M784.9,27l59.6,126.2h-27.9l-36-76.7l-39.1,76.7h-28.3L777.5,27H784.9z"/>
	<path class="st0" d="M946.6,27l-41,79.9v46.3h-25.2v-46.3L839.1,27H867l25.9,47.5L918.7,27H946.6z"/>
	<path class="st0" d="M990.3,99.7c-4.1-1.1-11.9-3.1-19.1-7.9c-10.1-6.7-15.7-16.4-16.2-28.4c-0.5-10.1,2.7-18.9,9.2-25.7
		c9.4-9.7,22.9-12.4,29.3-12.4c18.4,0,28.6,6.7,37.8,12.6l4.1,2.7l-13.1,21.4l-4.5-2.9c-8.1-5.2-13.3-8.6-24.3-8.6
		c-1.6,0-7.9,1.3-11.2,4.7c-1.1,1.1-2.3,3.1-2.2,7.2c0.2,6.5,4.7,10.1,16.2,13c1.4,0.4,2.5,0.7,3.6,1.1c12.1,4.1,21.4,9.7,27.9,16.7
		c6.5,7.2,9.9,15.7,9.9,24.7c0,8.8-3.8,18-10.1,25c-7.4,8.3-17.6,13-29,13c-5.6,0-13.1-0.4-22.1-3.1c-11.3-3.6-21.4-9.9-30.1-19.1
		l18.4-17.3c13.3,14.2,28.3,14.2,33.8,14.2c10.4,0,13.9-9.5,13.9-12.8c0-6.8-7.7-13.1-20.9-17.6l-0.5-0.2L990.3,99.7z"/>
</g>
<g>
	<path class="st0" d="M317.8,133.8c-2.3,2.2-4.4,4.2-6.5,6.3c-2.5,2.4-5,4.8-7.3,7.4c-2.4,2.8-7,1.3-8.1-2.1
		c-0.7-2.2,0.5-3.8,1.8-5.2c3.5-3.6,6.9-7,10.5-10.5c1.3-1.3,2.7-2.6,3.9-3.9c0.6-0.6,1-1.5,1.1-2.3c0.1-5.2,0-10.4,0-15.6
		c0-0.2-0.1-0.5-0.2-0.9c-2.9,0-5.2-1.2-6.6-3.8c-0.7,0.2-1.3,0.2-1.7,0.5c-4.2,2.4-8.4,4.9-12.6,7.3c-1.3,0.7-1.7,1.6-2.1,3
		c-1.6,6.4-3.4,12.9-5.2,19.3c-0.9,2.9-2.2,3.8-5.1,3.8c-2.2-0.1-4.1-1.8-4.2-4.1c0-1.1,0.1-2.1,0.4-3.1c1.3-5.3,2.8-10.6,4.2-15.9
		c0.1-0.5,0.2-1.1,0.3-1.9c-2.9-0.8-5.7-1.5-8.4-2.3c-3.6-1-7.1-1.8-10.7-3c-2.4-0.8-3.7-3.1-3.2-5.3c0.5-2.5,2.5-4.2,5-3.9
		c2.4,0.3,4.8,1.1,7.2,1.6c4.7,1.3,9.4,2.6,14.1,3.8c0.6,0.2,1.4,0.1,2-0.2c1.8-0.9,3.6-1.9,5.3-2.9c2.5-1.4,5-2.9,7.5-4.3
		c0.6-0.4,1.2-0.8,2-1.3c-1.7-2.5-2.1-5,0.1-7.6c-2.1-1.3-4-2.6-6.1-3.8c-2.5-1.4-5.1-2.8-7.6-4.3c-1.4-1-2.8-1-4.3-0.5
		c-6.4,1.7-12.9,3.4-19.3,5.2c-2.1,0.6-4.6-0.7-5.6-2.3c-1.5-2.9-0.2-6.3,3-7.1c5.4-1.4,10.9-2.9,16.3-4.3c0.8-0.2,1.5-0.5,2.4-0.8
		c-0.3-1.2-0.5-2.2-0.7-3.2c-1.3-4.9-2.7-9.7-3.8-14.6c-0.3-1.4-0.3-3.1,0.1-4.4c0.7-2,2.4-2.9,4.6-2.7c2,0.2,3.7,1.3,4.2,3.4
		c0.9,3,1.6,6.1,2.5,9c1.1,3.8,2,7.8,3.1,11.6c0.2,0.7,0.7,1.3,1.3,1.6c4.5,2.7,9,5.3,13.6,7.9c0.3,0.2,0.8,0.3,1.1,0.4
		c1.1-1.1,1.8-2.3,2.9-2.9c1.2-0.7,2.6-0.7,4-1.1c0-5.9,0-11.8,0-18c-3.9-3.9-8.2-8.1-12.3-12.3c-1.2-1.2-2.3-2.3-3.4-3.5
		c-2.2-2.4-2-4.8,0.2-7c1.3-1.3,5.1-1.3,6.6,0.3c3.6,3.8,7.3,7.3,11,11c0.9,0.9,1.8,1.7,2.9,2.6c3.4-3.5,6.5-6.6,9.7-9.8
		c1.3-1.3,2.6-2.6,4-3.8c1.7-1.5,3.9-1.8,5.8-0.8c1.9,1.1,2.9,3.2,2.3,5.4c-0.3,1-1,1.8-1.7,2.6c-4.2,4.3-8.6,8.6-12.8,12.9
		c-0.9,0.9-1.6,1.7-2.3,2.4c0,6.2,0,12.1,0,18.4c3,0,5.4,0.8,6.6,3.9c2.5-1.4,4.8-2.7,7.1-3.9c2.3-1.3,4.6-2.7,6.9-4
		c1.2-0.6,1.7-1.3,2.1-2.7c1.6-6.5,3.5-13,5.2-19.5c0.8-2.8,3.5-4.6,6.1-3.9c2.6,0.7,4.2,3.7,3.5,6.5c-1.3,5.2-2.8,10.4-4.2,15.6
		c-0.2,0.9-0.2,1.8-0.3,2.7c0.4,0.3,0.6,0.6,0.8,0.6c5.4,1.5,10.8,3.2,16.3,4.6c3.2,0.9,4.2,1.7,4.6,4.4c0.5,3.2-1.4,5.2-4.7,5
		c-1.3-0.1-2.8-0.1-4-0.7c-3.8-1.6-7.9-2.2-11.8-3.3c-1.7-0.5-3.4-1.2-5.1-1.5c-0.8-0.2-1.7-0.2-2.3,0.2c-4.9,2.7-9.8,5.6-14.9,8.6
		c1.4,2.6,2,5.2,0.1,7.8c0.5,0.4,0.8,0.8,1.2,1.1c4.1,2.4,8.4,4.8,12.5,7.3c1.2,0.7,2.1,0.8,3.4,0.5c6.7-1.7,13.4-3.4,20.1-5
		c2.6-0.7,5,0.4,5.6,2.5c0.7,2.4,0.6,4.8-2.4,6.3c-0.6,0.3-1.3,0.4-1.8,0.6c-5.1,1.3-10.2,2.7-15.4,4c-0.7,0.2-1.3,0.6-2.2,1
		c0.2,1,0.4,1.9,0.6,2.8c1.3,5.2,2.8,10.4,4.1,15.6c0.8,2.8-0.7,5.8-3.1,6.2c-3.1,0.5-5.2-0.2-6.3-3.8c-0.8-2.3-1.3-4.6-1.9-6.9
		c-1.3-4.7-2.5-9.4-3.8-14.4c-5.1-2.9-10.3-5.8-15.6-8.9c-1.6,2.6-3.7,4.2-6.8,3.9c0,6.2,0,12.2,0,17.4c5.4,5.6,10.3,10.6,15.1,15.7
		c0.9,0.9,1.5,2.1,1.8,3.3c0.5,2.1-0.6,4.2-2.3,5.2c-2,1.1-4.2,0.8-6-1c-3.9-3.8-7.8-7.8-11.6-11.6
		C319.4,135.1,318.7,134.5,317.8,133.8z"/>
	<path class="st0" d="M370.8,59.7c0.9-3.4,1.7-6.5,2.6-9.7c1.6-6,3.2-11.9,4.8-17.9c0.8-2.7,2.2-4,4.3-4.2c3.7-0.3,6.3,2.9,5.4,6.7
		c-0.9,3.6-1.9,7.1-2.9,10.7c-0.5,1.7-1,3.4-1.4,5.1c-0.2,0.8-0.3,1.5-0.5,2.5c2.7,0.8,5.2,1.4,7.8,2.2c3.6,1,7.1,1.9,10.7,2.9
		c2,0.6,3.3,1.9,3.6,4.1c0.3,2.3-0.5,4-2.6,5.3c-1.3,0.8-2.5,0.7-3.8,0.3c-8.9-2.4-17.6-4.8-26.5-7.3
		C371.9,60.3,371.5,60.1,370.8,59.7z"/>
	<path class="st0" d="M265.2,120.7c-2.4,9.2-4.8,18.3-7.3,27.3c-0.6,2-1.5,3.7-3.8,4.4c-1.6,0.6-3.1,0.2-4.2-0.9
		c-1.7-1.5-2.7-3.3-1.9-5.8c1.4-5,2.8-10.1,4.1-15.1c0.3-1,0.5-1.8,0.7-3c-0.6-0.3-1.1-0.5-1.5-0.7c-5.5-1.4-11-2.9-16.5-4.4
		c-3.8-1.1-5.3-4.3-3.7-7.5c1-1.9,2.7-2.8,5.1-2.3c2,0.4,4,1,6.1,1.5c7.4,1.9,14.7,3.9,22.1,6C264.6,120.3,264.8,120.5,265.2,120.7z
		"/>
	<path class="st0" d="M383,127.9c0.4,1.5,0.8,3.1,1.3,4.7c1.2,4.5,2.3,9,3.6,13.5c0.9,3.2-0.5,5.5-3.8,6.4c-2.4,0.7-5-1-5.8-3.8
		c-0.8-2.7-1.5-5.4-2.2-8.2c-1.6-6.1-3.2-12.1-4.8-18.2c-0.2-0.6-0.2-1.3-0.2-1.9c3.3-0.9,6.3-1.7,9.4-2.6
		c6.1-1.6,12.1-3.3,18.2-4.9c1.5-0.4,2.9-0.4,4.4,0.4c2.9,1.5,2.9,6.5,0.2,8c-1.3,0.7-2.6,1.3-3.9,1.6c-5.1,1.4-10.2,2.7-15.4,4
		C383.6,127.3,383.5,127.5,383,127.9z"/>
	<path class="st0" d="M265.2,59.9c-6.6,1.7-13.1,3.5-19.5,5.1c-1.9,0.5-3.8,1.1-5.8,1.5c-1.5,0.4-3.1,0.9-4.7,1
		c-2.7,0.2-5.2-3.2-4.4-5.9c0.5-1.8,1.4-3.2,3.5-3.7c3.6-1,7.1-1.9,10.7-2.9c2.6-0.7,5.2-1.4,7.9-2.2c0.2-2-0.7-3.7-1.2-5.5
		c-1.1-4.2-2.3-8.5-3.4-12.8c-0.3-1.3-0.3-2.8,0.2-4c1.3-3.3,5.7-3.9,8-1.3c0.6,0.7,1.2,1.6,1.4,2.5
		C260.3,41.1,262.7,50.3,265.2,59.9z"/>
	<path class="st0" d="M317.9,15.3c0.7-0.7,1.3-1.2,1.8-1.7c3.8-3.8,7.8-7.8,11.6-11.6c1.4-1.4,3.2-2.2,5.3-1.5
		c3.6,1.3,4.5,5.4,1.7,8.2c-2,2.1-4,4.1-6.1,6.2c-4.6,4.8-9.3,9.6-14,14.4c-0.8-0.6-1.3-0.9-1.6-1.3c-6.2-6.2-12.3-12.3-18.6-18.6
		c-0.6-0.7-1.3-1.3-1.7-2c-1.3-2.1-1-4.6,1-6.1c1.6-1.3,3.9-2,6-0.2c2.9,2.7,5.7,5.5,8.6,8.2C314,11.3,315.9,13.3,317.9,15.3z"/>
	<path class="st0" d="M317.7,165.4c-0.5,0.5-1.2,1-1.8,1.5c-3.8,3.8-7.6,7.5-11.4,11.4c-1,1.1-2.1,1.7-3.6,1.8
		c-2.5,0.1-3.9-0.8-4.9-3.1c-0.9-1.9-0.5-3.5,1.3-5.2c5-5,10-10.1,15-15.1c1.8-1.8,3.7-3.7,5.8-5.7c2.1,2.2,4.1,4.4,6.2,6.4
		c4.6,4.6,9.2,9.2,13.9,13.9c1.2,1.2,1.8,2.3,1.8,4c0,1.9-0.9,3.3-2.4,4.1c-1.7,0.9-3.7,1-5.2-0.4c-1.4-1.2-2.8-2.4-4.1-3.8
		c-3.3-3.3-6.4-6.5-9.7-9.7C318.4,165.6,318.2,165.6,317.7,165.4z"/>
</g>
</svg>
