<?xml version="1.0" encoding="UTF-8"?>
<svg width="890px" height="141px" viewBox="0 0 890 141" version="1.1" xmlns="http://www.w3.org/2000/svg" xmlns:xlink="http://www.w3.org/1999/xlink">
    <!-- Generator: Sketch 41.2 (35397) - http://www.bohemiancoding.com/sketch -->
    <title>snowdays-white-no_snowflake</title>
    <desc>Created with Sketch.</desc>
    <defs>
        <filter x="-50%" y="-50%" width="200%" height="200%" filterUnits="objectBoundingBox" id="filter-1">
            <feOffset dx="0" dy="0" in="SourceAlpha" result="shadowOffsetOuter1"></feOffset>
            <feGaussianBlur stdDeviation="7.5" in="shadowOffsetOuter1" result="shadowBlurOuter1"></feGaussianBlur>
            <feColorMatrix values="0 0 0 0 0   0 0 0 0 0   0 0 0 0 0  0 0 0 0.3 0" type="matrix" in="shadowBlurOuter1" result="shadowMatrixOuter1"></feColorMatrix>
            <feMerge>
                <feMergeNode in="shadowMatrixOuter1"></feMergeNode>
                <feMergeNode in="SourceGraphic"></feMergeNode>
            </feMerge>
        </filter>
    </defs>
    <g id="Page-1" stroke="none" stroke-width="1" fill="none" fill-rule="evenodd">
        <g id="Snowdays" transform="translate(-120.000000, -250.000000)">
            <g id="snowdays-white-no_snowflake" filter="url(#filter-1)" transform="translate(133.000000, 265.000000)">
                <g id="Livello_1">
                    <g id="Group">
                        <path d="M572.50802,71.8375 C574.170761,66.675 575.045888,61.1625 575.045888,55.3875 L575.045888,55.3875 C575.045888,61.1625 574.170761,66.675 572.50802,71.8375 Z" id="Shape"></path>
                        <path d="M624.665584,69.0375 C624.578071,68.8625 624.490558,68.6875 624.490558,68.5125 C624.490558,68.6875 624.578071,68.8625 624.665584,69.0375 C625.015635,69.5625 625.540711,69.825 626.153299,69.825 C625.540711,69.825 625.015635,69.5625 624.665584,69.0375 Z" id="Shape"></path>
                        <path d="M637.092386,42.7875 C637.354924,42.175 637.967513,41.825 638.667614,41.825 C637.967513,41.825 637.354924,42.175 637.092386,42.7875 L624.578071,67.375 C624.403046,67.6375 624.403046,67.9 624.403046,68.25 C624.403046,67.9875 624.490558,67.725 624.578071,67.375 L637.092386,42.7875 Z" id="Shape"></path>
                        <path d="M376.479594,63 L386.281015,44.7125 C386.456041,44.45 386.456041,44.1875 386.456041,43.925 C386.456041,44.1 386.368528,44.275 386.281015,44.5375 L376.479594,63 C376.217056,63.525 375.604467,63.7 374.904365,63.7 C375.604467,63.7 376.217056,63.6125 376.479594,63 Z" id="Shape"></path>
                        <path d="M115.954315,44.625 C115.254213,44.8875 114.729137,45.5 114.729137,46.2875 C114.729137,45.5875 115.254213,44.975 115.954315,44.625 C116.12934,44.5375 116.566904,44.5375 116.741929,44.5375 C117.004467,44.5375 117.179492,44.625 117.354518,44.7125 C117.09198,44.625 116.829442,44.5375 116.654416,44.5375 C116.479391,44.5375 116.12934,44.5375 115.954315,44.625 Z" id="Shape"></path>
                        <path d="M651.707005,67.375 C651.794518,67.6375 651.88203,67.9 651.88203,68.25 C651.88203,67.9875 651.794518,67.6375 651.707005,67.375 L646.718782,56.7 L651.707005,67.375 Z" id="Shape"></path>
                        <path d="M43.7563452,45.0625 C42.7937056,44.7125 41.9185787,44.45 40.7809137,44.1875 C29.9293401,41.475 25.3786802,37.7125 25.2036548,31.2375 C25.0286294,27.9125 25.8162437,25.4625 27.5664975,23.7125 C30.8919797,20.2125 36.9303553,19.075 38.5930964,19.075 C48.6570558,19.075 53.6452792,22.3125 60.6462944,26.775 L60.8213198,26.8625 L63.2716751,28.4375 L72.9855838,12.6875 L70.7977665,11.2875 L70.7977665,11.2875 C62.9216244,6.125 54.1703553,0.4375 38.5930964,0.4375 C33.6048731,0.4375 22.053198,2.625 14.1770558,10.7625 C8.83878173,16.45 6.21340102,23.8 6.65096447,31.9375 C7.08852792,42 11.6391878,49.875 20.0404061,55.475 C25.991269,59.5 32.5547208,61.25 36.0552284,62.125 L36.1427411,62.125 L36.8428426,62.3 C36.9303553,62.3 37.017868,62.3 37.017868,62.3875 L37.4554315,62.5625 C50.0572589,66.85 56.8832487,72.975 56.8832487,79.625 C56.8832487,84 52.6826396,92.575 42.968731,92.575 C37.9805076,92.575 25.1161421,92.575 13.3019289,80.85 L0,93.625 C7.00101523,100.625 15.1396954,105.7 24.3285279,108.5875 C32.0296447,110.8625 38.4180711,111.2125 43.1437563,111.2125 C52.5076142,111.2125 60.9963452,107.3625 67.2097462,100.45 C72.5480203,94.5 75.6109645,86.975 75.6109645,79.7125 C75.6109645,72.3625 72.8105584,65.275 67.3847716,59.325 C61.9589848,53.375 53.9953299,48.65 43.7563452,45.0625 Z" id="Shape" fill="#FFFFFF"></path>
                        <path d="M67.3847716,59.2375 C61.9589848,53.375 53.9953299,48.65 43.7563452,45.0625 C42.7937056,44.7125 41.9185787,44.45 40.7809137,44.1875 C29.9293401,41.475 25.3786802,37.7125 25.2036548,31.2375 C25.0286294,27.9125 25.8162437,25.4625 27.5664975,23.7125 C30.8919797,20.2125 36.9303553,19.075 38.5930964,19.075 C48.6570558,19.075 53.6452792,22.3125 60.6462944,26.775 L60.8213198,26.8625 L63.2716751,28.4375 L72.9855838,12.6875 L70.7977665,11.2875 L70.7977665,11.2875 C62.9216244,6.125 54.1703553,0.4375 38.5930964,0.4375 C33.6048731,0.4375 22.053198,2.625 14.1770558,10.7625 C8.83878173,16.45 6.21340102,23.8 6.65096447,31.9375 C7.08852792,42 11.6391878,49.875 20.0404061,55.475 C25.991269,59.5 32.5547208,61.25 36.0552284,62.125 L36.1427411,62.125 L36.8428426,62.3 C36.9303553,62.3 37.017868,62.3 37.017868,62.3875 L37.4554315,62.5625 C50.0572589,66.85 56.8832487,72.975 56.8832487,79.625 C56.8832487,84 52.6826396,92.575 42.968731,92.575 C37.9805076,92.575 25.1161421,92.575 13.3019289,80.85 L0,93.625 C7.00101523,100.625 15.1396954,105.7 24.3285279,108.5875 C32.0296447,110.8625 38.4180711,111.2125 43.1437563,111.2125 C52.5076142,111.2125 60.9963452,107.3625 67.2097462,100.45 C72.5480203,94.5 75.6109645,86.975 75.6109645,79.7125 C75.6109645,72.275 72.8105584,65.275 67.3847716,59.2375 Z" id="Shape"></path>
                        <path d="M163.386193,63.7 C163.211168,63.7875 162.773604,63.875 162.598579,63.875 C162.161015,63.875 161.723452,63.7875 161.373401,63.4375 L100.902132,2.45 L96.3514721,2.45 L96.3514721,109.2 L114.729137,109.2 L114.729137,46.2875 C114.729137,45.5875 115.254213,44.975 115.954315,44.625 C116.12934,44.5375 116.479391,44.5375 116.654416,44.5375 C116.916954,44.5375 117.179492,44.625 117.354518,44.7125 C117.617056,44.8 117.792081,44.975 117.967107,45.15 L179.488528,109.2 L182.901523,109.2 L182.901523,2.45 L164.523858,2.45 L164.523858,62.0375 C164.611371,62.7375 164.086294,63.4375 163.386193,63.7 Z" id="Shape" fill="#FFFFFF"></path>
                        <path d="M164.611371,62.0375 C164.611371,62.7375 163.998782,63.4375 163.386193,63.7 C163.211168,63.7875 162.773604,63.875 162.598579,63.875 C162.161015,63.875 161.723452,63.7875 161.373401,63.4375 L100.902132,2.45 L96.3514721,2.45 L96.3514721,109.2 L114.729137,109.2 L114.729137,46.2875 C114.729137,45.5875 115.254213,44.975 115.954315,44.7125 C116.12934,44.625 116.566904,44.625 116.741929,44.625 C117.004467,44.625 117.179492,44.7125 117.354518,44.8 C117.617056,44.8875 117.792081,45.0625 117.967107,45.2375 L179.488528,109.2875 L182.901523,109.2875 L182.901523,2.45 L164.523858,2.45 L164.523858,62.0375 L164.611371,62.0375 Z" id="Shape"></path>
                        <path d="M260.700305,0 C230.158376,0 205.304772,24.85 205.304772,55.3875 C205.304772,85.925 230.158376,110.775 260.700305,110.775 C291.242234,110.775 316.095838,85.925 316.095838,55.3875 C316.18335,24.85 291.329746,0 260.700305,0 Z M260.700305,91.7 C240.747411,91.7 224.470051,75.425 224.470051,55.475 C224.470051,35.525 240.747411,19.25 260.700305,19.25 C280.653198,19.25 296.930558,35.525 296.930558,55.475 C296.930558,75.425 280.740711,91.7 260.700305,91.7 Z" id="Shape" fill="#FFFFFF"></path>
                        <path d="M260.700305,0 C230.158376,0 205.304772,24.85 205.304772,55.3875 C205.304772,85.925 230.158376,110.775 260.700305,110.775 C291.242234,110.775 316.095838,85.925 316.095838,55.3875 C316.18335,24.85 291.329746,0 260.700305,0 Z" id="Shape"></path>
                        <path d="M416.472893,62.825 L416.472893,62.825 C415.772792,62.825 415.160203,62.825 414.897665,62.2125 L386.718579,2.45 L366.240609,2.45 L386.281015,43.1375 C386.456041,43.4 386.456041,43.6625 386.456041,43.8375 C386.456041,44.1 386.368528,44.3625 386.281015,44.625 L376.479594,63 C376.217056,63.6125 375.604467,63.7 374.904365,63.7 L374.904365,63.7 C374.204264,63.7 373.679188,63.7 373.329137,63.0875 L344.362437,2.45 L323.796954,2.45 L372.629036,109.2 L375.779492,109.2 L393.807107,69.475 C394.069645,68.8625 394.682234,68.1625 395.382335,68.1625 L395.382335,68.1625 C396.082437,68.1625 396.695025,68.8625 396.957563,69.475 L414.897665,109.2875 L417.960609,109.2875 L466.880203,2.5375 L446.314721,2.5375 L417.960609,62.3 C417.785584,62.825 417.172995,62.825 416.472893,62.825 Z" id="Shape" fill="#FFFFFF"></path>
                        <path d="M446.489746,2.45 L418.135635,62.2125 C417.873096,62.825 417.260508,62.825 416.560406,62.825 L416.560406,62.825 C415.860305,62.825 415.247716,62.825 414.985178,62.2125 L386.718579,2.45 L366.240609,2.45 L386.281015,43.1375 C386.456041,43.4 386.456041,43.6625 386.456041,43.8375 C386.456041,44.0125 386.368528,44.1875 386.281015,44.45 L376.479594,63 C376.217056,63.6125 375.604467,63.7 374.904365,63.7 L374.904365,63.7 C374.204264,63.7 373.679188,63.7 373.329137,63.0875 L344.362437,2.45 L323.796954,2.45 L372.629036,109.2 L375.779492,109.2 L393.807107,69.475 C394.069645,68.8625 394.682234,68.1625 395.382335,68.1625 L395.382335,68.1625 C396.082437,68.1625 396.695025,68.8625 396.957563,69.475 L414.897665,109.2875 L417.960609,109.2875 L466.880203,2.5375 L446.489746,2.5375 L446.489746,2.45 Z" id="Shape"></path>
                        <path d="M570.582741,34.7375 C570.495228,34.7375 570.495228,34.7375 570.582741,34.7375 C567.95736,28.35 564.281827,22.8375 559.118579,17.675 C554.217868,12.775 548.529543,9.1 542.141117,6.3875 C535.665178,3.675 528.664162,2.45 521.400609,2.45 L491.908832,2.45 L491.908832,109.2 L499.172386,109.2 L499.872487,109.2 L521.313096,109.2 C528.664162,109.2 535.665178,107.625 542.053604,104.825 C542.053604,104.825 542.053604,104.65 542.141117,104.65 C548.267005,102.2 553.95533,98.35 559.031066,93.1875 C564.019289,88.2875 567.869848,82.6 570.495228,76.3 C570.495228,76.3 570.495228,76.3 570.495228,76.2125 C571.107817,74.725 571.720406,73.325 572.15797,71.75 C573.820711,66.5875 574.695838,61.075 574.695838,55.3 C574.78335,48.125 573.383147,41.125 570.582741,34.7375 Z M521.400609,90.825 L512.299289,90.825 C511.33665,90.825 510.286497,89.6 510.286497,88.6375 L510.286497,22.3125 C510.286497,21.35 511.33665,20.825 512.299289,20.825 L521.400609,20.825 C540.565888,20.825 556.23066,36.575 556.23066,55.7375 C556.23066,75.075 540.653401,90.825 521.400609,90.825 Z" id="Shape" fill="#FFFFFF"></path>
                        <path d="M575.045888,55.475 C575.045888,55.3875 575.045888,55.3875 575.045888,55.475 C575.045888,48.125 573.47066,41.2125 570.670254,34.7375 L570.495228,34.7375 C567.95736,28.35 564.194315,22.8375 559.031066,17.7625 C554.130355,12.8625 548.44203,9.1875 542.053604,6.475 C535.577665,3.7625 528.57665,2.5375 521.313096,2.5375 L491.82132,2.5375 L491.82132,109.2875 L499.084873,109.2875 L499.784975,109.2875 L521.225584,109.2875 C528.57665,109.2875 535.577665,107.7125 541.966091,104.9125 C541.966091,104.9125 541.966091,104.7375 542.053604,104.7375 C548.179492,102.2875 553.867817,98.4375 558.943553,93.275 C563.931777,88.375 567.782335,82.6875 570.407716,76.3875 C570.407716,76.3875 570.407716,76.3875 570.495228,76.3 C571.107817,74.8125 571.807919,73.4125 572.245482,71.8375 C574.083249,66.675 575.045888,61.1625 575.045888,55.475 Z" id="Shape"></path>
                        <path d="M637.004873,2.45 L582.57198,109.2 L603.4,109.2 L613.288934,89.425 C613.551472,88.8125 614.164061,88.2 614.864162,88.2 L660.545787,88.2 C661.245888,88.2 661.858477,88.8125 662.121015,89.5125 L671.222335,109.2 L691.787817,109.2 L641.292995,2.45 L637.004873,2.45 L637.004873,2.45 Z M651.88203,68.25 C651.88203,68.5125 651.794518,68.8625 651.619492,69.0375 C651.269442,69.5625 650.744365,69.825 650.131777,69.825 L626.153299,69.825 C625.540711,69.825 625.015635,69.5625 624.665584,69.0375 C624.578071,68.8625 624.490558,68.6875 624.490558,68.5125 C624.490558,68.425 624.403046,68.3375 624.403046,68.1625 C624.403046,67.9 624.490558,67.55 624.578071,67.2875 L637.092386,42.7875 C637.354924,42.175 637.967513,41.825 638.667614,41.825 L638.667614,41.825 C639.367716,41.825 639.980305,42.2625 640.242843,42.7875 L646.718782,56.6125 L651.707005,67.2875 C651.794518,67.6375 651.88203,67.9875 651.88203,68.25 Z" id="Shape" fill="#FFFFFF"></path>
                        <path d="M691.787817,109.2 L641.292995,2.45 L637.004873,2.45 L582.57198,109.2 L603.4,109.2 L613.288934,89.425 C613.551472,88.8125 614.164061,88.2 614.864162,88.2 L660.545787,88.2 C661.245888,88.2 661.858477,88.8125 662.121015,89.5125 L671.222335,109.2 L691.787817,109.2 L691.787817,109.2 Z" id="Shape"></path>
                        <path d="M736.944365,43.575 L736.944365,43.575 C736.331777,43.575 735.719188,43.4875 735.369137,42.875 L713.228426,2.45 L692.750457,2.45 L727.31797,69.65 C727.405482,69.9125 727.31797,70 727.31797,70.2625 L727.31797,109.2875 L746.570761,109.2875 L746.570761,70.2625 C746.570761,70 746.395736,69.9125 746.570761,69.65 L780.963249,2.45 L760.485279,2.45 L738.432081,42.875 C738.169543,43.4875 737.556954,43.575 736.944365,43.575 Z" id="Shape" fill="#FFFFFF"></path>
                        <path d="M780.963249,2.45 L760.485279,2.45 L738.432081,42.875 C738.169543,43.4 737.556954,43.575 736.856853,43.575 L736.856853,43.575 C736.244264,43.575 735.631675,43.4875 735.281624,42.875 L713.228426,2.45 L692.750457,2.45 L727.31797,69.65 C727.405482,69.9125 727.31797,70 727.31797,70.2625 L727.31797,109.2875 L746.570761,109.2875 L746.570761,70.2625 C746.570761,70 746.395736,69.9125 746.570761,69.65 L780.963249,2.45 Z" id="Shape"></path>
                        <path d="M853.773807,59.2375 C848.34802,53.375 840.384365,48.65 830.057868,45.0625 C829.095228,44.7125 828.220102,44.45 827.082437,44.1875 C816.230863,41.475 811.767716,37.7125 811.59269,31.2375 C811.417665,27.9125 812.205279,25.4625 813.955533,23.7125 C817.281015,20.2125 823.319391,19.075 824.982132,19.075 C835.046091,19.075 840.034315,22.3125 847.03533,26.775 L847.210355,26.8625 L849.660711,28.4375 L859.374619,12.6875 L857.186802,11.2875 L857.186802,11.2875 C849.31066,6.125 840.471878,0.4375 824.982132,0.4375 C819.993909,0.4375 808.442234,2.625 800.566091,10.7625 C795.227817,16.45 792.602437,23.8 793.04,31.9375 C793.477563,42 798.028223,49.875 806.429442,55.475 C812.380305,59.5 818.943756,61.25 822.444264,62.125 L822.531777,62.125 L823.231878,62.3 C823.319391,62.3 823.406904,62.3 823.406904,62.3875 L823.844467,62.5625 C836.446294,66.85 843.272284,72.975 843.272284,79.625 C843.272284,84 839.071675,92.575 829.357766,92.575 C824.369543,92.575 811.505178,92.575 799.690964,80.85 L786.389036,93.625 C793.390051,100.625 801.528731,105.7 810.717563,108.5875 C818.41868,110.8625 824.807107,111.2125 829.532792,111.2125 C838.89665,111.2125 847.385381,107.3625 853.598782,100.45 C858.937056,94.5 862,86.975 862,79.7125 C862,72.275 859.112081,65.275 853.773807,59.2375 Z" id="Shape" fill="#FFFFFF"></path>
                        <path d="M853.773807,59.2375 C848.34802,53.375 840.384365,48.65 830.057868,45.0625 C829.095228,44.7125 828.220102,44.45 827.082437,44.1875 C816.230863,41.475 811.767716,37.7125 811.59269,31.2375 C811.417665,27.9125 812.205279,25.4625 813.955533,23.7125 C817.281015,20.2125 823.319391,19.075 824.982132,19.075 C835.046091,19.075 840.034315,22.3125 847.03533,26.775 L847.210355,26.8625 L849.660711,28.4375 L859.374619,12.6875 L857.186802,11.2875 L857.186802,11.2875 C849.31066,6.125 840.471878,0.4375 824.982132,0.4375 C819.993909,0.4375 808.442234,2.625 800.566091,10.7625 C795.227817,16.45 792.602437,23.8 793.04,31.9375 C793.477563,42 798.028223,49.875 806.429442,55.475 C812.380305,59.5 818.943756,61.25 822.444264,62.125 L822.531777,62.125 L823.231878,62.3 C823.319391,62.3 823.406904,62.3 823.406904,62.3875 L823.844467,62.5625 C836.446294,66.85 843.272284,72.975 843.272284,79.625 C843.272284,84 839.071675,92.575 829.357766,92.575 C824.369543,92.575 811.505178,92.575 799.690964,80.85 L786.389036,93.625 C793.390051,100.625 801.528731,105.7 810.717563,108.5875 C818.41868,110.8625 824.807107,111.2125 829.532792,111.2125 C838.89665,111.2125 847.385381,107.3625 853.598782,100.45 C858.937056,94.5 862,86.975 862,79.7125 C862,72.275 859.112081,65.275 853.773807,59.2375 Z" id="Shape"></path>
                    </g>
                </g>
            </g>
        </g>
    </g>
</svg>