<?xml version="1.0" encoding="utf-8"?>
<!-- Generator: Adobe Illustrator 17.0.0, SVG Export Plug-In . SVG Version: 6.00 Build 0)  -->
<!DOCTYPE svg PUBLIC "-//W3C//DTD SVG 1.1//EN" "http://www.w3.org/Graphics/SVG/1.1/DTD/svg11.dtd">
<svg version="1.1" id="Livello_1" xmlns="http://www.w3.org/2000/svg" xmlns:xlink="http://www.w3.org/1999/xlink" x="0px" y="0px"
	 width="985px" height="127.2px" viewBox="0 0 985 127.2" style="enable-background:new 0 0 985 127.2;" xml:space="preserve">
<style type="text/css">
	.st0{fill:none;}
	.st1{fill:#FFFFFF;}
</style>
<g>
	<path class="st0" d="M654.3,82.1c1.9-5.9,2.9-12.2,2.9-18.8l0,0C657.2,69.9,656.2,76.2,654.3,82.1z"/>
	<path class="st0" d="M714,78.9c-0.1-0.2-0.2-0.4-0.2-0.6C713.8,78.5,713.9,78.7,714,78.9c0.4,0.6,1,0.9,1.7,0.9
		C715,79.8,714.4,79.5,714,78.9z"/>
	<path class="st0" d="M728.1,48.9c0.3-0.7,1-1.1,1.8-1.1C729.2,47.8,728.5,48.2,728.1,48.9L713.9,77c-0.2,0.3-0.2,0.6-0.2,1
		c0-0.3,0.1-0.6,0.2-1L728.1,48.9z"/>
	<path class="st0" d="M430.4,72l11.2-20.9c0.2-0.3,0.2-0.6,0.2-0.9c0,0.2-0.1,0.4-0.2,0.7L430.4,72c-0.3,0.6-1,0.8-1.8,0.8
		C429.3,72.8,430,72.6,430.4,72z"/>
	<path class="st0" d="M132.7,51c-0.8,0.3-1.4,1-1.4,1.9C131.2,52.1,131.9,51.4,132.7,51c0.2-0.1,0.7-0.1,0.9-0.1
		c0.3,0,0.5,0.1,0.7,0.2c-0.3-0.1-0.6-0.2-0.8-0.2C133.2,50.9,132.9,50.9,132.7,51z"/>
	<path class="st0" d="M744.9,77c0.1,0.3,0.2,0.6,0.2,1C745.1,77.6,745,77.3,744.9,77l-5.7-12.2L744.9,77z"/>
	<path class="st1" d="M77.2,67.7C71,61,61.9,55.6,50.1,51.5c-1.1-0.4-2.1-0.7-3.4-1C34.3,47.4,29.2,43.1,29,35.7
		c-0.2-3.8,0.7-6.6,2.7-8.6c3.8-4,10.7-5.3,12.6-5.3c11.5,0,17.2,3.7,25.2,8.8l0.2,0.1l2.8,1.8l11.1-18l-2.5-1.6l0,0
		C72.2,7.2,62.2,0.7,44.4,0.7c-5.7,0-18.9,2.5-27.9,11.8C10.4,19,7.4,27.4,7.9,36.7c0.5,11.5,5.7,20.5,15.3,26.9
		c6.8,4.6,14.3,6.6,18.3,7.6h0.1l0.8,0.2c0.1,0,0.2,0,0.2,0.1l0.5,0.2c14.4,4.9,22.2,11.9,22.2,19.5c0,5-4.8,14.8-15.9,14.8
		c-5.7,0-20.4,0-33.9-13.4L0,107.1c8,8,17.3,13.8,27.8,17.1c8.8,2.6,16.1,3,21.5,3c10.7,0,20.4-4.4,27.5-12.3
		c6.1-6.8,9.6-15.4,9.6-23.7C86.6,82.6,83.3,74.5,77.2,67.7z"/>
	<path class="st1" d="M186.9,72.8c-0.2,0.1-0.6,0.2-0.9,0.2c-0.5,0-1-0.1-1.4-0.5L115.5,2.8h-5.2v122h21V52.9c0-0.8,0.7-1.5,1.4-1.9
		c0.2-0.1,0.6-0.1,0.8-0.1c0.3,0,0.6,0.1,0.8,0.2c0.3,0.1,0.5,0.3,0.7,0.5l70.3,73.1h3.9V2.8h-21v68.1
		C188.2,71.7,187.6,72.5,186.9,72.8z"/>
	<path class="st1" d="M298.1,0c-34.9,0-63.3,28.4-63.3,63.3s28.4,63.3,63.3,63.3s63.3-28.4,63.3-63.3S333,0,298.1,0z M298.1,104.7
		c-22.8,0-41.4-18.6-41.4-41.4s18.6-41.4,41.4-41.4s41.4,18.6,41.4,41.4C339.5,86.2,320.9,104.7,298.1,104.7z"/>
	<path class="st1" d="M476.1,71.8L476.1,71.8c-0.8,0-1.5,0-1.8-0.7L442.1,2.8h-23.4l22.9,46.5c0.2,0.3,0.2,0.6,0.2,0.8
		c0,0.3-0.1,0.6-0.2,0.9l-11.2,20.9c-0.3,0.7-1,0.8-1.8,0.8l0,0c-0.8,0-1.4,0-1.8-0.7L393.7,2.8h-23.5l55.8,122h3.6l20.7-45.5
		c0.3-0.7,1-1.5,1.8-1.5l0,0c0.8,0,1.5,0.8,1.8,1.5l20.5,45.5h3.5l55.9-122h-23.5l-32.4,68.3C477.6,71.7,476.9,71.8,476.1,71.8z"/>
	<path class="st1" d="M652.1,39.7L652.1,39.7c-3-7.3-7.2-13.6-13.1-19.5c-5.6-5.6-12.1-9.8-19.4-13c-7.3-3.1-15.3-4.4-23.6-4.4
		h-33.8v122h8.4c0.3,0,0.6,0,0.8,0h24.5c8.4,0,16.4-1.8,23.7-5c0,0,0-0.2,0.1-0.2c7-2.8,13.5-7.2,19.3-13.1
		c5.7-5.6,10.1-12,13.1-19.3c0,0,0,0,0-0.1c0.7-1.7,1.4-3.3,1.9-5.1c1.9-5.9,2.9-12.2,2.9-18.8C657,54.9,655.4,47,652.1,39.7z
		 M596,103.8h-10.4c-1.1,0-2.3-1.4-2.3-2.5V25.5c0-1.1,1.2-1.8,2.3-1.8H596c21.9,0,39.8,18,39.8,39.9
		C635.8,85.7,617.9,103.8,596,103.8z"/>
	<path class="st1" d="M728.1,2.8l-62.2,122h23.8l11.3-22.6c0.3-0.7,1-1.4,1.8-1.4H755c0.8,0,1.5,0.7,1.8,1.5l10.4,22.5h23.5L733,2.8
		H728.1z M745.1,78c0,0.3-0.1,0.6-0.3,0.9c-0.4,0.6-1,0.9-1.7,0.9h-27.4c-0.7,0-1.3-0.3-1.7-0.9c-0.1-0.2-0.2-0.4-0.2-0.6
		c0-0.1-0.1-0.2-0.1-0.4c0-0.3,0.1-0.7,0.2-1l14.2-28.1c0.3-0.7,1-1.1,1.8-1.1l0,0c0.8,0,1.5,0.5,1.8,1.2l7.4,15.9l5.7,12.2
		C745,77.3,745.1,77.6,745.1,78z"/>
	<path class="st1" d="M842.3,49.8C842.2,49.8,842.2,49.8,842.3,49.8c-0.7,0-1.4-0.1-1.8-0.8L815.1,2.8h-23.4l39.5,76.8
		c0.1,0.3,0,0.4,0,0.7v44.5h22V80.2c0-0.3-0.1-0.4,0-0.7l39.3-76.8h-23.4l-25.2,46.2C843.7,49.6,843,49.8,842.3,49.8z"/>
	<path class="st1" d="M975.8,67.7c-6.2-6.7-15.3-12.1-27.1-16.2c-1.1-0.4-2.1-0.7-3.4-1c-12.4-3.1-17.5-7.4-17.7-14.8
		c-0.2-3.8,0.7-6.6,2.7-8.6c3.8-4,10.7-5.3,12.6-5.3c11.5,0,17.2,3.7,25.2,8.8l0.2,0.1l2.8,1.8l11.1-18l-2.5-1.6l0,0
		C970.8,7.2,960.8,0.7,943,0.7c-5.7,0-18.9,2.5-27.9,11.8c-6.1,6.5-9.1,14.9-8.6,24.2c0.5,11.5,5.7,20.5,15.3,26.9
		c6.8,4.6,14.3,6.6,18.3,7.6h0.1l0.8,0.2c0.1,0,0.2,0,0.2,0.1l0.5,0.2c14.4,4.9,22.2,11.9,22.2,19.5c0,5-4.8,14.8-15.9,14.8
		c-5.7,0-20.4,0-33.9-13.4l-15.5,14.5c8,8,17.3,13.8,27.8,17.1c8.8,2.6,16.1,3,21.5,3c10.7,0,20.4-4.4,27.5-12.3
		c6.1-6.8,9.6-15.4,9.6-23.7C985.1,82.6,981.9,74.5,975.8,67.7z"/>
</g>
</svg>
