<?xml version="1.0" encoding="utf-8"?>
<!-- Generator: Adobe Illustrator 17.0.0, SVG Export Plug-In . SVG Version: 6.00 Build 0)  -->
<!DOCTYPE svg PUBLIC "-//W3C//DTD SVG 1.1//EN" "http://www.w3.org/Graphics/SVG/1.1/DTD/svg11.dtd">
<svg version="1.1" id="Layer_1" xmlns="http://www.w3.org/2000/svg"  x="0px" y="0px"
	 width="500px" height="400px" viewBox="0 0 500 400" enable-background="new 0 0 500 400" xml:space="preserve">
<path fill="#FFFFFF" d="M500.008,28.565H300.002V0h200.006V28.565z M94.681,156.003H66.018v68.906c0,7.162-2.002,12.533-6.039,16.18
	c-3.304,3.06-7.568,4.59-12.761,4.59c-5.029,0-9.212-1.53-12.549-4.59c-4.02-3.646-6.039-9.018-6.039-16.18v-68.906H0v72.846
	c0,13.835,3.857,24.609,11.589,32.357c6.706,6.706,15.69,10.059,26.921,10.059c11.491,0,20.964-3.938,28.435-11.816v10.482H94.68
	L94.681,156.003L94.681,156.003z M216.397,197.117c0-13.835-3.857-24.643-11.589-32.325c-6.682-6.706-15.634-10.092-26.881-10.092
	c-11.507,0-20.98,3.972-28.435,11.817v-10.515h-27.768V269.93h28.403v-68.875c0-7.129,2.018-12.532,6.12-16.146
	c3.32-3.061,7.601-4.623,12.826-4.623c5.062,0,9.261,1.563,12.598,4.623c4.069,3.613,6.087,9.017,6.087,16.146v68.875h28.639
	L216.397,197.117L216.397,197.117z M272.567,113.626h-28.646v23.146h28.646V113.626z M272.567,156.003h-28.646v113.928h28.646
	V156.003z M395.334,212.864c0-11.482-0.537-20.174-1.547-26.001c-1.578-9.506-4.932-16.765-10.043-21.876
	c-6.787-6.836-16.032-10.254-27.621-10.254c-11.523,0-20.654,3.809-27.508,11.328v-51.784h-28.613v155.686h27.523v-10.71
	c7.309,8.041,16.765,12.012,28.436,12.012c11.653,0,20.947-3.418,27.768-10.286c5.094-5.111,8.48-12.37,10.059-21.876
	C394.797,233.308,395.334,224.519,395.334,212.864 M366.687,212.864c0,10.092-0.813,17.286-2.393,21.681
	c-2.881,7.423-8.431,11.134-16.635,11.134c-8.203,0-13.77-3.711-16.634-11.134c-1.611-4.395-2.41-11.589-2.41-21.681
	c0-10.018,0.799-17.244,2.41-21.639c2.864-7.292,8.431-10.938,16.634-10.938c8.204,0,13.754,3.646,16.635,10.938
	C365.873,195.62,366.687,202.847,366.687,212.864 M500.008,244.344h-51.174l51.174-66.661v-21.68h-83.954v25.619h47.657
	l-50.49,66.693v21.615h86.787V244.344z M500.008,371.398H300.002v28.582h200.006V371.398z M94.681,156.003H66.018v68.906
	c0,7.162-2.002,12.533-6.039,16.18c-3.304,3.06-7.568,4.59-12.761,4.59c-5.029,0-9.212-1.53-12.549-4.59
	c-4.02-3.646-6.039-9.018-6.039-16.18v-68.906H0v72.846c0,13.835,3.857,24.609,11.589,32.357
	c6.706,6.706,15.69,10.059,26.921,10.059c11.491,0,20.964-3.938,28.435-11.816v10.482H94.68L94.681,156.003L94.681,156.003z
	 M216.397,197.117c0-13.835-3.857-24.643-11.589-32.325c-6.682-6.706-15.634-10.092-26.881-10.092
	c-11.507,0-20.98,3.972-28.435,11.817v-10.515h-27.768V269.93h28.403v-68.875c0-7.129,2.018-12.532,6.12-16.146
	c3.32-3.061,7.601-4.623,12.826-4.623c5.062,0,9.261,1.563,12.598,4.623c4.069,3.613,6.087,9.017,6.087,16.146v68.875h28.639
	L216.397,197.117L216.397,197.117z M272.567,113.626h-28.646v23.146h28.646V113.626z M272.567,156.003h-28.646v113.928h28.646
	V156.003z M395.334,212.864c0-11.482-0.537-20.174-1.547-26.001c-1.578-9.506-4.932-16.765-10.043-21.876
	c-6.787-6.836-16.032-10.254-27.621-10.254c-11.523,0-20.654,3.809-27.508,11.328v-51.784h-28.613v155.686h27.523v-10.71
	c7.309,8.041,16.765,12.012,28.436,12.012c11.653,0,20.947-3.418,27.768-10.286c5.094-5.111,8.48-12.37,10.059-21.876
	C394.797,233.308,395.334,224.519,395.334,212.864 M366.687,212.864c0,10.092-0.813,17.286-2.393,21.681
	c-2.881,7.423-8.431,11.134-16.635,11.134c-8.203,0-13.77-3.711-16.634-11.134c-1.611-4.395-2.41-11.589-2.41-21.681
	c0-10.018,0.799-17.244,2.41-21.639c2.864-7.292,8.431-10.938,16.634-10.938c8.204,0,13.754,3.646,16.635,10.938
	C365.873,195.62,366.687,202.847,366.687,212.864 M500.008,244.344h-51.174l51.174-66.661v-21.68h-83.954v25.619h47.657
	l-50.49,66.693v21.615h86.787V244.344z"/>
</svg>
