<?xml version="1.0" encoding="iso-8859-1"?>
<!-- Generator: Adobe Illustrator 19.0.0, SVG Export Plug-In . SVG Version: 6.00 Build 0)  -->
<svg xmlns="http://www.w3.org/2000/svg" xmlns:xlink="http://www.w3.org/1999/xlink" version="1.1" id="Layer_1" x="0px" y="0px" viewBox="0 0 419.585 419.585" style="enable-background:new 0 0 419.585 419.585;" xml:space="preserve" width="512" height="512">
<g>
	<circle style="fill:#0071CE;" cx="209.805" cy="209.782" r="209.78"/>
	<circle style="fill:#E8E8E8;" cx="209.805" cy="209.782" r="209.78"/>
	<g>
		<path style="fill:#00B3E3;" d="M209.805,0.002c-31.97,0-62.262,7.164-89.379,19.955c94.548-6.881,175.748,30.945,218.085,88.311    l0.002,0.006c6.819-15.469,12.042-32.537,15.255-51.063C316.199,21.748,265.544,0.002,209.805,0.002z"/>
		<path style="fill:#00B3E3;" d="M294.424,170.758C246.716,106.037,149.553,66.156,39.546,87.224    c-15.815,21.932-27.496,47.038-33.905,74.185c87.882-32.288,169.337-2.957,204.164,48.373    c29.157-2.119,59.264-15.648,84.621-39.02L294.424,170.758z"/>
	</g>
	<g>
		<path style="fill:#0071CE;" d="M391.48,314.671c15.985-27.688,24.927-57.504,27.408-87.383    C377.573,312.61,304.216,364.017,233.367,372l-0.007-0.001c9.987,13.639,22.158,26.697,36.596,38.742    C319.45,395.937,363.611,362.941,391.48,314.671z"/>
		<path style="fill:#0071CE;" d="M201.292,302.575c79.904-8.957,163.023-73.162,199.782-178.964    c-11.087-24.662-26.988-47.332-47.294-66.455c-15.979,92.253-82.107,148.13-143.975,152.625    c-12.743,26.311-16.08,59.148-8.518,92.794H201.292z"/>
	</g>
	<g>
		<path style="fill:#0071CE;" d="M28.132,314.671c15.984,27.688,37.336,50.339,61.972,67.428    C36.87,303.657,29.028,214.424,57.54,149.076l0.004-0.006c-16.805,1.83-34.199,5.842-51.85,12.322    C-6.231,211.658,0.263,266.4,28.132,314.671z"/>
		<path style="fill:#FFC843;" d="M57.54,149.079c-28.512,65.347-20.669,154.579,32.563,233.02l0,0    c29.384,20.382,63.446,32.832,98.694,36.409c-73.25-84.734-87.291-188.819-55.098-262.497l0.002-0.003    c-22.885-7.143-48.744-9.92-76.158-6.938L57.54,149.079z"/>
		<path style="fill:#0071CE;" d="M133.7,156.011c-32.193,73.678-18.15,177.763,55.098,262.499c26.9,2.728,54.484,0.293,81.198-7.73    c-71.903-59.965-87.232-145.172-60.191-200.998c-16.413-24.191-43.184-43.5-76.104-53.773L133.7,156.011z"/>
	</g>
</g>















</svg>
