<?xml version="1.0" encoding="utf-8"?>
<!-- Generator: Adobe Illustrator 17.0.0, SVG Export Plug-In . SVG Version: 6.00 Build 0)  -->
<!DOCTYPE svg PUBLIC "-//W3C//DTD SVG 1.1//EN" "http://www.w3.org/Graphics/SVG/1.1/DTD/svg11.dtd">
<svg version="1.1" id="Livello_1" xmlns="http://www.w3.org/2000/svg" xmlns:xlink="http://www.w3.org/1999/xlink" x="0px" y="0px"
	 width="824.3px" height="251.5px" viewBox="0 0 824.3 251.5" style="enable-background:new 0 0 824.3 251.5;" xml:space="preserve"
	>
<style type="text/css">
	.st0{fill:#008EFF;}
</style>
<g>
	<path class="st0" d="M321.1,163.7h47v25h-72.2v-126h25.2V163.7z"/>
	<path class="st0" d="M500.5,125.8c0,36-29.3,65.3-65.3,65.3s-65.3-29.3-65.3-65.3c0-36,29.3-65.3,65.3-65.3S500.5,89.8,500.5,125.8
		z M395.8,125.8c0,21.8,17.6,39.4,39.4,39.4c21.8,0,39.4-17.6,39.4-39.4c0-21.8-17.6-39.4-39.4-39.4
		C413.4,86.3,395.8,104,395.8,125.8z"/>
	<path class="st0" d="M649.5,111.2V124c0,39.6-28.8,67.1-62.6,67.1h-0.2c-36.2-0.4-65-29.3-64.6-65.5c0.4-35.8,29.5-64.6,65.3-64.6
		h0.5c15.3,0.2,29.2,5.6,40.1,14.4L610,93.2c-6.5-4.5-14-6.8-22.1-7h-0.4c-10.6,0-20.7,4.1-28.3,11.7c-7.6,7.4-11.9,17.5-11.9,28.1
		c-0.2,10.6,4,20.9,11.3,28.4c7.6,7.7,17.6,12.1,28.3,12.1c18.4,0,34-13.1,38.7-30.1h-28.4v-25.2H649.5z"/>
	<path class="st0" d="M673,188.8v-126h25.2v126H673z"/>
	<path class="st0" d="M817.7,188.9l-70.9-73.6v73.6h-25.2V62.8h7.9l69.7,70.6V62.8h25.2v126.2H817.7z"/>
</g>
<g>
	<path class="st0" d="M157.9,251.5c-0.2,0-0.3,0-0.5,0c-0.4-0.3-0.7-0.6-1.1-0.9c-5-3.3-9.9-6.6-15-9.7c-3.5-2.2-4.7-5.5-4.5-9.4
		c0.2-4.9,0.4-9.7,0.6-14.6c0.4-8.9,0.8-17.9,1.2-26.8c0.1-2.4,0.2-4.9,0.1-7.3c0-1.9-1.2-3.2-3-3.5c-2.1-0.4-4.2-0.9-6.3-0.9
		c-3,0.1-6,0.6-9,0.9c-4.4,0.4-4.7,2-4.3,5.7c1.6,14.2,3.1,28.4,4.6,42.7c0.4,3.6-0.8,6.7-3.9,8.9c-5.1,3.7-10.3,7.4-15.4,11.1
		c-0.1,0.1-0.3,0.1-0.5,0.2c-0.7-10.2-1.3-20.3-1.9-30.3c-0.5-8-1-16-1.5-23.9c-0.1-1.7-1-2.1-2.5-1.2c-3.9,2.6-7.8,5.1-11.5,7.8
		c-11.3,8-22,16.9-32.6,25.8c-0.5,0.4-1,0.8-1.9,1.5c-0.4-1.7-0.9-3-1.1-4.4c-0.5-4.8-0.9-9.6-1.3-14.3c-0.4-4.3,1-7.7,4.5-10.2
		c9.8-7.1,19.7-14.3,29.5-21.4c3.2-2.3,6.4-4.6,9.5-6.9c1.3-0.9,1.9-2.2,1.4-3.7c-1.6-5.8-4.5-10.6-9.6-14c-2.9-1.9-4.5-1.7-6.9,0.7
		c-3.1,3.1-6.2,6.2-9.3,9.4c-6.3,6.3-12.6,12.6-18.8,18.9c-4.6,4.6-9.9,5.9-16,3.8c-2.5-0.9-5.1-1.7-7.6-2.5
		c-2.3-0.7-4.6-1.4-7.1-2.2c0.4-0.3,0.6-0.6,0.9-0.8c13.2-11.9,26.4-23.8,39.5-35.6c1.2-1,1-2.1-0.5-2.6c-2.9-1-5.8-1.9-8.8-2.8
		c-14.9-4.5-30-7.9-45.3-10.9c-0.9-0.2-1.7-0.3-2.1-1.2c0-0.2,0-0.3,0-0.5c0.3-0.3,0.7-0.6,1-0.9c4.8-4.4,9.6-8.7,14.4-13.1
		c1.3-1.1,2.8-1.6,4.4-1.6c1.4,0,2.8,0.1,4.1,0.5c10.4,2.8,20.7,5.6,31.1,8.5c5,1.4,10,2.9,15.1,4.3c2.3,0.6,3.1,0.3,4.4-1.7
		c0.7-1.1,1.4-2.3,2-3.5c2.4-4.6,3-9.5,2-14.6c-0.2-1.4-1.1-2.1-2.4-2.4c-0.6-0.1-1.2-0.2-1.8-0.3c-5.2-0.6-10.3-1.2-15.5-1.8
		c-8.8-1.1-17.6-2.2-26.4-3.2c-4.7-0.5-8-2.8-9.8-7.3c-1.4-3.6-2.8-7.2-4.3-10.8c-0.8-2.1-1.7-4.2-2.6-6.5
		C34.6,75.4,53,79.4,72,80.6c-6.4-19.1-15.7-36.8-24.7-54.8c0.9,0.1,1.6,0.1,2.2,0.2c4.4,0.5,8.8,1.1,13.2,1.3
		c6.5,0.3,11,3.2,13.5,9.3c4.6,11.2,9.3,22.4,14,33.6c1.1,2.7,2.2,5.5,3.4,8.2c1,2.3,2.4,3.1,4.8,2.8c1.3-0.2,2.5-0.3,3.8-0.6
		c4.3-0.9,8.1-2.6,11.2-5.8c1.8-1.9,2-3.4,0.7-5.6c-0.2-0.3-0.4-0.7-0.6-1c-3.9-6.1-8-12.2-11.8-18.3c-3.8-6.1-7.5-12.3-11.2-18.4
		c-1.9-3.2-2.1-6.5-0.2-9.8c3.1-5.5,6.1-11,9.2-16.4c0.1-0.2,0.3-0.3,0.5-0.6c9,17,17.8,33.9,28.7,49.8c0.3-0.5,0.6-0.8,0.8-1.2
		c4.7-8.3,9.6-16.5,13.9-25c4.7-9.2,8.9-18.8,13.3-28.2c0.1,0,0.2,0,0.2,0c0.2,0.5,0.4,0.9,0.7,1.4c3.2,5.5,6.5,11,9.7,16.5
		c0.6,1,1.1,2.2,1.3,3.3c0.4,2.5-0.5,4.8-1.7,7c-5.3,9.9-10.7,19.7-16.1,29.6c-2.3,4.1-4.6,8.2-6.8,12.4c-1.1,2.1-1,2.9,0.7,4.6
		c1.4,1.3,2.9,2.6,4.5,3.8c3.3,2.5,7.2,3.6,11.3,3.7c1.8,0,3-0.7,3.6-2.4c0.2-0.5,0.4-0.9,0.5-1.3c4.4-12.8,8.9-25.6,13.2-38.4
		c1-2.9,2.8-5.2,5.1-7.1c0.6-0.5,1.4-0.9,2.1-1c4.9-1,9.9-2,14.8-2.9c2.1-0.4,4.1-0.7,6.4-1.1c-8,17.4-15.5,34.8-21.3,53
		c0.7-0.1,1.3-0.1,1.8-0.1c12-1.5,23.8-3.7,35.6-6.6c6.6-1.6,13.2-3.3,19.7-5c0.4-0.1,1,0.1,1.3,0.3c0.2,0.1,0.3,0.7,0.1,1
		c-2.3,6.1-4.6,12.2-7,18.2c-0.7,1.7-1.9,3.1-3.5,3.8c-1.9,0.8-3.8,1.4-5.8,1.8c-12.1,2.4-24.3,4.6-36.5,6.9c-2.9,0.6-5.9,1-8.8,1.6
		c-1.9,0.4-3,1.6-3.3,3.6c-1.1,6,0.2,11.5,3.5,16.6c1.6,2.5,2.6,2.9,5.4,1.8c13-4.6,26-9.2,39.1-13.7c1.8-0.6,3.9-0.9,5.9-0.9
		c3.7,0,6.6,2.1,9.2,4.6c3.9,3.6,7.8,7.2,11.7,10.8c0,0.1,0,0.2,0,0.2c-1.4,0.3-2.7,0.6-4.1,1c-14.4,3.7-28.7,7.5-42.8,12.5
		c-2.5,0.9-5,1.9-7.6,2.8c14.5,14.4,30.4,26.7,46.9,38.8c-6.1,1.9-12,3.8-17.8,5.6c-1.7,0.5-3.6,1-5.4,0.9c-3.2-0.1-5.7-1.9-8-3.9
		c-9.3-8.1-18.7-16.2-28-24.3c-2.3-2-4.5-4-6.9-6c-1.1-1-2.4-1.5-3.8-0.6c-5,3-9.2,6.8-11.3,12.4c-1.3,3.4-0.7,4.9,2.3,6.9
		c11.6,7.3,23.1,14.6,34.7,21.8c4.7,2.9,6.8,7.1,6.3,12.5c-0.4,5.3-1,10.6-1.5,15.9c0,0.4-0.1,0.7-0.2,1.2
		c-15.1-11.3-30-22.6-46.4-32c-1.4,9.5-1.8,18.8-1.9,28.1c-0.1,7.4,0,14.8,0.1,22.2C157.9,245,157.9,248.3,157.9,251.5z
		 M110.9,160.2c11.2-4.9,22.2-4,33.2,0.8c3-12,10.8-19.8,21.2-25.5c-7.4-9.7-8.5-20.7-6.8-32.3c-5.6-0.5-10.9-1.8-15.9-4.3
		c-5-2.5-9.1-6.1-12.8-10.5c-1.2,0.9-2.4,1.7-3.4,2.7c-3.9,3.9-8.4,6.6-13.7,8.1c-3.2,0.9-6.5,1.4-9.7,2c-2.6,0.5-3.2,1-3.2,3.7
		c0,0.5,0,1,0,1.6c0.5,8.2-1.5,15.7-6,22.7c-0.9,1.4-1.6,3.1-2.4,4.7C102,139.6,108,148.8,110.9,160.2z"/>
</g>
</svg>
