<?xml version="1.0" encoding="utf-8"?>
<!-- Generator: Adobe Illustrator 17.0.0, SVG Export Plug-In . SVG Version: 6.00 Build 0)  -->
<!DOCTYPE svg PUBLIC "-//W3C//DTD SVG 1.1//EN" "http://www.w3.org/Graphics/SVG/1.1/DTD/svg11.dtd">
<svg version="1.1" id="Livello_1" xmlns="http://www.w3.org/2000/svg" xmlns:xlink="http://www.w3.org/1999/xlink" x="0px" y="0px"
	 width="867.055px" height="226.625px" viewBox="0 0 867.055 226.625" enable-background="new 0 0 867.055 226.625"
	 xml:space="preserve">
<g>
	<g>
		<path fill="#72BE44" d="M20,220.312c-11.046,0-20-8.954-20-20v-174c0-11.046,8.954-20,20-20c11.046,0,20,8.954,20,20v174
			C40,211.358,31.046,220.312,20,220.312z"/>
	</g>
	<g>
		<path fill="#EC125F" d="M123,220.312H20c-11.046,0-20-8.954-20-20s8.954-20,20-20h103c11.046,0,20,8.954,20,20
			S134.046,220.312,123,220.312z"/>
	</g>
</g>
<g>
	<g>
		<path fill="#EC125F" d="M163,133.312c-11.046,0-20-8.954-20-20C143,50.832,193.832,0,256.312,0c11.046,0,20,8.954,20,20
			s-8.954,20-20,20C215.888,40,183,72.888,183,113.312C183,124.358,174.046,133.312,163,133.312z"/>
	</g>
	<g>
		<path fill="#2483C5" d="M256.312,226.625c-62.48,0-113.312-50.832-113.312-113.312c0-11.046,8.954-20,20-20s20,8.954,20,20
			c0,40.425,32.888,73.312,73.312,73.312c11.046,0,20,8.954,20,20S267.358,226.625,256.312,226.625z"/>
	</g>
	<g>
		<path fill="#F9A51A" d="M256.312,226.625c-11.046,0-20-8.954-20-20s8.954-20,20-20c40.426,0,73.314-32.888,73.314-73.312
			c0-11.046,8.954-20,20-20s20,8.954,20,20C369.627,175.793,318.794,226.625,256.312,226.625z"/>
	</g>
	<g>
		<path fill="#72BE44" d="M349.627,133.312c-11.046,0-20-8.954-20-20c0-40.425-32.889-73.312-73.314-73.312
			c-11.046,0-20-8.954-20-20s8.954-20,20-20c62.481,0,113.314,50.832,113.314,113.312
			C369.627,124.358,360.673,133.312,349.627,133.312z"/>
	</g>
</g>
<g>
	<g>
		<path fill="#2483C5" d="M410.05,133.313c-11.046,0-20-8.954-20-20c0-60.858,49.513-110.371,110.371-110.371
			c11.046,0,20,8.954,20,20s-8.954,20-20,20c-38.803,0-70.371,31.568-70.371,70.371C430.05,124.359,421.096,133.313,410.05,133.313z
			"/>
	</g>
	<g>
		<path fill="#F9A51A" d="M500.421,223.683c-60.858,0-110.371-49.512-110.371-110.37c0-11.046,8.954-20,20-20s20,8.954,20,20
			c0,38.802,31.568,70.37,70.371,70.37c11.046,0,20,8.954,20,20S511.467,223.683,500.421,223.683z"/>
	</g>
	<g>
		<path fill="#EC125F" d="M500.421,223.683c-11.046,0-20-8.954-20-20s8.954-20,20-20c17.957,0,35.052-6.762,48.137-19.04
			c8.056-7.561,20.712-7.155,28.269,0.898c7.559,8.055,7.156,20.712-0.898,28.27C555.401,213.075,528.585,223.683,500.421,223.683z"
			/>
	</g>
	<g>
		<path fill="#72BE44" d="M563.076,68.189c-4.99,0-9.986-1.855-13.866-5.589c-13.173-12.677-30.5-19.658-48.788-19.658
			c-11.046,0-20-8.954-20-20s8.954-20,20-20c28.684,0,55.86,10.951,76.524,30.836c7.959,7.659,8.202,20.32,0.543,28.279
			C573.563,66.136,568.323,68.189,563.076,68.189z"/>
	</g>
	<g>
		<path fill="#8D53A0" d="M562.244,199.227c-11.046,0-20-8.954-20-20V115.1c0-11.046,8.954-20,20-20s20,8.954,20,20v64.127
			C582.244,190.273,573.289,199.227,562.244,199.227z"/>
	</g>
	<g>
		<path fill="#F26F21" d="M562.244,135.1h-65.221c-11.046,0-20-8.954-20-20s8.954-20,20-20h65.221c11.046,0,20,8.954,20,20
			S573.289,135.1,562.244,135.1z"/>
	</g>
</g>
<g>
	<g>
		<path fill="#EC125F" d="M631.318,220.312c-11.046,0-20-8.954-20-20v-174c0-11.046,8.954-20,20-20s20,8.954,20,20v174
			C651.318,211.358,642.364,220.312,631.318,220.312z"/>
	</g>
</g>
<g>
	<g>
		<path fill="#F9A51A" d="M847.065,220.313c-5.672,0-11.306-2.398-15.262-7.062l-147.596-174
			c-7.146-8.424-6.109-21.044,2.314-28.189c8.424-7.146,21.044-6.109,28.19,2.314l147.596,174
			c7.146,8.424,6.109,21.044-2.315,28.189C856.232,218.753,851.636,220.313,847.065,220.313z"/>
	</g>
	<g>
		<path fill="#72BE44" d="M847.055,220.313c-11.046,0-20-8.954-20-20v-174c0-11.046,8.954-20,20-20s20,8.954,20,20v174
			C867.055,211.359,858.101,220.313,847.055,220.313z"/>
	</g>
	<g>
		<path fill="#EC125F" d="M699.459,220.313c-11.046,0-20-8.954-20-20v-174c0-11.046,8.954-20,20-20s20,8.954,20,20v174
			C719.459,211.359,710.505,220.313,699.459,220.313z"/>
	</g>
</g>
</svg>
