<?xml version="1.0" encoding="utf-8"?>
<!-- Generator: Adobe Illustrator 17.0.0, SVG Export Plug-In . SVG Version: 6.00 Build 0)  -->
<!DOCTYPE svg PUBLIC "-//W3C//DTD SVG 1.1//EN" "http://www.w3.org/Graphics/SVG/1.1/DTD/svg11.dtd">
<svg version="1.1" id="Livello_1" xmlns="http://www.w3.org/2000/svg" xmlns:xlink="http://www.w3.org/1999/xlink" x="0px" y="0px"
	 width="504.136px" height="226.369px" viewBox="0 0 504.136 226.369" enable-background="new 0 0 504.136 226.369"
	 xml:space="preserve">
<g>
	<g>
		<path fill="#4AA3DF" d="M69.333,63.363l7.744,6.928c14.125-1.926,26.956-0.102,36.138,6.34c4.422,9.156,8.314,20.07,11.434,29.706
			c0.564-0.168,1.17-0.295,1.867-0.354c-1.565-13.326-4.811-26.502-9.721-39.164c1.354-5.17,3.414-10.324,6.223-15.285
			c5.062-8.973,12.545-17.305,22.055-24.148l2.135-10.662c-9.475,5.273-17.506,11.881-23.711,19.238
			c-5.144,6.113-9.029,12.721-11.61,19.447C110.775,53.122,97.609,26.494,68.889,0L58.747,5.734
			c27.957,21.801,48.287,58.527,48.287,58.527S86.872,56.619,69.333,63.363"/>
		<path fill="#4AA3DF" d="M141.096,38.205l-2.119,10.175c8.719,11.266,13.562,23.299,12.57,34.465
			c-5.719,8.408-13.219,17.235-20.012,24.761c0.428,0.404,0.84,0.858,1.244,1.438c10.756-8.021,20.541-17.42,29.059-27.998
			c5.154-1.422,10.645-2.211,16.346-2.262c10.309-0.101,21.254,2.22,31.941,7.028l10.301-3.479
			c-9.309-5.575-19.037-9.225-28.512-10.914c-7.871-1.404-15.539-1.463-22.652-0.328c1.422-2.111,17.9-26.83,26.486-64.952
			l-10.039-5.911c-4.902,35.112-26.537,71.081-26.537,71.081S155.699,50.027,141.096,38.205"/>
		<path fill="#4AA3DF" d="M199.111,87.83l-9.871,3.246c-5.391,13.184-13.387,23.392-23.551,28.125
			c-10.15-0.758-21.543-2.834-31.455-4.953c-0.135,0.572-0.32,1.16-0.623,1.8c12.326,5.305,25.359,9.081,38.779,11.166
			c3.809,3.759,7.23,8.105,10.123,13.024c5.246,8.869,8.711,19.523,9.887,31.168l8.164,7.189
			c0.178-10.848-1.537-21.105-4.801-30.152c-2.713-7.516-6.508-14.184-11.047-19.783c2.539,0.185,32.193,2.084,69.5-9.535
			l0.092-11.653c-32.85,13.317-74.822,12.562-74.822,12.562S196.184,106.387,199.111,87.83"/>
		<path fill="#4AA3DF" d="M185.152,162.99l-7.742-6.92c-14.117,1.926-26.957,0.1-36.139-6.341
			c-4.422-9.165-8.316-20.069-11.443-29.704c-0.562,0.158-1.16,0.293-1.857,0.353c1.562,13.327,4.809,26.502,9.719,39.165
			c-1.354,5.171-3.414,10.316-6.221,15.277c-5.062,8.979-12.555,17.312-22.055,24.146l-2.136,10.67
			c9.483-5.271,17.505-11.879,23.71-19.236c5.146-6.105,9.021-12.73,11.605-19.457c1.115,2.287,14.291,28.926,43.006,55.426
			l10.139-5.75c-27.965-21.793-48.295-58.521-48.295-58.521S167.623,169.732,185.152,162.99"/>
		<path fill="#4AA3DF" d="M113.215,188.213l2.117-10.164c-8.719-11.268-13.561-23.299-12.569-34.465
			c5.718-8.408,13.218-17.244,20.003-24.763c-0.43-0.403-0.832-0.864-1.236-1.437c-10.762,8.021-20.549,17.422-29.058,27.998
			c-5.162,1.412-10.646,2.211-16.345,2.254c-10.309,0.109-21.266-2.221-31.942-7.021l-10.3,3.482
			c9.299,5.574,19.036,9.223,28.512,10.912c7.861,1.404,15.529,1.455,22.651,0.328c-1.431,2.103-17.901,26.83-26.485,64.953
			l10.039,5.91c4.893-35.121,26.527-71.091,26.527-71.091S98.609,176.4,113.215,188.213"/>
		<path fill="#4AA3DF" d="M55.207,138.615l9.863-3.246c5.39-13.185,13.386-23.392,23.551-28.125
			c10.148,0.758,21.541,2.834,31.453,4.953c0.135-0.572,0.328-1.16,0.623-1.791c-12.326-5.314-25.358-9.09-38.768-11.166
			c-3.811-3.768-7.24-8.113-10.133-13.032c-5.247-8.871-8.711-19.517-9.88-31.169l-8.173-7.182
			c-0.176,10.838,1.539,21.096,4.802,30.145c2.716,7.516,6.509,14.183,11.048,19.792c-2.539-0.185-32.195-2.095-69.501,9.526
			L0,118.973c32.859-13.318,74.832-12.561,74.832-12.561S58.125,120.058,55.207,138.615"/>
	</g>
</g>
<rect x="279.265" y="67.185" fill="#4AA3DF" width="2" height="93"/>
<g enable-background="new    ">
	<path fill="#4AA3DF" d="M314.995,91.119v40.76h13.966v6.736h-21.134V91.119H314.995z"/>
	<path fill="#4AA3DF" d="M331.452,114.652c0-6.686,2.45-12.428,7.353-17.227c4.88-4.799,10.746-7.199,17.596-7.199
		c6.768,0,12.57,2.421,17.411,7.26c4.86,4.841,7.29,10.654,7.29,17.442c0,6.829-2.44,12.623-7.321,17.38
		c-4.901,4.779-10.817,7.168-17.749,7.168c-6.133,0-11.639-2.123-16.52-6.367C334.138,128.413,331.452,122.261,331.452,114.652z
		 M338.681,114.744c0,5.25,1.764,9.566,5.291,12.951c3.507,3.383,7.557,5.075,12.15,5.075c4.983,0,9.188-1.723,12.612-5.168
		c3.425-3.486,5.138-7.731,5.138-12.735c0-5.065-1.692-9.311-5.076-12.735c-3.363-3.445-7.526-5.168-12.489-5.168
		c-4.942,0-9.116,1.723-12.52,5.168C340.383,105.536,338.681,109.74,338.681,114.744z"/>
	<path fill="#4AA3DF" d="M414.54,113.883h19.626v1.568c0,3.568-0.421,6.728-1.262,9.475c-0.82,2.544-2.204,4.922-4.152,7.137
		c-4.41,4.964-10.019,7.445-16.827,7.445c-6.645,0-12.335-2.4-17.072-7.199c-4.737-4.818-7.106-10.602-7.106-17.35
		c0-6.891,2.41-12.734,7.229-17.533c4.818-4.819,10.685-7.229,17.596-7.229c3.711,0,7.178,0.759,10.397,2.276
		c3.076,1.518,6.101,3.979,9.074,7.383l-5.106,4.891c-3.896-5.188-8.644-7.782-14.242-7.782c-5.025,0-9.239,1.733-12.644,5.198
		c-3.404,3.405-5.106,7.671-5.106,12.797c0,5.291,1.896,9.649,5.691,13.074c3.548,3.179,7.393,4.768,11.535,4.768
		c3.527,0,6.695-1.188,9.506-3.568c2.81-2.398,4.378-5.27,4.706-8.613H414.54V113.883z"/>
	<path fill="#4AA3DF" d="M450.346,91.119v47.496h-7.168V91.119H450.346z"/>
	<path fill="#4AA3DF" d="M461.758,138.615V87.889l34.638,36.238V91.119h7.168v50.388l-34.638-36.146v33.254H461.758z"/>
</g>
</svg>
