<?xml version="1.0" encoding="utf-8"?>
<!-- Generator: Adobe Illustrator 17.0.0, SVG Export Plug-In . SVG Version: 6.00 Build 0)  -->
<!DOCTYPE svg PUBLIC "-//W3C//DTD SVG 1.1//EN" "http://www.w3.org/Graphics/SVG/1.1/DTD/svg11.dtd">
<svg version="1.1" id="Livello_1" xmlns="http://www.w3.org/2000/svg"  x="0px" y="0px"
	 width="1192.8px" height="161px" viewBox="0 0 1192.8 161" style="enable-background:new 0 0 1192.8 161;" xml:space="preserve">
<style type="text/css">
	.st0{fill:#008EFF;}
	.st1{fill:none;}
</style>
<g>
	<path class="st0" d="M74,44.6c-2.7-0.8-7.5-1.8-12.8-1.8c-4.3,0-8.2,0.7-11.7,2c-0.3,0.1-0.6,0.4-0.6,0.8c-0.1,0.3,0.1,0.7,0.3,0.9
		l5.4,4.8c0.2,0.2,0.5,0.3,0.8,0.2c2.4-0.3,4.8-0.5,7.1-0.5c7,0,12.8,1.5,17.2,4.6c2.5,5.3,5.1,11.9,7.8,20.4c0.1,0.4,0.5,0.7,1,0.7
		c0.1,0,0.2,0,0.3,0c0.4-0.1,0.7-0.2,1.1-0.2c0.3,0,0.5-0.2,0.7-0.4c0.2-0.2,0.2-0.5,0.2-0.7C89.7,66,87.4,56.8,84,48.1
		c0.9-3.5,2.3-6.9,4.2-10.1c3.5-6.2,8.7-12,15.1-16.5c0.2-0.1,0.3-0.4,0.4-0.6l1.5-7.4c0.1-0.4-0.1-0.8-0.4-1
		c-0.3-0.2-0.7-0.3-1.1-0.1c-6.6,3.7-12.3,8.3-16.8,13.7c-3.1,3.7-5.6,7.7-7.4,11.8c-3-5.6-12.3-21.4-29.2-37
		c-0.3-0.3-0.8-0.3-1.2-0.1l-7.1,4c-0.3,0.2-0.5,0.5-0.5,0.8c0,0.3,0.1,0.7,0.4,0.9C57.7,18.6,70.1,38.1,74,44.6z"/>
	<path class="st0" d="M100.6,27.4c-0.3-0.2-0.6-0.3-1-0.2C99.3,27.3,99,27.6,99,28l-1.5,7.1c-0.1,0.3,0,0.6,0.2,0.8
		c6.2,8,9.1,15.9,8.6,23.1c-3.3,4.8-7.8,10.4-13.7,17c-0.4,0.4-0.3,1,0.1,1.4c0.3,0.3,0.5,0.5,0.7,0.8c0.2,0.2,0.4,0.4,0.7,0.4
		c0.1,0,0.1,0,0.2,0c0.2,0,0.4-0.1,0.6-0.2c7.5-5.6,14.3-12.2,20.3-19.5c3.5-0.9,7.1-1.4,10.8-1.5l0.4,0c7,0,14.4,1.7,21.4,4.8
		c0.2,0.1,0.5,0.1,0.7,0l7.2-2.4c0.4-0.1,0.6-0.5,0.7-0.8c0-0.4-0.1-0.8-0.5-1c-6.5-3.9-13.3-6.5-20.2-7.7c-4.7-0.8-9.4-1-14-0.5
		C125,44.4,134,28.4,139.1,6c0.1-0.4-0.1-0.9-0.5-1.1l-7-4.1c-0.3-0.2-0.6-0.2-0.9,0s-0.5,0.4-0.6,0.8c-2.8,19.8-13.4,40.3-17.1,47
		C111.8,43.8,108.5,33.8,100.6,27.4z"/>
	<path class="st0" d="M179.5,75.7c-0.3-0.2-0.6-0.2-0.9-0.1c-18.7,7.6-41.6,8.6-49.2,8.7c3.5-3.4,10.5-11.3,12.1-21.3
		c0.1-0.3-0.1-0.7-0.3-0.9c-0.3-0.2-0.6-0.3-1-0.2l-6.9,2.3c-0.3,0.1-0.5,0.3-0.6,0.6c-3.8,9.3-9.2,15.9-15.7,19
		c-5.9-0.5-12.9-1.6-21.6-3.4c-0.5-0.1-1.1,0.2-1.2,0.7c-0.1,0.4-0.2,0.7-0.4,1.1c-0.1,0.2-0.1,0.5,0,0.8c0.1,0.3,0.3,0.5,0.5,0.6
		c8.6,3.7,17.7,6.3,27,7.8c2.6,2.6,4.8,5.5,6.7,8.7c3.6,6.1,6,13.5,6.8,21.3c0,0.3,0.1,0.5,0.3,0.7l5.7,5c0.2,0.2,0.4,0.2,0.7,0.2
		c0.1,0,0.3,0,0.4-0.1c0.4-0.2,0.6-0.5,0.6-0.9c0.1-7.6-1-14.8-3.4-21.4c-1.6-4.5-3.8-8.7-6.5-12.4c0.9,0,1.9,0.1,3.2,0.1
		c8,0,24.3-0.9,43.5-6.9c0.4-0.1,0.7-0.5,0.7-0.9l0.1-8.1C180,76.2,179.8,75.9,179.5,75.7z"/>
	<path class="st0" d="M106.6,116.3c2.7,0.8,7.5,1.8,12.8,1.8c4.3,0,8.2-0.7,11.7-2c0.3-0.1,0.6-0.4,0.6-0.8c0.1-0.3-0.1-0.7-0.3-0.9
		l-5.4-4.8c-0.2-0.2-0.5-0.3-0.8-0.2c-2.4,0.3-4.8,0.5-7,0.5c-7,0-12.8-1.5-17.2-4.6c-2.5-5.3-5.1-11.9-7.8-20.4
		c-0.2-0.5-0.7-0.8-1.2-0.7c-0.3,0.1-0.7,0.2-1.1,0.2c-0.3,0-0.5,0.2-0.7,0.4s-0.2,0.5-0.2,0.7c1.1,9.3,3.4,18.5,6.7,27.3
		c-0.9,3.5-2.3,6.9-4.2,10.1c-3.5,6.2-8.7,11.9-15.1,16.5c-0.2,0.1-0.3,0.4-0.4,0.6l-1.5,7.4c-0.1,0.4,0.1,0.8,0.4,1
		c0.3,0.2,0.7,0.3,1.1,0.1c6.6-3.7,12.3-8.3,16.8-13.7c3.1-3.7,5.6-7.6,7.4-11.8c3,5.6,12.3,21.4,29.2,37c0.2,0.2,0.4,0.3,0.7,0.3
		c0.2,0,0.3,0,0.5-0.1l7.1-4c0.3-0.2,0.5-0.5,0.5-0.8c0-0.3-0.1-0.7-0.4-0.9C122.9,142.3,110.5,122.9,106.6,116.3z"/>
	<path class="st0" d="M79.9,133.6c0.3,0.2,0.6,0.3,1,0.2c0.3-0.1,0.6-0.4,0.6-0.7l1.5-7.1c0.1-0.3,0-0.6-0.2-0.8
		c-6.2-8-9.1-16-8.6-23.1c3.3-4.9,7.8-10.4,13.7-17c0.4-0.4,0.3-1-0.1-1.4c-0.3-0.2-0.5-0.5-0.7-0.8c-0.2-0.2-0.4-0.4-0.7-0.4
		c-0.3,0-0.5,0-0.8,0.2c-7.5,5.6-14.3,12.2-20.3,19.5c-3.5,0.9-7.2,1.4-10.8,1.5l-0.5,0c-7,0-14.4-1.7-21.4-4.8
		c-0.2-0.1-0.5-0.1-0.7,0l-7.2,2.4c-0.4,0.1-0.6,0.5-0.7,0.8c0,0.4,0.1,0.8,0.5,1c6.5,3.9,13.3,6.5,20.2,7.7c4.7,0.8,9.4,1,14,0.5
		c-3.4,5.4-12.3,21.2-17.4,43.8c-0.1,0.4,0.1,0.9,0.5,1.1l7,4.1c0.2,0.1,0.3,0.1,0.5,0.1c0.1,0,0.3,0,0.4-0.1
		c0.3-0.1,0.5-0.4,0.6-0.8c2.8-19.8,13.4-40.3,17.1-47C68.6,117.2,72,127.2,79.9,133.6z"/>
	<path class="st0" d="M39,98.1c-0.1,0.3,0.1,0.7,0.3,0.9c0.2,0.2,0.4,0.2,0.6,0.2c0.1,0,0.2,0,0.3,0l6.9-2.3
		c0.3-0.1,0.5-0.3,0.6-0.6c3.8-9.3,9.2-15.9,15.7-19c5.9,0.5,12.9,1.6,21.5,3.4c0.5,0.1,1.1-0.2,1.2-0.7c0.1-0.4,0.2-0.7,0.4-1.1
		c0.1-0.2,0.1-0.5,0-0.8c-0.1-0.3-0.3-0.5-0.5-0.6c-8.6-3.7-17.7-6.3-27-7.8c-2.6-2.6-4.8-5.5-6.7-8.7c-3.6-6.2-6-13.5-6.8-21.3
		c0-0.3-0.1-0.5-0.3-0.7l-5.7-5c-0.3-0.3-0.7-0.3-1.1-0.2c-0.4,0.2-0.6,0.5-0.6,0.9c-0.1,7.5,1.1,14.9,3.4,21.4
		c1.6,4.5,3.8,8.7,6.5,12.4c-0.9,0-1.9-0.1-3.2-0.1c-8,0-24.3,0.9-43.5,6.9c-0.4,0.1-0.7,0.5-0.7,0.9l-0.1,8.1
		c0,0.3,0.2,0.6,0.4,0.8c0.3,0.2,0.6,0.2,0.9,0.1c18.7-7.6,41.7-8.6,49.2-8.7C47.6,80.1,40.6,88,39,98.1z"/>
</g>
<g>
	<path class="st1" d="M862,95.3c1.9-5.9,2.9-12.2,2.9-18.8c0,0,0,0,0,0C864.9,83.1,863.9,89.4,862,95.3z"/>
	<path class="st1" d="M921.7,92.1c-0.1-0.2-0.2-0.4-0.2-0.6C921.5,91.7,921.6,91.9,921.7,92.1c0.4,0.6,1,0.9,1.7,0.9
		C922.7,93,922.1,92.7,921.7,92.1z"/>
	<path class="st1" d="M935.8,62.1c0.3-0.7,1-1.1,1.8-1.1C936.9,61,936.2,61.4,935.8,62.1l-14.2,28.1c-0.2,0.3-0.2,0.6-0.2,1
		c0-0.3,0.1-0.6,0.2-1L935.8,62.1z"/>
	<path class="st1" d="M638.1,85.2l11.2-20.9c0.2-0.3,0.2-0.6,0.2-0.9c0,0.2-0.1,0.4-0.2,0.7L638.1,85.2c-0.3,0.6-1,0.8-1.8,0.8
		C637,86,637.7,85.8,638.1,85.2z"/>
	<path class="st1" d="M340.4,64.2c-0.8,0.3-1.4,1-1.4,1.9C338.9,65.3,339.6,64.6,340.4,64.2c0.2-0.1,0.7-0.1,0.9-0.1
		c0.3,0,0.5,0.1,0.7,0.2c-0.3-0.1-0.6-0.2-0.8-0.2C340.9,64.1,340.6,64.1,340.4,64.2z"/>
	<path class="st1" d="M952.6,90.2c0.1,0.3,0.2,0.6,0.2,1C952.8,90.8,952.7,90.5,952.6,90.2L946.9,78L952.6,90.2z"/>
	<path class="st0" d="M257.8,64.7c-1.1-0.4-2.1-0.7-3.4-1c-12.4-3.1-17.5-7.4-17.7-14.8c-0.2-3.8,0.7-6.6,2.7-8.6
		c3.8-4,10.7-5.3,12.6-5.3c11.5,0,17.2,3.7,25.2,8.8l0.2,0.1l2.8,1.8l11.1-18l-2.5-1.6l0,0c-8.9-5.7-18.9-12.2-36.7-12.2
		c-5.7,0-18.9,2.5-27.9,11.8c-6.1,6.5-9.1,14.9-8.6,24.2c0.5,11.5,5.7,20.5,15.3,26.9c6.8,4.6,14.3,6.6,18.3,7.6l0.1,0l0.8,0.2
		c0.1,0,0.2,0,0.2,0.1l0.5,0.2c14.4,4.9,22.2,11.9,22.2,19.5c0,5-4.8,14.8-15.9,14.8c-5.7,0-20.4,0-33.9-13.4l-15.5,14.5
		c8,8,17.3,13.8,27.8,17.1c8.8,2.6,16.1,3,21.5,3c10.7,0,20.4-4.4,27.5-12.3c6.1-6.8,9.6-15.4,9.6-23.7c0-8.4-3.2-16.5-9.4-23.3
		C278.7,74.2,269.6,68.8,257.8,64.7z"/>
	<path class="st1" d="M284.9,80.9c-6.2-6.7-15.3-12.1-27.1-16.2c-1.1-0.4-2.1-0.7-3.4-1c-12.4-3.1-17.5-7.4-17.7-14.8
		c-0.2-3.8,0.7-6.6,2.7-8.6c3.8-4,10.7-5.3,12.6-5.3c11.5,0,17.2,3.7,25.2,8.8l0.2,0.1l2.8,1.8l11.1-18l-2.5-1.6l0,0
		c-8.9-5.7-18.9-12.2-36.7-12.2c-5.7,0-18.9,2.5-27.9,11.8c-6.1,6.5-9.1,14.9-8.6,24.2c0.5,11.5,5.7,20.5,15.3,26.9
		c6.8,4.6,14.3,6.6,18.3,7.6l0.1,0l0.8,0.2c0.1,0,0.2,0,0.2,0.1l0.5,0.2c14.4,4.9,22.2,11.9,22.2,19.5c0,5-4.8,14.8-15.9,14.8
		c-5.7,0-20.4,0-33.9-13.4l-15.5,14.5c8,8,17.3,13.8,27.8,17.1c8.8,2.6,16.1,3,21.5,3c10.7,0,20.4-4.4,27.5-12.3
		c6.1-6.8,9.6-15.4,9.6-23.7C294.3,95.8,291,87.7,284.9,80.9z"/>
	<path class="st0" d="M394.6,86c-0.2,0.1-0.6,0.2-0.9,0.2c-0.5,0-1-0.1-1.4-0.5L323.2,16h-5.2v122h21V66.1c0-0.8,0.7-1.5,1.4-1.9
		c0.2-0.1,0.6-0.1,0.8-0.1c0.3,0,0.6,0.1,0.8,0.2c0.3,0.1,0.5,0.3,0.7,0.5l70.3,73.1h3.9V16h-21v68.1
		C395.9,84.9,395.3,85.7,394.6,86z"/>
	<path class="st1" d="M395.9,84.1c0,0.8-0.6,1.6-1.4,1.9c-0.2,0.1-0.6,0.2-0.9,0.2c-0.5,0-1-0.1-1.4-0.5L323.2,16h-5.2v122h21V66.1
		c0-0.8,0.7-1.5,1.4-1.8c0.2-0.1,0.7-0.1,0.9-0.1c0.3,0,0.5,0.1,0.7,0.2c0.3,0.1,0.5,0.3,0.7,0.5l70.3,73.1h3.9V16h-21V84.1z"/>
	<path class="st0" d="M505.8,13.2c-34.9,0-63.3,28.4-63.3,63.3c0,34.9,28.4,63.3,63.3,63.3c34.9,0,63.3-28.4,63.3-63.3
		C569.1,41.6,540.7,13.2,505.8,13.2z M505.8,117.9c-22.8,0-41.4-18.6-41.4-41.4c0-22.8,18.6-41.4,41.4-41.4
		c22.8,0,41.4,18.6,41.4,41.4C547.2,99.4,528.6,117.9,505.8,117.9z"/>
	<path class="st1" d="M505.8,13.2c-34.9,0-63.3,28.4-63.3,63.3c0,34.9,28.4,63.3,63.3,63.3c34.9,0,63.3-28.4,63.3-63.3
		C569.1,41.6,540.7,13.2,505.8,13.2z"/>
	<path class="st0" d="M683.8,85C683.8,85,683.8,85,683.8,85c-0.8,0-1.5,0-1.8-0.7L649.8,16h-23.4l22.9,46.5c0.2,0.3,0.2,0.6,0.2,0.8
		c0,0.3-0.1,0.6-0.2,0.9l-11.2,20.9c-0.3,0.7-1,0.8-1.8,0.8c0,0,0,0,0,0c-0.8,0-1.4,0-1.8-0.7L601.4,16h-23.5l55.8,122h3.6
		l20.7-45.5c0.3-0.7,1-1.5,1.8-1.5c0,0,0,0,0,0c0.8,0,1.5,0.8,1.8,1.5l20.5,45.5h3.5l55.9-122H718l-32.4,68.3
		C685.3,84.9,684.6,85,683.8,85z"/>
	<path class="st1" d="M718,16l-32.4,68.3c-0.3,0.7-1,0.7-1.8,0.7c0,0,0,0,0,0c-0.8,0-1.5,0-1.8-0.7L649.8,16h-23.4l22.9,46.5
		c0.2,0.3,0.2,0.6,0.2,0.8c0,0.2-0.1,0.4-0.2,0.7l-11.2,21.1c-0.3,0.7-1,0.8-1.8,0.8c0,0,0,0,0,0c-0.8,0-1.4,0-1.8-0.7L601.4,16
		h-23.5l55.8,122h3.6l20.7-45.5c0.3-0.7,1-1.5,1.8-1.5c0,0,0,0,0,0c0.8,0,1.5,0.8,1.8,1.5l20.5,45.5h3.5l55.9-122H718z"/>
	<path class="st0" d="M859.8,52.9C859.8,52.9,859.8,52.9,859.8,52.9c-3-7.3-7.2-13.6-13.1-19.5c-5.6-5.6-12.1-9.8-19.4-13
		C820,17.3,812,16,803.7,16h-33.8v122h8.4c0.3,0,0.6,0,0.8,0h24.5c8.4,0,16.4-1.8,23.7-5c0,0,0-0.2,0.1-0.2
		c7-2.8,13.5-7.2,19.3-13.1c5.7-5.6,10.1-12,13.1-19.3c0,0,0,0,0-0.1c0.7-1.7,1.4-3.3,1.9-5.1c1.9-5.9,2.9-12.2,2.9-18.8
		C864.7,68.1,863.1,60.2,859.8,52.9z M803.7,117h-10.4c-1.1,0-2.3-1.4-2.3-2.5V38.7c0-1.1,1.2-1.8,2.3-1.8h10.4
		c21.9,0,39.8,18,39.8,39.9C843.5,98.9,825.6,117,803.7,117z"/>
	<path class="st1" d="M864.9,76.5C864.9,76.5,864.9,76.5,864.9,76.5c0-8.4-1.8-16.3-5-23.7c0,0-0.1,0-0.1,0
		c-2.9-7.3-7.2-13.6-13.1-19.4c-5.6-5.6-12.1-9.8-19.4-13C820,17.3,812,16,803.7,16h-33.8v122h8.4c0.3,0,0.6,0,0.8,0h24.5
		c8.4,0,16.4-1.8,23.7-5c0,0,0-0.2,0.1-0.2c7-2.8,13.5-7.2,19.3-13.1c5.7-5.6,10.1-12,13.1-19.3c0,0,0,0,0.1-0.1
		c0.7-1.7,1.4-3.3,2-5.1C863.8,89.4,864.9,83.1,864.9,76.5z"/>
	<path class="st0" d="M935.8,16l-62.2,122h23.8l11.3-22.6c0.3-0.7,1-1.4,1.8-1.4h52.2c0.8,0,1.5,0.7,1.8,1.5l10.4,22.5h23.5
		L940.7,16H935.8z M952.8,91.2c0,0.3-0.1,0.6-0.3,0.9c-0.4,0.6-1,0.9-1.7,0.9h-27.4c-0.7,0-1.3-0.3-1.7-0.9
		c-0.1-0.2-0.2-0.4-0.2-0.6c0-0.1-0.1-0.2-0.1-0.4c0-0.3,0.1-0.7,0.2-1l14.2-28.1c0.3-0.7,1-1.1,1.8-1.1c0,0,0,0,0,0
		c0.8,0,1.5,0.5,1.8,1.2l7.4,15.9l5.7,12.2C952.7,90.5,952.8,90.8,952.8,91.2z"/>
	<path class="st1" d="M998.4,138L940.7,16h-4.9l-62.2,122h23.8l11.3-22.6c0.3-0.7,1-1.4,1.8-1.4h52.2c0.8,0,1.5,0.7,1.8,1.5
		l10.4,22.5H998.4z"/>
	<path class="st0" d="M1050,63C1049.9,63,1049.9,63,1050,63c-0.7,0-1.4-0.1-1.8-0.8L1022.8,16h-23.4l39.5,76.8c0.1,0.3,0,0.4,0,0.7
		V138h22V93.4c0-0.3-0.1-0.4,0-0.7l39.3-76.8h-23.4l-25.2,46.2C1051.4,62.8,1050.7,63,1050,63z"/>
	<path class="st1" d="M1100.3,16h-23.4l-25.2,46.2c-0.3,0.6-1,0.8-1.8,0.8c0,0,0,0,0,0c-0.7,0-1.4-0.1-1.8-0.8L1022.8,16h-23.4
		l39.5,76.8c0.1,0.3,0,0.4,0,0.7V138h22V93.4c0-0.3-0.1-0.4,0-0.7L1100.3,16z"/>
	<path class="st0" d="M1183.5,80.9c-6.2-6.7-15.3-12.1-27.1-16.2c-1.1-0.4-2.1-0.7-3.4-1c-12.4-3.1-17.5-7.4-17.7-14.8
		c-0.2-3.8,0.7-6.6,2.7-8.6c3.8-4,10.7-5.3,12.6-5.3c11.5,0,17.2,3.7,25.2,8.8l0.2,0.1l2.8,1.8l11.1-18l-2.5-1.6l0,0
		c-8.9-5.7-18.9-12.2-36.7-12.2c-5.7,0-18.9,2.5-27.9,11.8c-6.1,6.5-9.1,14.9-8.6,24.2c0.5,11.5,5.7,20.5,15.3,26.9
		c6.8,4.6,14.3,6.6,18.3,7.6l0.1,0l0.8,0.2c0.1,0,0.2,0,0.2,0.1l0.5,0.2c14.4,4.9,22.2,11.9,22.2,19.5c0,5-4.8,14.8-15.9,14.8
		c-5.7,0-20.4,0-33.9-13.4l-15.5,14.5c8,8,17.3,13.8,27.8,17.1c8.8,2.6,16.1,3,21.5,3c10.7,0,20.4-4.4,27.5-12.3
		c6.1-6.8,9.6-15.4,9.6-23.7C1192.8,95.8,1189.6,87.7,1183.5,80.9z"/>
	<path class="st1" d="M1183.5,80.9c-6.2-6.7-15.3-12.1-27.1-16.2c-1.1-0.4-2.1-0.7-3.4-1c-12.4-3.1-17.5-7.4-17.7-14.8
		c-0.2-3.8,0.7-6.6,2.7-8.6c3.8-4,10.7-5.3,12.6-5.3c11.5,0,17.2,3.7,25.2,8.8l0.2,0.1l2.8,1.8l11.1-18l-2.5-1.6l0,0
		c-8.9-5.7-18.9-12.2-36.7-12.2c-5.7,0-18.9,2.5-27.9,11.8c-6.1,6.5-9.1,14.9-8.6,24.2c0.5,11.5,5.7,20.5,15.3,26.9
		c6.8,4.6,14.3,6.6,18.3,7.6l0.1,0l0.8,0.2c0.1,0,0.2,0,0.2,0.1l0.5,0.2c14.4,4.9,22.2,11.9,22.2,19.5c0,5-4.8,14.8-15.9,14.8
		c-5.7,0-20.4,0-33.9-13.4l-15.5,14.5c8,8,17.3,13.8,27.8,17.1c8.8,2.6,16.1,3,21.5,3c10.7,0,20.4-4.4,27.5-12.3
		c6.1-6.8,9.6-15.4,9.6-23.7C1192.8,95.8,1189.6,87.7,1183.5,80.9z"/>
</g>
</svg>
