<?xml version="1.0" encoding="utf-8"?>
<!-- Generator: Adobe Illustrator 17.0.0, SVG Export Plug-In . SVG Version: 6.00 Build 0)  -->
<!DOCTYPE svg PUBLIC "-//W3C//DTD SVG 1.1//EN" "http://www.w3.org/Graphics/SVG/1.1/DTD/svg11.dtd">
<svg version="1.1" id="Livello_1" xmlns="http://www.w3.org/2000/svg"  x="0px" y="0px"
	 width="179.9px" height="159.8px" viewBox="0 0 179.9 159.8" style="enable-background:new 0 0 179.9 159.8;" xml:space="preserve"
	>
<style type="text/css">
	.st0{fill:#008EFF;}
</style>
<g>
	<path class="st0" d="M73.8,43.9c-2.7-0.8-7.5-1.8-12.8-1.8c-4.3,0-8.2,0.7-11.7,2c-0.3,0.1-0.6,0.4-0.6,0.8
		c-0.1,0.3,0.1,0.7,0.3,0.9l5.4,4.8c0.2,0.2,0.5,0.3,0.8,0.2c2.4-0.3,4.8-0.5,7.1-0.5c7,0,12.8,1.5,17.2,4.6
		c2.5,5.3,5.1,11.9,7.8,20.4c0.1,0.4,0.5,0.7,1,0.7c0.1,0,0.2,0,0.3,0c0.4-0.1,0.7-0.2,1.1-0.2c0.3,0,0.5-0.2,0.7-0.4
		c0.2-0.2,0.2-0.5,0.2-0.7c-1.1-9.4-3.4-18.6-6.8-27.3c0.9-3.5,2.3-6.9,4.2-10.1c3.5-6.2,8.7-12,15.1-16.5c0.2-0.1,0.3-0.4,0.4-0.6
		l1.5-7.4c0.1-0.4-0.1-0.8-0.4-1s-0.7-0.3-1.1-0.1c-6.6,3.7-12.3,8.3-16.8,13.7c-3.1,3.7-5.6,7.7-7.4,11.8c-3-5.6-12.3-21.4-29.2-37
		c-0.3-0.3-0.8-0.3-1.2-0.1l-7.1,4c-0.3,0.2-0.5,0.5-0.5,0.8s0.1,0.7,0.4,0.9C57.5,18,69.9,37.4,73.8,43.9z"/>
	<path class="st0" d="M100.4,26.8c-0.3-0.2-0.6-0.3-1-0.2c-0.3,0.1-0.6,0.4-0.6,0.8l-1.5,7.1c-0.1,0.3,0,0.6,0.2,0.8
		c6.2,8,9.1,15.9,8.6,23.1c-3.3,4.8-7.8,10.4-13.7,17c-0.4,0.4-0.3,1,0.1,1.4c0.3,0.3,0.5,0.5,0.7,0.8c0.2,0.2,0.4,0.4,0.7,0.4
		c0.1,0,0.1,0,0.2,0c0.2,0,0.4-0.1,0.6-0.2c7.5-5.6,14.3-12.2,20.3-19.5c3.5-0.9,7.1-1.4,10.8-1.5h0.4c7,0,14.4,1.7,21.4,4.8
		c0.2,0.1,0.5,0.1,0.7,0l7.2-2.4c0.4-0.1,0.6-0.5,0.7-0.8c0-0.4-0.1-0.8-0.5-1c-6.5-3.9-13.3-6.5-20.2-7.7c-4.7-0.8-9.4-1-14-0.5
		c3.3-5.4,12.3-21.4,17.4-43.8c0.1-0.4-0.1-0.9-0.5-1.1l-7-4.1c-0.3-0.2-0.6-0.2-0.9,0s-0.5,0.4-0.6,0.8
		c-2.8,19.8-13.4,40.3-17.1,47C111.6,43.1,108.3,33.1,100.4,26.8z"/>
	<path class="st0" d="M179.3,75c-0.3-0.2-0.6-0.2-0.9-0.1c-18.7,7.6-41.6,8.6-49.2,8.7c3.5-3.4,10.5-11.3,12.1-21.3
		c0.1-0.3-0.1-0.7-0.3-0.9c-0.3-0.2-0.6-0.3-1-0.2l-6.9,2.3c-0.3,0.1-0.5,0.3-0.6,0.6c-3.8,9.3-9.2,15.9-15.7,19
		c-5.9-0.5-12.9-1.6-21.6-3.4c-0.5-0.1-1.1,0.2-1.2,0.7c-0.1,0.4-0.2,0.7-0.4,1.1c-0.1,0.2-0.1,0.5,0,0.8s0.3,0.5,0.5,0.6
		c8.6,3.7,17.7,6.3,27,7.8c2.6,2.6,4.8,5.5,6.7,8.7c3.6,6.1,6,13.5,6.8,21.3c0,0.3,0.1,0.5,0.3,0.7l5.7,5c0.2,0.2,0.4,0.2,0.7,0.2
		c0.1,0,0.3,0,0.4-0.1c0.4-0.2,0.6-0.5,0.6-0.9c0.1-7.6-1-14.8-3.4-21.4c-1.6-4.5-3.8-8.7-6.5-12.4c0.9,0,1.9,0.1,3.2,0.1
		c8,0,24.3-0.9,43.5-6.9c0.4-0.1,0.7-0.5,0.7-0.9l0.1-8.1C179.8,75.5,179.6,75.2,179.3,75z"/>
	<path class="st0" d="M106.4,115.7c2.7,0.8,7.5,1.8,12.8,1.8c4.3,0,8.2-0.7,11.7-2c0.3-0.1,0.6-0.4,0.6-0.8c0.1-0.3-0.1-0.7-0.3-0.9
		l-5.4-4.8c-0.2-0.2-0.5-0.3-0.8-0.2c-2.4,0.3-4.8,0.5-7,0.5c-7,0-12.8-1.5-17.2-4.6c-2.5-5.3-5.1-11.9-7.8-20.4
		c-0.2-0.5-0.7-0.8-1.2-0.7c-0.3,0.1-0.7,0.2-1.1,0.2c-0.3,0-0.5,0.2-0.7,0.4s-0.2,0.5-0.2,0.7c1.1,9.3,3.4,18.5,6.7,27.3
		c-0.9,3.5-2.3,6.9-4.2,10.1c-3.5,6.2-8.7,11.9-15.1,16.5c-0.2,0.1-0.3,0.4-0.4,0.6l-1.5,7.4c-0.1,0.4,0.1,0.8,0.4,1
		s0.7,0.3,1.1,0.1c6.6-3.7,12.3-8.3,16.8-13.7c3.1-3.7,5.6-7.6,7.4-11.8c3,5.6,12.3,21.4,29.2,37c0.2,0.2,0.4,0.3,0.7,0.3
		c0.2,0,0.3,0,0.5-0.1l7.1-4c0.3-0.2,0.5-0.5,0.5-0.8s-0.1-0.7-0.4-0.9C122.7,141.7,110.3,122.2,106.4,115.7z"/>
	<path class="st0" d="M79.7,133c0.3,0.2,0.6,0.3,1,0.2c0.3-0.1,0.6-0.4,0.6-0.7l1.5-7.1c0.1-0.3,0-0.6-0.2-0.8
		c-6.2-8-9.1-16-8.6-23.1c3.3-4.9,7.8-10.4,13.7-17c0.4-0.4,0.3-1-0.1-1.4c-0.3-0.2-0.5-0.5-0.7-0.8c-0.2-0.2-0.4-0.4-0.7-0.4
		c-0.3,0-0.5,0-0.8,0.2c-7.5,5.6-14.3,12.2-20.3,19.5c-3.5,0.9-7.2,1.4-10.8,1.5h-0.5c-7,0-14.4-1.7-21.4-4.8
		c-0.2-0.1-0.5-0.1-0.7,0l-7.2,2.4c-0.4,0.1-0.6,0.5-0.7,0.8c0,0.4,0.1,0.8,0.5,1c6.5,3.9,13.3,6.5,20.2,7.7c4.7,0.8,9.4,1,14,0.5
		c-3.4,5.4-12.3,21.2-17.4,43.8c-0.1,0.4,0.1,0.9,0.5,1.1l7,4.1c0.2,0.1,0.3,0.1,0.5,0.1c0.1,0,0.3,0,0.4-0.1
		c0.3-0.1,0.5-0.4,0.6-0.8c2.8-19.8,13.4-40.3,17.1-47C68.4,116.5,71.8,126.5,79.7,133z"/>
	<path class="st0" d="M38.8,97.4c-0.1,0.3,0.1,0.7,0.3,0.9c0.2,0.2,0.4,0.2,0.6,0.2c0.1,0,0.2,0,0.3,0l6.9-2.3
		c0.3-0.1,0.5-0.3,0.6-0.6c3.8-9.3,9.2-15.9,15.7-19c5.9,0.5,12.9,1.6,21.5,3.4c0.5,0.1,1.1-0.2,1.2-0.7c0.1-0.4,0.2-0.7,0.4-1.1
		c0.1-0.2,0.1-0.5,0-0.8s-0.3-0.5-0.5-0.6c-8.6-3.7-17.7-6.3-27-7.8c-2.6-2.6-4.8-5.5-6.7-8.7c-3.6-6.2-6-13.5-6.8-21.3
		c0-0.3-0.1-0.5-0.3-0.7l-5.7-5C39,33,38.6,33,38.2,33.1c-0.4,0.2-0.6,0.5-0.6,0.9c-0.1,7.5,1.1,14.9,3.4,21.4
		c1.6,4.5,3.8,8.7,6.5,12.4c-0.9,0-1.9-0.1-3.2-0.1c-8,0-24.3,0.9-43.5,6.9c-0.4,0.1-0.7,0.5-0.7,0.9L0,83.7c0,0.3,0.2,0.6,0.4,0.8
		c0.3,0.2,0.6,0.2,0.9,0.1C20,77,43,76,50.5,75.9C47.4,79.4,40.4,87.3,38.8,97.4z"/>
</g>
</svg>
