<?xml version="1.0" encoding="utf-8"?>
<!-- Generator: Adobe Illustrator 16.0.0, SVG Export Plug-In . SVG Version: 6.00 Build 0)  -->
<!DOCTYPE svg PUBLIC "-//W3C//DTD SVG 1.1//EN" "http://www.w3.org/Graphics/SVG/1.1/DTD/svg11.dtd">
<svg version="1.1" id="Layer_1" xmlns="http://www.w3.org/2000/svg"  x="0px" y="0px"
	 width="128px" height="128px" viewBox="0 0 128 128" enable-background="new 0 0 128 128" xml:space="preserve">
<path fill="#546E7A" d="M104,0H24C15.164,0,8,7.164,8,16v96c0,8.836,7.164,16,16,16h80c8.836,0,16-7.164,16-16V16
	C120,7.164,112.836,0,104,0z M112,112c0,4.414-3.586,8-8,8H24c-4.406,0-8-3.586-8-8V16c0-4.414,3.594-8,8-8h80c4.414,0,8,3.586,8,8
	V112z"/>
<rect x="32" y="24" fill="#B0BEC5" width="64" height="8"/>
<rect x="32" y="40" fill="#B0BEC5" width="64" height="8"/>
<rect x="32" y="56" fill="#B0BEC5" width="64" height="8"/>
<rect x="32" y="72" fill="#B0BEC5" width="32" height="8"/>
</svg>
