<?xml version="1.0" encoding="utf-8"?>
<!-- Generator: Adobe Illustrator 17.0.0, SVG Export Plug-In . SVG Version: 6.00 Build 0)  -->
<!DOCTYPE svg PUBLIC "-//W3C//DTD SVG 1.1//EN" "http://www.w3.org/Graphics/SVG/1.1/DTD/svg11.dtd">
<svg version="1.1" id="Livello_1" xmlns="http://www.w3.org/2000/svg"  x="0px" y="0px"
	 width="32px" height="36px" viewBox="0 0 32 36" style="enable-background:new 0 0 32 36;" xml:space="preserve">
<style type="text/css">
	.st0{fill:none;stroke:#000000;stroke-width:2;stroke-linejoin:round;stroke-miterlimit:10;}
</style>
<g>
	<g>
		<path class="st0" d="M27,1H5C2.8,1,1,2.8,1,5v26c0,2.2,1.8,4,4,4h13.2c0.5,0,1-0.2,1.4-0.5l10.8-9.9c0.4-0.4,0.6-0.9,0.6-1.5V5
			C31,2.8,29.2,1,27,1z"/>
		<path class="st0" d="M19,35v-7c0-2.2,1.8-4,4-4h7.5"/>
	</g>
	<line class="st0" x1="6" y1="8" x2="22" y2="8"/>
	<line class="st0" x1="6" y1="29" x2="14" y2="29"/>
	<line class="st0" x1="6" y1="22" x2="18" y2="22"/>
	<line class="st0" x1="6" y1="15" x2="26" y2="15"/>
</g>
</svg>
