<?xml version="1.0" encoding="iso-8859-1"?>
<!-- Generator: Adobe Illustrator 19.0.0, SVG Export Plug-In . SVG Version: 6.00 Build 0)  -->
<svg version="1.1" id="Layer_1" xmlns="http://www.w3.org/2000/svg" xmlns:xlink="http://www.w3.org/1999/xlink" x="0px" y="0px"
	 viewBox="0 0 512.001 512.001" style="enable-background:new 0 0 512.001 512.001;" xml:space="preserve">
<path style="fill:#4BCDB2;" d="M221.093,512v-89.878l110.922,35.602l-6.985-70.736l-109.544-38.192
	c-12.442-3.994-25.43-6.027-38.498-6.027h-10.849h-54.711H80.859c-43.107,0-78.376,35.269-78.376,78.376l0,0v90.856h218.61V512z"/>
<polygon style="fill:#328777;" points="302.035,378.804 328.227,387.936 332.63,457.898 302.035,448.078 "/>
<path style="fill:#FFEB99;" d="M337.375,512L291.508,47.526c-0.575-5.977,1.254-11.938,5.081-16.563l18.415-22.258
	c7.934-9.589,22.13-10.955,31.747-3.054l22.32,18.339c4.639,3.812,7.571,9.314,8.146,15.291l47.084,472.717L337.375,512z"/>
<rect x="317.889" y="215.51" transform="matrix(-0.9954 0.0958 -0.0958 -0.9954 750.1335 588.477)" style="fill:#FFF5CC;" width="86.101" height="193.471"/>
<g>
	
		<rect x="328.113" y="408.2" transform="matrix(-0.9954 0.0958 -0.0958 -0.9954 780.111 793.4598)" style="fill:#FFDA44;" width="85.79" height="14.512"/>
	<path style="fill:#FFDA44;" d="M399.46,376.785l-74.723,7.188l-6.487-67.443c-2.277-23.667,15.064-44.699,38.732-46.976
		c23.667-2.276,44.699,15.064,46.976,38.732l6.777,67.509L399.46,376.785z"/>
	
		<rect x="309.54" y="215.615" transform="matrix(-0.9954 0.0958 -0.0958 -0.9954 725.6207 420.9726)" style="fill:#FFDA44;" width="86.33" height="24.58"/>
</g>
<g>
	<path style="fill:#FF7956;" d="M111.429,314.728V347.1v4.559c0,15.108,12.247,27.355,27.355,27.355s27.355-12.247,27.355-27.355
		V347.1v-32.372H111.429z"/>
	<path style="fill:#FF7956;" d="M268.41,175.377c9.359,8.069,14.211,20.281,14.211,33.947c0,24.296-18.853,43.993-42.111,43.993
		l-194.899-0.8c-23.243,0.853-42.747-18.138-43.564-42.42c-0.546-16.211,7.376-30.681,19.618-38.763L268.41,175.377z"/>
</g>
<path style="fill:#266659;" d="M13.38,173.501V132.4C13.444,62.815,70.392,5.902,139.993,5.902l0,0
	c69.6,0,126.548,56.913,126.613,126.498v39.56L13.38,173.501z"/>
<path style="fill:#1F544A;" d="M139.993,5.902c-7.523,0-14.897,0.667-22.07,1.942C177.1,18.356,222.409,70.337,222.467,132.4v39.56
	l-209.088,1.272v0.268l253.226-1.541V132.4C266.541,62.815,209.592,5.902,139.993,5.902z"/>
<path style="fill:#FF9478;" d="M242.514,145.12c0,0.032,0.002,0.063,0.002,0.096v78.735c0,56.768-46.446,103.214-103.214,103.214
	l0,0c-56.768,0-103.214-46.447-103.214-103.214v-78.735c0-0.032,0.002-0.063,0.002-0.096c0,0,23.914-34.454,103.213-34.454
	S242.514,145.12,242.514,145.12z"/>
<path style="fill:#FF7956;" d="M242.237,145.12c0,0-23.911-34.454-103.211-34.454c-3.965,0-7.784,0.089-11.475,0.254
	c70.149,3.109,91.736,34.2,91.736,34.2c0,0.032,0.002,0.063,0.002,0.096v78.735c0,52.89-40.319,96.813-91.739,102.568
	c3.77,0.422,7.598,0.647,11.475,0.647c56.768,0,103.214-46.447,103.214-103.214v-78.735
	C242.239,145.183,242.237,145.152,242.237,145.12z"/>
<g>
	<polygon style="fill:#50000F;" points="93.27,115.238 93.269,115.239 93.271,115.239 	"/>
	<path style="fill:#50000F;" d="M242.516,145.215c0-0.032-0.002-0.063-0.002-0.096c0,0-23.911-34.454-103.211-34.454
		c-18.111,0-33.325,1.8-46.034,4.574c0.049,0.042,54.433,46.235,149.247,54.474V145.215z"/>
	<path style="fill:#50000F;" d="M93.269,115.239c-42.931,9.37-57.176,29.879-57.176,29.879c0,0.032-0.002,0.063-0.002,0.096v17.413
		C74.315,144.797,93.25,115.268,93.269,115.239z"/>
</g>
<path style="fill:#FFD422;" d="M241.594,202.752h19.276c3.167,0,5.734-3.289,5.734-7.346v-29.22c0-4.057-2.568-7.346-5.734-7.346
	h-44.288H63.402H19.114c-3.167,0-5.734,3.289-5.734,7.346v29.22c0,4.057,2.568,7.346,5.734,7.346H38.39H241.594z"/>
<path style="fill:#FFEB99;" d="M389.608,512l34.448-472.315c0.452-5.988,3.269-11.549,7.829-15.455l21.938-18.794
	c9.452-8.098,23.673-7.024,31.803,2.4l18.869,21.874c3.922,4.547,5.872,10.468,5.421,16.456l-33.976,465.835h-86.332V512z"/>
<rect x="404.306" y="215.78" transform="matrix(-0.9972 -0.0753 0.0753 -0.9972 869.9868 655.9269)" style="fill:#FFF5CC;" width="86.105" height="191.566"/>
<g>
	
		<rect x="396.784" y="406.452" transform="matrix(-0.9972 -0.0753 0.0753 -0.9972 847.1401 862.9133)" style="fill:#FFDA44;" width="86.105" height="18.07"/>
	<path style="fill:#FFDA44;" d="M485.289,383.849l5.123-67.865c1.797-23.816-16.052-44.58-39.868-46.377
		c-23.816-1.797-44.58,16.052-46.377,39.868l-5.123,67.865L485.289,383.849z"/>
</g>
<path style="fill:#FFFFFF;" d="M163.186,251.417c4.117,0,7.104,3.897,6.075,7.884c-3.499,13.566-15.818,23.589-30.478,23.589
	s-26.979-10.023-30.478-23.589c-1.028-3.986,1.958-7.884,6.075-7.884H163.186z"/>
<polygon style="fill:#328777;" points="221.093,478.841 57.918,478.841 56.956,437.551 221.093,437.551 "/>
<path style="fill:#ACD4F3;" d="M216.146,158.839h-39.885h-10.555H112.9h-9.485H62.458c-9.319,0-16.945,7.625-16.945,16.945v36.65
	c0,14.305,11.704,26.008,26.008,26.008H90.83c17.602,0,32.549-11.821,37.354-27.914c1.465-4.903,6-8.241,11.117-8.241l0,0
	c5.117,0,9.654,3.338,11.117,8.241c4.806,16.092,19.751,27.914,37.352,27.914h19.311c14.305,0,26.008-11.704,26.008-26.008v-36.648
	C233.092,166.465,225.467,158.839,216.146,158.839z"/>
<g>
	<path style="fill:#CCE4F7;" d="M86.08,189.543c2.464-3.531,1.599-8.391-1.932-10.854c-3.53-2.464-8.391-1.599-10.854,1.932
		l-26.888,38.535c1.492,5.535,4.775,10.352,9.185,13.789c0.372-0.354,0.723-0.74,1.029-1.179L86.08,189.543z"/>
	<path style="fill:#CCE4F7;" d="M90.681,208.301c1.359,0.948,2.914,1.403,4.454,1.403c2.462,0,4.885-1.163,6.4-3.336l29.46-42.224
		c1.124-1.61,1.548-3.496,1.349-5.306h-16.66l-26.936,38.607C86.284,200.978,87.15,205.838,90.681,208.301z"/>
	<path style="fill:#CCE4F7;" d="M197.305,189.543c2.464-3.531,1.599-8.391-1.932-10.854c-3.529-2.464-8.39-1.599-10.854,1.932
		l-28.677,41.101c3.027,4.326,6.908,8.011,11.392,10.816c0.217-0.241,0.422-0.498,0.612-0.77L197.305,189.543z"/>
	<path style="fill:#CCE4F7;" d="M225.099,161.435l-25.126,36.011c-2.464,3.531-1.599,8.391,1.932,10.854
		c1.359,0.948,2.914,1.403,4.454,1.403c2.462,0,4.885-1.163,6.4-3.336l20.333-29.14v-1.444
		C233.092,169.748,229.883,164.439,225.099,161.435z"/>
</g>
<path style="fill:#1F544A;" d="M64.752,512v-89.878c0-4.306-3.491-7.796-7.796-7.796s-7.796,3.491-7.796,7.796V512L64.752,512
	L64.752,512z"/>
<rect x="410.452" y="215.671" transform="matrix(-0.9972 -0.0753 0.0753 -0.9972 888.5566 489.4223)" style="fill:#FFDA44;" width="86.105" height="24.581"/>
<polygon style="opacity:0.35;fill:#CCA400;enable-background:new    ;" points="404.168,309.474 389.608,512 360.928,512 "/>
<g>
</g>
<g>
</g>
<g>
</g>
<g>
</g>
<g>
</g>
<g>
</g>
<g>
</g>
<g>
</g>
<g>
</g>
<g>
</g>
<g>
</g>
<g>
</g>
<g>
</g>
<g>
</g>
<g>
</g>
</svg>
