<?xml version="1.0" encoding="iso-8859-1"?>
<!-- Generator: Adobe Illustrator 19.0.0, SVG Export Plug-In . SVG Version: 6.00 Build 0)  -->
<svg version="1.1" id="Layer_1" xmlns="http://www.w3.org/2000/svg"  x="0px" y="0px"
	 viewBox="0 0 512 512" style="enable-background:new 0 0 512 512;" xml:space="preserve">
<polygon style="fill:#50000F;" points="269.466,362.352 263.492,241.524 32.923,239.066 26.264,372.55 "/>
<path style="fill:#4BCDB2;" d="M230.223,512v-90.345l89.005,28.568v-71.898l-94.643-30.376c-12.506-4.014-25.562-6.058-38.698-6.058
	h-10.906h-54.995H89.26c-43.331,0-78.783,35.452-78.783,78.783l0,0V512H230.223z"/>
<polygon style="fill:#328777;" points="291.892,369.613 318.176,377.986 322.173,451.163 291.417,441.292 "/>
<path style="fill:#D7D5D9;" d="M318.22,511.595V96.497c-0.015-54.046,44.418-97.724,98.751-96.47
	c52.575,1.212,94.864,45.134,94.183,97.72V512L318.22,511.595z"/>
<g>
	<path style="fill:#ACAAB1;" d="M365.348,195.456l-0.009-33.828c-0.004-14.026,11.469-25.504,25.494-25.508l67.533-0.018
		c4.287-0.001,7.796,3.506,7.797,7.793l0.019,69.24c0.001,4.287-3.506,7.796-7.793,7.797l-67.533,0.018
		C376.831,220.953,365.352,209.481,365.348,195.456z"/>
	<path style="fill:#ACAAB1;" d="M365.348,462.311l-0.009-33.828c-0.004-14.026,11.469-25.504,25.494-25.508l67.533-0.018
		c4.287-0.001,7.796,3.506,7.797,7.793l0.019,69.24c0.001,4.287-3.506,7.796-7.793,7.797l-67.533,0.018
		C376.831,487.809,365.352,476.337,365.348,462.311z"/>
	<polygon style="fill:#ACAAB1;" points="511.154,405.118 318.22,297.359 318.269,212.801 511.203,320.559 	"/>
</g>
<path style="fill:#FF7956;" d="M119.988,313.704v32.54v4.583c0,15.187,12.311,27.498,27.498,27.498s27.498-12.311,27.498-27.498
	v-4.583v-32.54H119.988z"/>
<path style="fill:#1F544A;" d="M21.43,182.192v-51.763C21.495,60.481,78.74,3.272,148.701,3.272l0,0
	c69.961,0,127.206,57.209,127.271,127.156v50.215L21.43,182.192z"/>
<path style="fill:#FF7956;" d="M274.264,173.629c9.608,8.11,14.589,20.386,14.589,34.123c0,24.422-19.355,44.221-43.23,44.221
	l-200.078-0.805c-23.86,0.858-43.884-18.232-44.722-42.64c-0.56-16.295,7.572-30.84,20.14-38.964L274.264,173.629z"/>
<path style="fill:#FF9478;" d="M251.756,143.213c0,0.032,0.002,0.064,0.002,0.096v79.144c0,57.063-46.687,103.75-103.75,103.75l0,0
	c-57.063,0-103.75-46.688-103.75-103.75v-79.144c0-0.032,0.002-0.064,0.002-0.096c0,0,24.038-34.633,103.749-34.633
	S251.756,143.213,251.756,143.213z"/>
<path style="fill:#FF7956;" d="M251.756,143.213c0,0-24.035-34.633-103.747-34.633c-3.985,0-7.824,0.09-11.535,0.255
	c70.514,3.125,92.212,34.378,92.212,34.378c0,0.032,0.002,0.064,0.002,0.096v79.144c0,53.164-40.528,97.316-92.215,103.101
	c3.79,0.424,7.637,0.65,11.535,0.65c57.063,0,103.75-46.688,103.75-103.75V143.31C251.758,143.277,251.756,143.246,251.756,143.213z
	"/>
<g>
	<polygon style="fill:#50000F;" points="101.735,113.177 101.734,113.178 101.736,113.178 	"/>
	<path style="fill:#50000F;" d="M251.758,143.31c0-0.032-0.002-0.064-0.002-0.096c0,0-24.035-34.633-103.747-34.633
		c-18.205,0-33.498,1.81-46.273,4.598c0.049,0.042,54.716,46.475,150.022,54.757V143.31z"/>
	<path style="fill:#50000F;" d="M101.734,113.178c-43.154,9.419-57.474,30.035-57.474,30.035c0,0.032-0.002,0.064-0.002,0.096
		v17.503C82.682,142.89,101.715,113.208,101.734,113.178z"/>
</g>
<polygon style="fill:#328777;" points="65.176,444.448 90.425,419.199 110.335,439.109 130.245,419.199 150.156,439.109 
	170.065,419.199 189.976,439.109 209.886,419.199 229.796,439.109 229.796,486.457 209.886,466.546 189.976,486.457 
	170.065,466.546 150.156,486.457 130.245,466.546 110.335,486.457 90.425,466.546 65.176,491.795 "/>
<path style="fill:#77757E;" d="M426.301,207.293c-4.327,0-7.835-3.506-7.837-7.833c-0.002-4.328,3.505-7.838,7.833-7.841
	l10.27-0.005c3.475-0.001,6.755-1.37,9.239-3.854c2.483-2.485,3.85-5.766,3.849-9.239c-0.002-7.216-5.873-13.086-13.088-13.086
	c-0.002,0-0.003,0-0.004,0l-10.268,0.005c-0.001,0-0.003,0-0.004,0c-4.327,0-7.835-3.506-7.837-7.833
	c-0.002-4.328,3.505-7.838,7.833-7.841l10.27-0.005c0.002,0,0.006,0,0.007,0c15.861,0,28.761,12.897,28.765,28.756
	c0.004,15.859-12.895,28.766-28.756,28.77l-10.268,0.005C426.304,207.293,426.302,207.293,426.301,207.293z"/>
<path style="fill:#FFFFFF;" d="M172.016,250.064c4.139,0,7.141,3.917,6.106,7.925c-3.517,13.637-15.9,23.712-30.636,23.712
	s-27.119-10.075-30.636-23.712c-1.033-4.007,1.969-7.924,6.106-7.924L172.016,250.064L172.016,250.064z"/>
<g>
	<path style="fill:#77757E;" d="M391.775,203.604c-4.329,0-7.837-3.509-7.837-7.837v-34.583c0-4.328,3.508-7.837,7.837-7.837
		c4.329,0,7.837,3.509,7.837,7.837v34.583C399.611,200.095,396.104,203.604,391.775,203.604z"/>
	<path style="fill:#77757E;" d="M425.182,474.311c-4.327,0-7.835-3.506-7.837-7.833c-0.002-4.328,3.505-7.838,7.833-7.841
		l10.27-0.005c3.475-0.001,6.755-1.37,9.239-3.854c2.483-2.485,3.85-5.766,3.849-9.239c-0.001-3.473-1.37-6.753-3.854-9.237
		c-2.484-2.483-5.764-3.849-9.235-3.849c-0.002,0-0.003,0-0.004,0l-10.268,0.005c-0.001,0-0.003,0-0.004,0
		c-4.327,0-7.835-3.506-7.837-7.833c-0.002-4.328,3.505-7.838,7.833-7.841l10.27-0.005c0.002,0,0.005,0,0.007,0
		c7.66,0,14.873,2.996,20.317,8.438c5.446,5.442,8.446,12.659,8.448,20.318s-2.994,14.877-8.437,20.322
		c-5.443,5.446-12.659,8.446-20.318,8.448l-10.268,0.005C425.185,474.311,425.183,474.311,425.182,474.311z"/>
	<path style="fill:#77757E;" d="M391.775,470.459c-4.329,0-7.837-3.509-7.837-7.837v-34.583c0-4.328,3.508-7.837,7.837-7.837
		c4.329,0,7.837,3.509,7.837,7.837v34.583C399.611,466.95,396.104,470.459,391.775,470.459z"/>
</g>
<path style="fill:#FFD422;" d="M251.644,201.145h19.548c3.212,0,5.815-3.306,5.815-7.384v-29.372c0-4.078-2.604-7.384-5.815-7.384
	h-44.912H70.942H26.03c-3.212,0-5.815,3.306-5.815,7.384v29.372c0,4.078,2.604,7.384,5.815,7.384h19.548H251.644z"/>
<path style="fill:#ACD4F3;" d="M224.73,157.004h-40.093h-10.611h-53.08h-9.535H70.243c-9.368,0-17.033,7.664-17.033,17.033v36.84
	c0,14.379,11.765,26.143,26.143,26.143h19.41c17.693,0,32.718-11.883,37.548-28.059c1.472-4.929,6.031-8.284,11.175-8.284l0,0
	c5.144,0,9.704,3.355,11.175,8.284c4.831,16.176,19.854,28.059,37.546,28.059h19.411c14.379,0,26.143-11.765,26.143-26.143v-36.839
	C241.763,164.67,234.097,157.004,224.73,157.004z"/>
<g>
	<path style="fill:#CCE4F7;" d="M93.987,187.868c2.476-3.55,1.607-8.434-1.942-10.911c-3.548-2.476-8.434-1.607-10.911,1.942
		l-27.026,38.735c1.499,5.564,4.8,10.406,9.233,13.861c0.374-0.356,0.727-0.744,1.034-1.185L93.987,187.868z"/>
	<path style="fill:#CCE4F7;" d="M98.612,206.724c1.366,0.953,2.929,1.411,4.477,1.411c2.474,0,4.91-1.169,6.433-3.353l29.613-42.444
		c1.13-1.619,1.556-3.514,1.356-5.333h-16.747l-27.076,38.808C94.192,199.362,95.062,204.247,98.612,206.724z"/>
	<path style="fill:#CCE4F7;" d="M205.789,187.868c2.476-3.55,1.607-8.434-1.942-10.911c-3.547-2.476-8.433-1.607-10.911,1.942
		l-28.826,41.314c3.043,4.349,6.944,8.053,11.451,10.872c0.218-0.242,0.424-0.501,0.615-0.774L205.789,187.868z"/>
	<path style="fill:#CCE4F7;" d="M233.728,159.615l-25.256,36.198c-2.476,3.55-1.607,8.434,1.942,10.911
		c1.366,0.953,2.929,1.411,4.477,1.411c2.474,0,4.91-1.169,6.433-3.353l20.438-29.292v-1.451
		C241.763,167.971,238.537,162.633,233.728,159.615z"/>
</g>
<path style="fill:#1F544A;" d="M68.007,512v-90.345c0-4.328-3.509-7.837-7.837-7.837s-7.837,3.509-7.837,7.837V512H68.007z"/>
<g>
</g>
<g>
</g>
<g>
</g>
<g>
</g>
<g>
</g>
<g>
</g>
<g>
</g>
<g>
</g>
<g>
</g>
<g>
</g>
<g>
</g>
<g>
</g>
<g>
</g>
<g>
</g>
<g>
</g>
</svg>
