<?xml version="1.0" encoding="utf-8"?>
<!-- Generator: Adobe Illustrator 16.0.0, SVG Export Plug-In . SVG Version: 6.00 Build 0)  -->
<!DOCTYPE svg PUBLIC "-//W3C//DTD SVG 1.1//EN" "http://www.w3.org/Graphics/SVG/1.1/DTD/svg11.dtd">
<svg version="1.1" id="Layer_1" xmlns="http://www.w3.org/2000/svg" xmlns:xlink="http://www.w3.org/1999/xlink" x="0px" y="0px"
	 width="128px" height="128px" viewBox="0 0 128 128" enable-background="new 0 0 128 128" xml:space="preserve">
<g>
	<g>
		<path fill="#B0BEC5" d="M64,0C28.656,0,0,28.656,0,64s28.656,64,64,64s64-28.656,64-64S99.344,0,64,0z M64,120
			C33.125,120,8,94.875,8,64S33.125,8,64,8s56,25.125,56,56S94.875,120,64,120z"/>
	</g>
</g>
<path fill="#8BC34A" d="M32.891,69.656l16.969,16.969c3.117,3.125,8.188,3.125,11.313,0l33.938-33.938
	c3.125-3.125,3.125-8.195,0-11.313c-3.117-3.125-8.188-3.125-11.313,0L55.516,69.656L44.203,58.344
	c-3.125-3.125-8.195-3.125-11.313,0C29.766,61.469,29.766,66.539,32.891,69.656z"/>
</svg>
