<?xml version="1.0" encoding="utf-8"?>
<!-- Generator: Adobe Illustrator 17.0.0, SVG Export Plug-In . SVG Version: 6.00 Build 0)  -->
<!DOCTYPE svg PUBLIC "-//W3C//DTD SVG 1.1//EN" "http://www.w3.org/Graphics/SVG/1.1/DTD/svg11.dtd">
<svg version="1.1" id="Layer_1_1_" xmlns="http://www.w3.org/2000/svg" xmlns:xlink="http://www.w3.org/1999/xlink" x="0px" y="0px"
	 width="545.5px" height="950px" viewBox="0 0 545.5 950" style="enable-background:new 0 0 545.5 950;" xml:space="preserve">
<style type="text/css">
	.st0{fill-rule:evenodd;clip-rule:evenodd;fill:#FF6600;}
	.st1{fill-rule:evenodd;clip-rule:evenodd;fill:#F3F3F3;}
	.st2{fill-rule:evenodd;clip-rule:evenodd;fill:#DE9A7C;}
	.st3{fill-rule:evenodd;clip-rule:evenodd;fill:#E1E3EA;}
	.st4{fill-rule:evenodd;clip-rule:evenodd;fill:#BB6F4D;}
	.st5{fill-rule:evenodd;clip-rule:evenodd;fill:#A65D3C;}
	.st6{fill-rule:evenodd;clip-rule:evenodd;fill:#D18461;}
	.st7{fill-rule:evenodd;clip-rule:evenodd;fill:#F5C1AB;}
	.st8{fill-rule:evenodd;clip-rule:evenodd;fill:#FF0000;}
	.st9{fill-rule:evenodd;clip-rule:evenodd;fill:#990000;}
	.st10{fill-rule:evenodd;clip-rule:evenodd;fill:#F2F2F2;}
	.st11{fill-rule:evenodd;clip-rule:evenodd;fill:#EB9E7F;}
	.st12{fill-rule:evenodd;clip-rule:evenodd;fill:url(#SVGID_1_);}
	.st13{fill-rule:evenodd;clip-rule:evenodd;fill:url(#SVGID_2_);}
	.st14{fill-rule:evenodd;clip-rule:evenodd;fill:#EEA28B;}
	.st15{fill-rule:evenodd;clip-rule:evenodd;fill:#E08C72;}
	.st16{fill-rule:evenodd;clip-rule:evenodd;fill:#B812A6;}
	.st17{fill-rule:evenodd;clip-rule:evenodd;fill:#181818;}
	.st18{fill-rule:evenodd;clip-rule:evenodd;fill:#B10A00;}
	.st19{fill-rule:evenodd;clip-rule:evenodd;fill:#7F0700;}
	.st20{fill-rule:evenodd;clip-rule:evenodd;fill:#333333;}
	.st21{fill-rule:evenodd;clip-rule:evenodd;fill:#E30E00;}
	.st22{fill-rule:evenodd;clip-rule:evenodd;fill:#FF3300;}
	.st23{fill-rule:evenodd;clip-rule:evenodd;fill:#38312D;}
	.st24{fill-rule:evenodd;clip-rule:evenodd;fill:#0D0B0A;}
	.st25{fill-rule:evenodd;clip-rule:evenodd;fill:#544A46;}
</style>
<g>
	<path class="st0" d="M434.8,51.8C434.8,51.9,434.8,51.9,434.8,51.8c0,0.9,0.1,1.6,0.1,2.4c0,1.2,0,2.3-0.1,3.5
		c-0.4,6.9-2.1,13.4-5,19.5c0,0.1-0.1,0.2-0.2,0.3c-0.5,1.1-1,2.3-1.6,3.4c-0.2,0.4-0.4,0.7-0.6,1.1h0c-1.5,2.6-3.2,5.1-5.1,7.4
		c-16.4-14-31.2-28-44.4-42c4.8-1.6,16.7-1.2,35.6,1.2C420.4,49.6,427.4,50.6,434.8,51.8z M340.3,91.2c12-19.4,21.7-29,29.1-28.9
		c0.4,7.6,1.3,22.9,2.7,45.9c-2.2-0.5-4.2-0.9-5.9-1.3c-1.3-0.3-2.5-0.6-3.5-0.9c0,0-0.1,0-0.2-0.1c-0.1,0-0.2-0.1-0.3-0.1
		c-0.5-0.1-0.9-0.3-1.3-0.4c-2.5-1-4.9-2.2-7.2-3.5c-1.2-0.7-2.3-1.4-3.4-2.1h0c-0.1-0.1-0.2-0.2-0.3-0.2c-1.2-0.8-2.5-1.7-3.6-2.7
		c-0.1-0.1-0.2-0.1-0.2-0.2c-0.1-0.1-0.1-0.1-0.2-0.2c-0.3-0.3-0.6-0.5-1-0.8c-0.1-0.1-0.2-0.2-0.3-0.2
		C343.1,94.1,341.6,92.7,340.3,91.2z M377.9,0.1c0.6,0,1.2,0,1.8,0c-2.3,9.7-6.1,22.9-11.2,39.6c-12.7-2.9-25.3-5.2-38-7
		c0,0,0-0.1,0.1-0.1v0c0.1-0.3,0.3-0.7,0.5-1l3.7-6.7c0.2-0.3,0.4-0.6,0.6-0.9c0.4-0.6,0.8-1.2,1.2-1.7c0.2-0.2,0.4-0.5,0.6-0.7
		c0.2-0.3,0.5-0.6,0.7-0.9c3.3-4.2,7.1-7.8,11.5-10.8c0.3-0.2,0.6-0.4,0.8-0.6c5.7-3.8,12-6.5,18.7-7.9c0.4-0.1,0.8-0.2,1.2-0.2
		c0.8-0.1,1.5-0.3,2.3-0.4L377.9,0.1z"/>
	<path class="st1" d="M377.9,0.1c3.7-0.2,7.3,0,11,0.6c0.1,0,0.2,0,0.3,0.1c7.9,1.2,15.2,4.1,22,8.8c0.1,0.1,0.2,0.1,0.3,0.2
		c5,3.5,9.3,7.7,12.8,12.5v0c0.2,0.3,0.5,0.7,0.7,1l2,3.1c0.1,0.2,0.2,0.3,0.3,0.5c4.5,7.6,7,15.9,7.5,25v0.1
		c-7.3-1.2-14.4-2.3-21.2-3.1c-19-2.4-30.8-2.8-35.6-1.2c13.2,14,27.9,28,44.4,42c-2.3,2.7-4.9,5.2-7.8,7.5
		c-2.3,1.8-4.8,3.4-7.5,4.9c-3.4,1.9-6.8,3.4-10.3,4.5c-0.9,0.3-1.7,0.5-2.6,0.8c-0.4,0.1-0.8,0.2-1.2,0.3c-0.1,0-0.2,0-0.3,0.1
		l-16.6,1.3c-0.7,0-1.4-0.1-2-0.2c-0.7-0.1-1.3-0.3-1.9-0.4c-1.4-23-2.3-38.3-2.7-45.9c-7.4-0.1-17.1,9.5-29.1,28.9
		c-3-3.3-5.6-6.8-7.6-10.7c-1-1.8-1.8-3.6-2.6-5.5c-0.5-1.4-1-2.7-1.5-4.1c-1.1-3.5-1.8-7.1-2.2-10.8c-0.6-5.6-0.4-11.1,0.7-16.5
		c0.3-1.6,0.7-3.1,1.2-4.7l0.1-0.3c0.2-0.6,0.4-1.3,0.6-1.9c0.5-1.4,1-2.8,1.6-4.1c12.7,1.8,25.3,4.1,38,7
		c5.1-16.7,8.9-29.9,11.2-39.6C379.1,0,378.5,0,377.9,0.1z"/>
</g>
<g>
	<path class="st2" d="M180,581.5c0.8,3.5,2.1,6.8,4,10.2c2.3,4.3,5.4,8.1,9.2,11.4c-0.7,0.9-1.5,2-2.4,3.1c-1.6,1.5-2.9,3.7-3.7,6.8
		c-0.4,1.6-1,4.2-1.8,7.6c-0.5,3.8-2,7.7-4.4,11.5c-1.5,2.3-3.5,4.9-5.9,7.6c-0.4,0.4-0.7,0.8-1.1,1.2v0c-0.3,0.3-0.5,0.6-0.8,0.8
		c-0.1,0.6,0,2.1,0.1,4.6c0.1,1.9,0,3.4-0.2,4.5c-1.4,1.9-3.5,2.8-6.2,2.8c-2.5,0-4.7-0.8-6.4-2.4c-2.1-2-3.7-4.5-4.6-7.4
		c-1-2.9-1.3-5.8-0.8-8.8c0.2-1.6-0.4-3.5-1.8-5.8c-1.5-2.6-2.3-4.5-2.3-5.8c-0.4-3.8,0.2-7.9,1.9-12.3c0.8-2.3,2.6-6.1,5.3-11.3
		c1.3-2.6,1.5-5.6,0.7-9c-0.5-2.1-1.7-5-3.5-8.5c-2.2-4.2-3.8-7.4-4.8-9.6c-1.8-3.8-2.9-7.2-3.3-10.2c-0.4-3.5-0.2-6.9,0.7-10.2
		c0.9-3.5,2.5-6.5,4.7-9.1c1.9-2,4.4-3.2,7.4-3.4c2.9-0.3,5.6,0.2,8.2,1.6c2.1,0.9,5.1,3.1,9,6.8c2.6,2.4,5,4.1,7.1,5.2
		c-1.1,2-2.1,4-2.8,5.8c-1.5,4.1-2.2,8.8-2.2,14.2C179.1,576.1,179.4,578.8,180,581.5z M276.2,569.1c9,0.8,18,3.6,27,8.4
		c9.1,4.8,17.6,11.4,25.7,19.8c9.3-2.5,16.7-2.1,22.2,1.4c4.1,2.3,7.7,6,10.7,11c2.1,3.3,4.2,8,6.4,14.1l-0.4,0.5
		c-0.1,1-0.1,2-0.3,3c-0.9-0.2-1.9-0.3-3-0.3c-2.7,0-6.5,1.6-11.2,4.7c-4.8,3.1-7.3,4.7-7.7,4.7c-14.3,0-22.9-4.3-25.9-13
		c-1-2.9-1.5-6.6-1.4-11.2c0.3-4.8,0.5-8.1,0.5-9.9c0-6.3-1.9-9.4-5.8-9.3c-3.4,0.1-7.7,2.5-12.8,7.1c-4.8,4.3-9.1,9.4-12.8,15.2
		c-2.9,4.5-4.7,8.4-5.4,11.7c-2.8-0.9-5.9-1.9-9.2-2.9c-0.1,0-0.1,0-0.2,0c-0.4-1.3-0.9-2.8-1.4-4.3c-3.7-11-5.5-19.3-5.5-24.9
		c0-6.5,3-14.3,9.1-23.5C275.2,570.4,275.7,569.7,276.2,569.1z"/>
	<path class="st3" d="M193.2,603.1c-3.8-3.3-6.8-7.1-9.2-11.4c-1.8-3.3-3.2-6.7-4-10.2c-0.3-2.7-0.5-5.4-0.5-8.2
		c0-4.1,1.2-8.6,3.5-13.5c0.9-2,2-3.9,3.1-5.7c0.1,0,0.2,0.1,0.3,0.1c1.5,0.3,5.9,1.9,13.3,4.5c-0.6,1.8-1.4,4-2.3,6.6
		c-2.9,8.3-4.3,15.2-4.3,20.8c0,1.6,0.7,3.9,2.1,6.8c1,2.3,1.7,4.2,1.9,5.6c-0.2,0.2-0.4,0.4-0.6,0.6
		C195.6,600.1,194.5,601.4,193.2,603.1z"/>
	<path class="st1" d="M186.1,554.2c-1.1,1.8-2.1,3.6-3.1,5.7c-2.3,4.9-3.5,9.4-3.5,13.5c0,2.8,0.2,5.5,0.5,8.2
		c-0.6-2.7-0.9-5.4-0.9-8.2c0-5.4,0.7-10.1,2.2-14.2c0.7-1.9,1.6-3.8,2.8-5.8C184.8,553.7,185.4,554,186.1,554.2z M367.5,627.2
		c-0.8,5.1-2.9,9.9-6.2,14.4c-0.8,1-1.6,2-2.4,2.9c-3.4,3.7-7.5,6.7-12.2,8.9c-3.7,1.4-8.1,1.4-13,0c-0.9-0.3-5-2-12.3-5
		c-3-1.2-6.7-3.7-11.3-7.7c-4.6-4.1-8.3-6.7-11.2-7.8c-3.5-1.5-9.1-3.6-17-6.1c0.7-3.3,2.6-7.2,5.4-11.7c3.7-5.8,7.9-10.8,12.8-15.2
		c5.2-4.6,9.4-7,12.8-7.1c3.9-0.1,5.8,3,5.8,9.3c0,1.8-0.2,5.1-0.5,9.9c-0.1,4.6,0.4,8.3,1.4,11.2c3,8.7,11.7,13,25.9,13
		c0.3,0,2.9-1.6,7.7-4.7c4.7-3.1,8.5-4.7,11.2-4.7C365.5,626.9,366.5,627,367.5,627.2z M276.2,569.1c-0.5,0.7-0.9,1.3-1.4,2.1
		c-6.1,9.2-9.1,17-9.1,23.5c0,5.7,1.8,14,5.5,24.9c0.5,1.5,1,3,1.4,4.3c-11.1-3.4-19.6-6.7-25.6-9.9c-9.1-4.9-15.9-8.5-20.5-10.8
		c-8.1-4-15.4-6.1-21.9-6.6c-2.6-0.8-5.1-0.1-7.4,2c-0.3-1.4-0.9-3.3-1.9-5.6c-1.4-3-2.1-5.2-2.1-6.8c0-5.6,1.4-12.5,4.3-20.8
		c0.9-2.6,1.7-4.8,2.3-6.6c0.7,0.3,1.5,0.5,2.3,0.8c6.3,2.3,11.7,3.4,16.1,3.5c16.1,3.5,34,5.4,53.8,5.7
		C273.4,568.9,274.8,568.9,276.2,569.1z"/>
</g>
<g>
	<path class="st4" d="M342.7,463.1c0.5,1.3,1,2.6,1.6,3.9c5.2,11.9,9.3,22.3,12.3,31.2c4,11.4,6.9,22.1,8.7,32.2
		c1.1,5.7,2.1,12.7,2.9,21c0.5,4.7,1.2,11.7,2.1,21.1c0.1,4.5,0,11.1-0.2,19.7c-0.2,8.9-0.3,15.5-0.2,19.8c0.2,4.4-0.9,8.8-3.4,13.2
		c-2.1,3.8-5,7.3-8.8,10.5c-3.9-0.4-7.8-0.4-11.7,0c-3.7-5.7-6.5-10.3-8.5-13.7c-15.1-26.3-22.7-52.2-22.7-77.6
		c0-20.2,5.5-40.6,16.4-61.2c5.5-9.5,9.2-16,11.2-19.5C342.4,463.5,342.6,463.3,342.7,463.1z M339.2,445.6c-2.3,1.9-4.9,4.9-7.9,9
		c-10.3,13.9-18.7,29.9-25.4,47.9c-2.2-2.3-3.5-3.5-3.8-3.8c-1.8-1.5-3.5-2.3-5.1-2.3c-1.5,0-2.8,0.6-3.7,1.9
		c-0.9,1.3-2.2,1.9-3.8,1.9c-1.5,0-2.8-0.6-3.7-1.9c-0.9-1.3-2.2-1.9-3.7-1.9c-3,0-5.1,1.1-6.4,3.3c-1,1.6-1.6,3.7-1.6,6.3
		c-1,8.4-1.6,13.5-1.9,15.4c0-0.1,0-0.1,0-0.2c-0.4-2.2-1.7-4.2-3.8-6c-0.9-0.7-2.9-2.1-5.9-4c-10.5-6.1-17.9-13.5-22.1-22.3
		c-1.6-3.2-2.7-7.1-3.5-11.5c-0.4-2.7-0.8-6.8-1.1-12c-0.2-6.2-0.3-10.7-0.2-13.5c0.1-5,0.7-9.4,1.7-13.3c0.2-8.1,1.5-16.1,3.9-24
		c0.4-1.3,1.3-2.6,2.6-3.9c1.6-1.3,2.8-2.4,3.5-3.1c2-1.8,4.2-5,6.7-9.8c2.4-4.7,4.6-7.9,6.7-9.6c5.4-3.4,12-5.4,20-5.8
		c4.1-0.2,11.1,0.1,21.1,0.8c7.4,0.6,14.2,2.8,20.5,6.6c6.5,4,11.4,9.1,14.7,15.5c0.6,1.6,0.8,3.4,0.5,5.2c2.3,9.8,3,18.7,2,26.8
		C339.2,440.1,339.1,442.8,339.2,445.6z"/>
	<path class="st5" d="M339.2,445.6c0.2,5.9,1.4,11.8,3.5,17.5c-0.1,0.2-0.2,0.4-0.4,0.6c-2,3.5-5.7,10-11.2,19.5
		c-10.9,20.6-16.4,41-16.4,61.2c0,25.4,7.6,51.2,22.7,77.6c1.9,3.4,4.8,7.9,8.5,13.7c-3.8,0.4-7.6,1.3-11.4,2.6
		c-2.9-0.5-6.7-1.5-11.4-3c-5.4-1.6-9.2-2.6-11.4-3.1c-3.7-8.5-8-19.2-12.7-32.3l-11.8-32.7c-3.6-10.1-6.2-17.7-8-22.8
		c-0.2-0.6-0.4-1.1-0.6-1.6c-2.9-8.2-5-15.2-6.5-21.2v0c0.2-1.9,0.8-7,1.9-15.4c0-2.5,0.5-4.6,1.6-6.3c1.3-2.2,3.5-3.3,6.4-3.3
		c1.5,0,2.8,0.6,3.7,1.9c0.9,1.3,2.2,1.9,3.7,1.9c1.6,0,2.9-0.6,3.8-1.9c0.9-1.3,2.2-1.9,3.7-1.9c1.6,0,3.3,0.8,5.1,2.3
		c0.3,0.3,1.6,1.5,3.8,3.8c6.7-18.1,15.2-34,25.4-47.9C334.3,450.5,336.9,447.5,339.2,445.6z"/>
</g>
<g>
	<path class="st6" d="M156.5,885c0.6,0.6,1.3,1.4,2.2,2.3c0,1.6,0.1,3.1,0.3,4.5c0.2,2.1,0.2,5.8-0.1,11c-0.3,4.7-0.1,8.3,0.4,11
		c1.3,7,0.9,14.3-1.2,21.8c-0.4,1.5-1.4,2.7-3,3.5c-1.5,0.8-3.1,1-4.7,0.7c-1.1-0.4-2.2-1.2-3.5-2.1c-1.3-1.3-2.3-2.2-3-2.8
		l-5.1,2.1c-0.4-0.2-2.4-0.9-6.1-2.1c-2.5-0.8-4.2-2.1-5-3.7c-1.2-1.7-3.4-3.4-6.7-5.1c-3.6-1.9-5.9-3.4-7.1-4.5
		c-0.5-1.4-0.9-3.9-1.2-7.7c-0.2-3.2-0.9-5.7-1.9-7.4c-2.2-4.3-3.2-9.5-2.9-15.6c0.1-2.2,0.9-7.5,2.3-15.9c0.1-0.4,0.8-5.3,2.2-14.6
		c0.9-5.9,1.2-10.8,0.9-14.7c-0.3-5.7-0.5-9.9-0.5-12.8c0-5,0.6-9.2,1.9-12.6c0.9-2.7,2.6-5.1,4.9-7c0.3-0.2,0.5-0.4,0.8-0.7
		c1.5,2.9,3.2,5.2,4.9,6.8c-0.4,1.3-0.7,2.4-0.7,3.5c0,1.6,1.6,10.3,4.7,26.1c3.2,17.6,4.8,31.8,4.8,42.5c0,2.7,0.8,5.1,2.3,6.9
		c1.6,2.1,3.9,3.1,6.8,3.1c6.4,0,10.2-2.6,11.4-7.9c0.4-1.6,0.5-3.6,0.4-5.8c-0.3-2-0.4-3.2-0.4-3.5V884v-0.7
		c0.1,0.1,0.3,0.2,0.5,0.5C155.6,884.1,156,884.5,156.5,885L156.5,885z"/>
	<path class="st4" d="M125.5,819.5c-1.7-1.7-3.4-3.9-4.9-6.8c2.1-1.6,4.4-2.6,6.9-3.1c1.9-0.3,4.1-0.2,6.6,0.4
		c1.4,0.3,3.5,0.9,6.3,1.8c0.3-0.7,0.6-1.4,0.9-2.1c1.3-3.2,2.6-6.4,3.8-9.5c0.1,0.4,0.2,0.8,0.3,1.2c0.5,2.1,0.6,4.3,0.4,6.7
		c0,2.7-0.6,5.3-1.9,7.7c-0.2,0.3-0.4,0.7-0.6,1c-0.1,0.1-0.2,0.3-0.2,0.4c-2.4,3.7-5.7,5.6-9.9,5.6c-1.8,0-3.4-0.5-5.1-1.4
		C127.2,820.9,126.3,820.3,125.5,819.5z"/>
	<path class="st7" d="M167.9,730.3c1.6-3.7,3.4-7.3,5.5-10.7c4.7-7.7,10.4-14.2,17.1-19.6c1.4-1.2,4.8-3.6,10-7.2
		c0.4,1.5,1,3.1,1.6,5c2.7,7.8,6,15,10,21.7c5.1,8.5,10.7,15.2,16.8,20c-5.6,6.8-11.4,14.5-17.3,23.1c-1.7,2.5-3.7,5.4-5.9,8.8
		c-2.5-0.8-5.4-1.6-8.6-2.5c-9-3.4-15.8-8.1-20.4-14C171.7,748.5,168.8,740.3,167.9,730.3z M267.1,691.6c-0.8,0.3-1.6,0.5-2.4,0.5
		c-9,0-18.2-1.2-27.7-3.5c-4.8-1.2-11.6-3.3-20.6-6.4c-0.6-0.2-1.1-0.4-1.7-0.6c0.2-0.2,0.4-0.4,0.5-0.6c-0.1-4.2-0.5-8-1.2-11.2
		c-0.9-2.6-0.5-5,1.2-7.3c1.5-2,3.7-3.4,6.4-4.1c4.9-1.6,11-1.7,18.4-0.3c11.7,2.1,17.8,3.2,18.4,3.2c1.9,1.5,4,3.7,6.3,6.5
		c1.3,1.6,3.2,4,5.8,7.1v3C269.5,682.8,268.3,687.4,267.1,691.6z"/>
	<path class="st3" d="M235.8,731.6c-2.2-2-4.5-4.4-7-7.2c-3.3-3.9-6.2-7.8-8.6-11.8c-2.3-3.7-3.5-6.1-3.5-7.3c0-4.3,1.2-7.1,3.5-8.4
		c1.9-1,5.3-1.3,10-0.7c6.5,1.2,11.8,2.1,16,2.7c6.3,1,12.1,1.5,17.5,1.7c-1.4,3.2-2.9,6.1-4.5,8.7c-0.2,0.4-0.5,0.7-0.8,1.1
		l-8.5,8.5c-2.6,2.1-4.7,3.8-6.3,5.1c-2.1,1.7-3.5,2.9-4.1,3.5C238.3,728.8,237.1,730.2,235.8,731.6z M158.7,886
		c-0.8-0.3-1.5-0.6-2.2-1h0c-0.5-0.5-0.8-0.8-1.1-1.1c-0.3-0.3-0.4-0.4-0.5-0.5v0.7c-8.2-5.1-14.8-15.7-20-31.9
		c-2.6-8-4.7-16.7-6.1-26.3c-0.2-1.5-0.4-2.9-0.6-4.3c1.6,0.9,3.3,1.4,5.1,1.4c4.2,0,7.5-1.9,9.9-5.6c0.1-0.1,0.2-0.3,0.2-0.4
		c0.2-0.3,0.4-0.7,0.6-1c0.2-0.4,0.4-0.7,0.5-1.1c1.2,3.1,1.9,5.6,2.2,7.5c2.6,14.1,8.4,24,17.5,29.8c0.2,0.1,0.4,0.2,0.5,0.3
		c-0.9,3.9-1.8,7.9-2.5,11.9c-1.4,5.9-2.3,10.5-2.7,13.7C158.9,880.8,158.7,883.5,158.7,886z"/>
	<path class="st1" d="M267.1,691.6c-1,3.2-2.1,6.2-3.3,9c-5.4-0.2-11.3-0.8-17.5-1.7c-4.2-0.7-9.5-1.6-16-2.7
		c-4.8-0.6-8.1-0.4-10,0.7c-2.3,1.3-3.5,4.1-3.5,8.4c0,1.2,1.2,3.7,3.5,7.3c2.5,4,5.4,7.9,8.6,11.8c2.4,2.8,4.7,5.2,7,7.2
		c-2.2,2.5-4.5,5.1-6.8,7.9c-6.1-4.8-11.7-11.5-16.8-20c-4-6.6-7.4-13.9-10-21.7c-0.6-1.8-1.2-3.5-1.6-5c0.8-0.6,1.7-1.2,2.7-1.9
		c4.9-3.4,8.7-6.5,11.4-9.4c0.5,0.2,1.1,0.4,1.7,0.6c8.9,3.1,15.8,5.3,20.6,6.4c9.5,2.4,18.7,3.5,27.7,3.5
		C265.4,692.1,266.2,691.9,267.1,691.6z M167.9,730.3c0.8,10,3.8,18.2,8.8,24.5c4.6,5.9,11.4,10.6,20.4,14c3.2,0.9,6,1.8,8.6,2.5
		c-5,7.5-11.3,17.1-18.9,28.7c-10,14.7-17.5,32.1-22.4,52.4c-0.2-0.1-0.4-0.2-0.5-0.3c-9.1-5.8-14.9-15.7-17.5-29.8
		c-0.3-1.9-1-4.5-2.2-7.5c-0.2,0.4-0.3,0.7-0.5,1.1c1.3-2.4,1.9-5,1.9-7.7c0.2-2.4,0.1-4.6-0.4-6.7c-0.1-0.4-0.2-0.9-0.3-1.2
		c8.4-21.3,14.5-40.2,18.5-56.5C164.6,739.1,166.1,734.6,167.9,730.3z M158.7,887.3c-0.9-0.9-1.6-1.7-2.2-2.3c0.7,0.4,1.5,0.7,2.2,1
		C158.7,886.4,158.7,886.9,158.7,887.3z M125.5,819.5c0.8,0.8,1.7,1.5,2.6,2c0.2,1.4,0.4,2.8,0.6,4.3c1.4,9.6,3.5,18.4,6.1,26.3
		c5.2,16.2,11.8,26.9,20,31.9v0.2c0,0.3,0.1,1.5,0.4,3.5c0.1,2.3,0,4.2-0.4,5.8c-1.2,5.3-5,7.9-11.4,7.9c-2.9,0-5.2-1-6.8-3.1
		c-1.5-1.9-2.3-4.2-2.3-6.9c0-10.7-1.6-24.9-4.8-42.5c-3.1-15.8-4.7-24.5-4.7-26.1C124.8,821.9,125,820.7,125.5,819.5z"/>
</g>
<g>
	<path class="st8" d="M139,805.5c-2.9,2.3-5.4,5.4-7.6,9.2c-2.4,4.3-3.6,8.5-3.6,12.5c0,25.9,7.6,39.2,22.8,39.8
		c2.1,1.8,4.4,2.8,6.9,3.1c1.5,0.8,3.2,0.6,5-0.5c1.1-0.7,2.9-4.5,5.4-11.5c0.3,1.9,0.5,3,0.6,3.4c1.3,4.4,2.2,8.3,2.7,11.6l3.2,4.5
		c-1.8,1.2-3.4,2.5-4.9,3.8c0.4-0.4,0.9-0.8,1.4-1.2c-1.1-1.1-2.9-2.4-5.2-3.8c-4.7-3-9.7-5.2-15-6.7c-6.2-1.8-11.2-2.1-14.9-0.7
		c-4.5,1.7-6.8,5.7-6.8,11.9c0,0.8-0.1,4-0.4,9.5c-0.1,6.1,0.3,11.4,1.2,16.1c2.6,14.6,9.2,22,19.9,22c3,0,6.4-4.1,10.4-12.2
		c0,3.6,0,8.8,0,15.8c0.1,3.1-0.4,5.7-1.4,7.9c-3.1,1.4-6.8,2.1-11.1,2.1c-13.4,0-23.4-18.4-30.2-55.1c-2.1-11.5-3.8-24.2-5.1-38.1
		c-0.8-11.7-1.2-17.6-1.2-17.7c0-6.5,3.4-14.7,10.3-24.6c-0.4,0-0.8,0-1.2,0c2.3-0.1,5.4-0.4,9.3-0.8
		C133.1,805,136.2,805.1,139,805.5z"/>
	<path class="st9" d="M158.8,939.7c-0.9,2-2.2,3.5-4,4.7c-3.5,2.2-6.2,3.7-8.4,4.5c-3.4,1.2-6.5,1.4-9.5,0.5
		c-6.8-1.6-12.7-5.6-17.8-12c-4.2-5.4-7.5-11.9-9.9-19.5c-1.8-6-2.3-15-1.7-26.9c0.7-12.2,0.3-21.2-1.2-26.9
		c-2.8-10.8-4.5-18.1-5-22c-1.2-8.4-1-15.8,0.9-22.2c1.1-3.9,2.8-7.1,5.2-9.6c2.8-3,6-4.4,9.7-4.1c0.2,0,0.3,0,0.5,0h2.8
		c0.4,0,0.8,0,1.2,0c-6.9,10-10.3,18.2-10.3,24.6c0,0.1,0.4,6,1.2,17.7c1.2,13.9,2.9,26.6,5.1,38.1c6.7,36.8,16.8,55.1,30.2,55.1
		C152,941.8,155.7,941.1,158.8,939.7z M169.5,881.3c-5.9,5.2-9.1,11-9.8,17.4c0,0.1,0,0.2,0,0.2c0,0.1,0,0.1,0,0.2
		c0,0.2,0,0.4,0,0.6c0.4,4.3,0.6,9.6,0.6,16c0,0.1,0,0.2,0,0.3c-4,8.1-7.5,12.2-10.4,12.2c-10.7,0-17.3-7.3-19.9-22
		c-0.8-4.6-1.2-10-1.2-16.1c0.2-5.5,0.4-8.7,0.4-9.5c0-6.2,2.3-10.1,6.8-11.9c3.7-1.4,8.7-1.1,14.9,0.7c5.3,1.5,10.3,3.7,15,6.7
		c2.3,1.5,4,2.7,5.2,3.8C170.4,880.5,170,880.9,169.5,881.3z M150.6,867c-15.2-0.7-22.8-13.9-22.8-39.8c0-4,1.2-8.1,3.6-12.5
		c2.2-3.8,4.7-6.9,7.6-9.2c1.5,0.2,2.9,0.6,4.3,1c-1.4,4.3-3.5,6.7-6.3,7.4c2.6,5.9,4.5,13.4,5.7,22.5c0.7,5.1,1.5,12.8,2.6,23
		c1.2,2.9,2.8,5.2,4.7,7c0.1,0.1,0.1,0.1,0.2,0.1C150.3,866.7,150.4,866.9,150.6,867L150.6,867z"/>
</g>
<path class="st10" d="M135,876.5c3.3-0.2,7.1-0.1,11.6,0.5c2.6,0.4,6.4,1,11.5,1.9c4.8-1.5,8.3-2.5,10.4-2.9l2.6-2.9l3.2,4.5
	c-9.3,6.4-14.3,13.9-14.8,22.3l-7.9,4.4l7,1c-1.1,2.6-2.8,3.8-5,3.8c-3.6,0.5-6.5,0.8-8.7,0.7c-3.2-0.1-6-0.8-8.4-2
	c1.1-0.5,4.2-1.8,9.2-3.7l-7.1-1.9c2.4-4.8,4.4-10,6-15.4c-7-0.1-12.2-0.1-15.7-0.3c-6.2-0.2-11.4-1-15.6-2.1
	c8.5-0.7,16.3-1,23.5-0.9l-7.4-4c1.3-1.1,2.2-1.7,2.6-2C133,876.8,134,876.5,135,876.5z"/>
<g>
	<path class="st6" d="M280.6,512.1c-0.8-1.6-1.7-3.3-2.6-4.9c-8-14.3-18.1-27.4-30.5-39.5c-11.4-11.1-21.6-18.4-30.5-21.7
		c-9.2-3.5-13.8-1.5-13.8,6.1c0,1.1,6.3,6.5,19,16.3c14.7,13.1,26.4,27.7,35,44c1.4,2.6,6,14.4,13.8,35.2c2.3,6.2,4.4,11.2,6.2,15.1
		c-1.2,15-1.5,31.4-0.8,49.2c0.5,10.2,0.1,21.3-1.2,33.3c-1,8.8-2.7,19.8-5,33c-7.1-0.6-12.7,0.2-16.6,2.5c-3.3,2.1-7.2,2.4-11.6,1
		c-2.7-0.8-6.3-2.7-11-5.5c-4.4-1.1-7.8-2-10-2.6c-4-1.2-6.4-3.3-7.3-6.3c-3.3-17.3-6-36.8-7.9-58.6c-1.3-13.8-2.6-33.6-3.9-59.2
		c0.2-6-0.9-21.1-3.3-45.3c-1.8-18.6-1.4-33.6,1.2-45.1c3-11.7,5.1-19.5,6.4-23.3c2.9-8.6,6.3-15.9,10.3-21.7
		c1.8,4.1,4.6,7.8,8.6,11.1c2.7,2.3,6.7,4.9,11.9,7.8c2.8,1.8,6.7,3,11.8,3.7c7.1,1,11.2,1.6,12.3,1.9c1.3,0.4,4.6,0.9,9.7,1.4
		c4.1,0.4,7.1,1.4,9.2,2.8c0.6,3,1.3,7.8,2,14.4c0.7,6.3,1.4,11,2.1,14.3c0.1,0.9,0.6,1.9,1.5,2.9c0.5,0.5,1.2,1.4,2.2,2.5
		c-1.7,8.6-2.8,19.5-3.3,32.8C283.9,510.1,282.5,511,280.6,512.1z"/>
	<path class="st4" d="M277.3,562.6c-1.8-3.8-3.9-8.9-6.2-15.1c-7.8-20.9-12.5-32.6-13.8-35.2c-8.6-16.2-20.3-30.9-35-44
		c-12.7-9.8-19-15.2-19-16.3c0-7.6,4.6-9.6,13.8-6.1c8.9,3.3,19,10.6,30.5,21.7c12.3,12.1,22.5,25.3,30.5,39.5
		c0.9,1.6,1.8,3.3,2.6,4.9c-0.1,0-0.1,0.1-0.2,0.1c-1.6,1.2-2.3,2.6-2.1,4.1c0.4,11.8,0.6,18.2,0.6,19.2c0.1,7.2-0.2,13.6-0.8,19.1
		c0,0.4-0.1,0.8-0.1,1.3C277.7,558.1,277.5,560.4,277.3,562.6z"/>
</g>
<g>
	<path class="st5" d="M490.8,359.6l0-0.5c1.7-0.6,4.6,0.3,8.7,2.4c1.1-1.6,3.1-2.3,5.9-2.2c4,0.2,9.1,2,15.6,5.5
		c5.3,2.9,10.3,6.1,14.8,9.8l0,0c-0.2-0.1-0.4-0.2-0.6-0.3l-0.4-0.2c0,0-0.1,0-0.1,0c-2.9-1.9-5-3.2-6.6-4c1,1.1,3.1,2.9,6.2,5.4
		c2.6,2.1,4.6,4,5.8,5.6c-0.3,2.8-1.9,4.3-4.6,4.4c-2.2-0.3-4.7-1.5-7.4-3.5c-3.9-2.9-6.1-4.4-6.8-4.8c-2.4-1.3-5-3.3-8-6.3
		c-4.2-4.1-6.6-6.4-7.3-7c0,0.5,0.1,1,0.2,1.6c0.2,1.5,0.5,3.4,0.9,5.8c-3.6,1.4-6.7-0.3-9.1-5c-0.2-0.3-0.3-0.6-0.5-0.9
		c-0.1-0.1-0.2-0.3-0.2-0.4l-5.6-5.5C491.3,359.7,491.1,359.7,490.8,359.6z"/>
	<path class="st2" d="M535.7,374.8c-4.5-3.7-9.5-7-14.8-9.8c-6.4-3.5-11.6-5.4-15.6-5.5c-2.8-0.1-4.7,0.6-5.9,2.2
		c-4.1-2.2-7-3-8.7-2.4l0,0.5c-0.4,0-0.8,0-1.2,0c-1.9,4.1-1.6,8.7,0.8,13.8c1.4,2.9,3.9,7.1,7.5,12.4c1.5,2,2.1,4.3,1.8,6.8
		c-0.3,2.7-1.7,4.4-4.1,5.1c-2.6,0.7-5-0.2-7.2-2.5c-1.2-1.4-2.6-3.7-4.2-7c-1.6-4.6-5.2-10.6-10.9-18.1c-5.7-7.6-9.4-13.7-11-18.2
		c-2.4-6.3-5.4-11.4-9.1-15.2c-3.5-2.1-7.8-4.3-12.9-6.3c-6-2.3-10.5-4.1-13.4-5.3c-5.2-2-11.2-4.4-17.9-7.4
		c-1.3-0.5-7.2-3.2-17.5-8c-4.5-2-9.7-5-15.6-8.8c-6.6-4.4-11.6-7.7-14.9-9.9c-3-1.9-5.3-3.8-6.8-5.5c-2.2-2.5-3.2-5.1-3-7.8
		c0.2-2.6,1.3-5.1,3.5-7.5c1.3-1.4,3.3-3.4,6.1-5.8c1.6-1.5,3.9-3.9,6.9-7.3c2.7-2.8,5.5-4.6,8.3-5.3c1-0.3,2.2-0.2,3.5,0.4
		c0.8,0.3,1.9,0.8,3.3,1.6c3.9,2.4,8.2,5.5,12.8,9.4c2.7,2.3,6.8,5.7,12,10.4c5.9,5.4,13.5,11.6,22.7,18.6c5.2,3.9,13,9.7,23.5,17.5
		c2.1,1.6,6,4.1,11.4,7.5c5,3.1,8.7,5.7,11.2,7.8c2.9,2.5,7.4,5.4,13.6,8.6c6.6,3.5,11.3,6.3,13.9,8.2c2,1.5,5.6,3.7,10.9,6.3
		c4.8,2.5,8.3,4.7,10.5,6.8c7.3,6.7,13.3,11.6,18.1,14.8c1.6,0.7,2.2,2,1.6,3.8c-0.6,1.8-1.7,2.7-3.4,2.7
		C540,376.4,538,375.9,535.7,374.8z"/>
</g>
<g>
	<path class="st4" d="M251.2,159.5c-0.1,0-0.3,0.1-0.4,0.1c4.1,4.7,9.8,11.1,17.2,19.2c18.1,20,29.2,33.1,33.2,39.4
		c3.3,5.1,10.4,18.6,21.2,40.6c0.3,0.6,0.6,1.3,0.9,1.9c-4.8-3.6-7.9-6-9.3-7.1c-13.8-10.5-25.8-22.6-36.1-36.2
		c-3.2-4.4-4.8-8.3-4.7-11.7c-6.4-2.7-12.1-4.7-17-6.2c-6-1.5-10.7-5.7-14.2-12.6c-0.3-4-0.3-10,0.2-18.1c0.1-2.4,1.2-4.5,3.1-6.3
		C247,161,248.9,160,251.2,159.5z"/>
	<path class="st5" d="M323.3,260.7c-0.3-0.6-0.6-1.2-0.9-1.9c-10.8-22-17.9-35.5-21.2-40.6c-4-6.3-15.1-19.5-33.2-39.4
		c-7.4-8.1-13.1-14.5-17.2-19.2c0.1,0,0.3-0.1,0.4-0.1c0.2,0,0.3-0.1,0.5-0.1c0.1,0,0.1,0,0.2,0c7.4-2.2,14.1-3.4,20.2-3.7
		c7.4-0.4,14.1,0.5,20.1,2.9c7.1,2.3,13.4,6.5,18.9,12.8c4.9,5.7,8.7,12.3,11.3,19.9c1.7,5.3,4.9,11,9.5,17c0.1,0.1,0.2,0.2,0.2,0.3
		c0.1,0.1,0.1,0.2,0.2,0.2c2.1,2.7,5,6.4,8.7,10.9c0.3,0.3,0.5,0.7,0.8,1c4.8,17,8.5,34.1,10.9,51.3c0,2.9-0.9,5.7-2.6,8.5
		c-0.4,0.5-0.7,1.1-1.1,1.5c-0.3-0.2-0.5-0.5-0.8-0.7c-2-1.8-4.3-3.9-6.9-6.5c-0.1-0.1-0.2-0.2-0.2-0.2c-3.3-2.9-7.7-6.4-13.3-10.6
		c-1-0.7-1.9-1.4-2.7-2.1C324.3,261.5,323.8,261.1,323.3,260.7L323.3,260.7z"/>
	<path class="st2" d="M348,281.3c0.3,0.2,0.6,0.5,0.8,0.7c0.4-0.5,0.8-1,1.1-1.5c1.8-2.8,2.6-5.6,2.6-8.5
		c-2.5-17.1-6.1-34.2-10.9-51.3c-0.3-0.3-0.6-0.7-0.8-1c1,1.2,2.1,2.5,3.2,3.9c3.7,4.8,6.9,8.6,9.5,11.2c3.7,3.8,7.5,6.9,11.4,9.1
		c1.4,0.9,4.3,2.5,8.6,4.6c3.6,1.9,6.4,3.5,8.3,5c0.8,1,1,2.3,0.6,3.9c-0.2,0.9-0.6,2.3-1.1,4c-0.2,1-1,4-2.4,8.8
		c-1,3.6-1.5,6.6-1.5,9c0.4,3.8-1,7.1-4.3,9.9c-3.3,2.7-6.8,3.4-10.5,1.9c-3.8-1.6-7.7-4-11.6-7.2
		C350.1,283.1,349.1,282.3,348,281.3z"/>
</g>
<g>
	<path class="st3" d="M271.2,151.6c-6.1,0.3-12.8,1.6-20.3,3.9c-0.1,0-0.2,0-0.3,0c-0.1,0-0.3,0-0.4,0.1c-0.5,0.1-0.9,0.2-1.4,0.4
		c0.5,0.4,1.1,0.9,1.8,1.4c9,7.1,14.8,11.7,17.5,13.9c18.5,15.1,31.6,28.2,39.3,39.4c3.8,5.5,7.4,12.1,10.7,20
		c1.9,4.4,4.4,10.7,7.4,18.8c2.6,6.5,5.1,11.2,7.3,14c0.6,0.8,1.3,1.5,1.9,2.1c1.4-0.7,2.8-1.5,4.2-2.6c0,0,0.1-0.1,0.2-0.1
		c1-0.8,2-1.6,3-2.6c0,0,0,0,0.1-0.1c0,0,0,0,0.1-0.1c0,0,0.1-0.1,0.2-0.2c0.7-0.7,1.5-1.5,2.2-2.4c0,0,0.1-0.1,0.1-0.1
		c0,0,0.1-0.1,0.1-0.1c2-2.3,3.7-4.6,5-7c-2-10.6-7.3-22.5-15.9-35.7c-9.7-14.9-22-29.1-36.9-42.7
		C287.6,163.2,279,156.4,271.2,151.6z"/>
	<path class="st1" d="M271.2,151.6c7.8,4.9,16.4,11.6,25.8,20.3c14.9,13.6,27.2,27.9,36.9,42.7c8.7,13.2,14,25.1,15.9,35.7
		c2.8-5,4.2-10.2,4.2-15.7c0-1.5-0.5-3.9-1.6-7c-1.6-1.9-3.3-4-5.1-6.5c-0.1,0-0.1-0.1-0.1-0.1c-1.1-1.4-2.2-2.7-3.2-3.9
		c-3.7-4.5-6.5-8-8.6-10.7c-0.1,0-0.2-0.1-0.2-0.3c-0.1-0.1-0.2-0.2-0.3-0.3c-4.3-5.6-7.2-10.9-8.8-15.8v-0.1
		c-2.8-8.1-6.8-15.2-12.1-21.3c-6-6.8-12.8-11.4-20.4-13.8c-6.5-2.6-13.8-3.7-21.8-3.2h-0.1C271.5,151.5,271.3,151.6,271.2,151.6z
		 M334.8,265.4c-0.7-0.6-1.3-1.3-1.9-2.1c-2.2-2.8-4.6-7.5-7.3-14c-3-8.1-5.5-14.4-7.4-18.8c-3.3-7.9-6.9-14.5-10.7-20
		c-7.8-11.2-20.9-24.3-39.3-39.4c-2.7-2.2-8.5-6.9-17.5-13.9c-0.6-0.5-1.2-0.9-1.8-1.4c-2.3,0.7-4.4,1.9-6.3,3.6h-0.1
		c-2.9,2.6-4.4,5.7-4.4,9.2c-0.5,8.3-0.5,14.5-0.2,18.6c0,0.5,0.2,1.1,0.5,1.6c4.1,8.1,9.8,13,16.9,14.7c4.1,1.2,8.8,2.8,14,5
		c0.5,3.5,2.3,7.3,5.3,11.4c10.5,13.9,22.8,26.3,36.9,37h0.1c1.4,1.1,4.4,3.4,9,6.8c0.1,0.1,0.3,0.2,0.4,0.3
		c0.4,0.3,0.9,0.7,1.4,1.1l0.1,0.1c0.7,0.6,1.6,1.2,2.5,1.8c0.8,0.1,1.6,0.1,2.5,0.1C329.9,267.2,332.3,266.6,334.8,265.4z"/>
</g>
<g>
	<path class="st6" d="M338.6,329.1c-0.9-0.4-1.8-0.7-2.8-1c-8.2-2.4-18.5-1.2-30.9,3.5c-12,4.6-22.3,11-30.9,19.2
		c-9.3,8.9-14,17.6-14,26.1c0,1.9,0.2,3,0.6,3.3c0.2,0.2,0.6,0.5,1.2,0.9l0.3,0.4c0.7,0.3,1.9,0.5,3.9,0.5c6.4,0,22-5,46.8-14.9
		c8-3.2,14.8-6,20.2-8.4c-0.2,5.6,0.1,12,1.1,19.2c1.5,11.8,2.5,20.5,3,25.9l2.3,16.5l-2.4,2.9c-2.9,2.4-5.9,4.7-9,6.8
		c-1,4.2-2.3,9.6-3.7,16.1c-2.2,8.2-4.4,15.1-6.5,20.7c-3.9,10.3-6.1,16.3-6.7,18c-2.2,7-5.4,12.6-9.3,16.8c-0.6,0.7-1.3,1.4-2,2.1
		c-1.5,1.5-3.1,2.8-4.8,4c-1,0.7-2,1.3-3,1.8c-3.8,2-7.8,3.2-12,3.5l4.6-3.6c0-0.6,0.1-1.1,0.1-1.6c0.7-13.5,0-28.4-1.9-44.5
		c-0.3-1.9-0.5-3.9-0.7-6.2c-0.4-3.7-0.8-6.8-1.2-9.3c-4.5,0.6-9.1,1.1-13.7,1.5c-11,0.7-20.2-0.7-27.6-4.1
		c-9.6-4.2-16.3-8-20.2-11.2c-3.9-3.3-5-7.9-3.3-14c0.6-2,1-3.8,1.4-5.4c0-0.1,0-0.2,0-0.2c0.6-2.3,1.1-4.4,1.6-6.5
		c1.4-6.1,2.3-11.3,2.8-15.6c1-8.2,0.9-15.7-0.4-22.5c-1.4-8.7-3.2-16-5.4-22c-2.7-7.8-6.4-14.3-11-19.6
		c-8.2-5.3-14.2-9.2-18.1-11.8c0.6,0.4,1.3,0.9,2.1,1.4c3.6,1.2,7.3,2.2,11,3.1c5.3,1.3,14.2,7.6,26.8,18.8
		c6.3,5.6,12.2,11,17.7,16.3c3.1,0,5.5-1.1,7.2-3.2c1.6-2,2.4-4.8,2.4-8.5c0-13.4-2.4-24.2-7.3-32.1c-2-3.3-5.1-7.1-9.1-11.5
		c5-2.3,10.6-5.8,17-10.3c10.8-7.7,18-13.8,21.5-18.3c1-1.4,5-2.5,11.8-3.5c11.5-1.6,18.4-2.6,20.6-3c9.9-2,17.2-5.2,21.9-9.5
		c0.7,3.7,1.4,6.6,2.1,8.8c2.4,7.8,4.3,14.5,5.5,20c1.6,7.4,2.5,14.2,2.7,20.6c0.4,6.2-0.1,13.2-1.4,20.9
		C339,327.2,338.9,328.1,338.6,329.1z"/>
	<path class="st5" d="M190,166.9c1.3,0.7,2.8,1.6,4.4,2.8c8.6,5.8,13.1,8.8,13.5,9.1c5.5,3.3,10,4.9,13.6,4.9c1.5,0,3.7-1.5,6.4-4.5
		c2.7-3.1,5.1-4.7,7.2-4.9c0.8,0.3,1.8,0.5,3,0.5c0.8,0.3,1.2,1.3,1.2,3.2c0,4.8-2,9.1-6.1,12.8c-5.2,4.6-12.6,6.9-22.4,6.9
		c-0.7,0-4.7-0.9-11.9-2.8c-7.2-1.9-10.8-2.8-10.9-2.8c-1.2,0-3.7,0.9-7.5,2.6c-0.3,0.1-0.5,0.2-0.8,0.4c0.2-0.3,0.4-0.7,0.7-1
		l7.1-16.8c0-0.1,0.1-0.2,0.1-0.3c0.2-0.5,0.3-1.1,0.4-1.6c0-0.2,0.1-0.4,0.1-0.6c0-0.2,0.1-0.4,0.1-0.5c0-0.2,0.1-0.3,0.1-0.5
		c0.1-1.5,0.3-2.9,0.8-4.3c0-0.1,0.1-0.2,0.1-0.3C189.3,168.2,189.6,167.6,190,166.9z"/>
	<path class="st11" d="M330.2,256c-4.7,4.3-12,7.5-21.9,9.5c-2.2,0.4-9.1,1.5-20.6,3c-6.8,0.9-10.7,2.1-11.8,3.5
		c-3.5,4.5-10.7,10.6-21.5,18.3c-6.4,4.5-12,7.9-17,10.3c-4.7,2.3-8.8,3.5-12.2,3.8c-0.5,0-1,0-1.4,0c-5.2,0-9.8-2.6-13.7-7.8
		c-2.6-3.3-5.7-9.1-9.3-17.5c-3.9-9.1-6.9-15.3-9.1-18.7c-0.4-0.6-0.7-1.1-1.1-1.6c-3.6-5.1-7.7-8.2-12.2-9.3l-0.7-0.4
		c-0.5-0.3-0.7-1.4-0.7-3.3c0-5,8.8-10,26.3-15.1c16.1-4.6,30.2-6.9,42.2-6.9c2.5,0,5.8-3.7,9.9-11c4.7-8.5,8.6-13.7,11.6-15.6
		c2.4-1.5,5.9-4.2,10.4-8.2c4.4-3.7,7.6-6.3,9.7-7.9c2.1,1.6,4,3.3,5.7,5.1c1.7,1.7,3.2,3.5,4.6,5.4c0.1,0.1,0.2,0.3,0.3,0.4
		c0.1,0.1,0.1,0.2,0.2,0.2c0.1,0.1,0.2,0.2,0.2,0.3c0.2,0.3,0.3,0.5,0.5,0.7c13.8,12,22.9,25,27.1,38.9c1.1,3.5,2.2,8.9,3.2,16.3
		c0,0.2,0.1,0.4,0.1,0.6C329.4,251.7,329.8,253.9,330.2,256z"/>
	
		<linearGradient id="SVGID_1_" gradientUnits="userSpaceOnUse" x1="165.7216" y1="314.8839" x2="174.1482" y2="337.9313" gradientTransform="matrix(1.6465 0 0 1.6468 19.6832 -183.1212)">
		<stop  offset="0" style="stop-color:#AE5B3A"/>
		<stop  offset="1" style="stop-color:#DA825F"/>
	</linearGradient>
	<path class="st12" d="M333,358.8c-5.4,2.4-12.1,5.2-20.2,8.4c-24.8,9.9-40.4,14.9-46.8,14.9c-1.9,0-3.2-0.2-3.9-0.5l-0.3-0.4
		c-0.6-0.4-1-0.7-1.2-0.9c-0.4-0.3-0.6-1.4-0.6-3.3c0-8.5,4.7-17.2,14-26.1c8.6-8.2,18.9-14.6,30.9-19.2c12.3-4.7,22.6-5.9,30.9-3.5
		c1,0.3,2,0.6,2.8,1c0,0.1,0,0.1,0,0.2l-3.9,17.6c-0.1,0.5-0.2,0.9-0.4,1.4c0,0.1-0.1,0.2-0.1,0.3l-1.1,7.4
		C333.1,356.9,333.1,357.8,333,358.8L333,358.8z"/>
	
		<linearGradient id="SVGID_2_" gradientUnits="userSpaceOnUse" x1="104.9217" y1="282.1416" x2="120.8361" y2="312.8965" gradientTransform="matrix(1.6465 0 0 1.6468 19.6832 -183.1212)">
		<stop  offset="0" style="stop-color:#AE5B3A"/>
		<stop  offset="1" style="stop-color:#DA825F"/>
	</linearGradient>
	<path class="st13" d="M237.5,300.6c4.1,4.4,7.1,8.3,9.1,11.5c4.9,8,7.3,18.7,7.3,32.1c0,3.7-0.8,6.5-2.4,8.5
		c-1.6,2.1-4,3.2-7.2,3.2c-5.5-5.3-11.4-10.7-17.7-16.3c-12.6-11.2-21.5-17.5-26.8-18.8c-3.7-0.9-7.3-2-11-3.1
		c-0.8-0.5-1.5-0.9-2.1-1.4c-1.9-1.3-3.3-2.2-4.2-2.8c-8.2-5.8-15.1-11.5-20.6-17c-2.6-3.6-4.6-7.6-6-11.9c2.4-1.9,5.4-4.1,8.8-6.6
		c13.2-9.5,19.9-14.3,20-14.4c2-2.1,3.9-3.6,5.7-4.7c0.4,0.5,0.7,1.1,1.1,1.6c2.1,3.3,5.2,9.6,9.1,18.7c3.6,8.3,6.7,14.2,9.3,17.5
		c4,5.2,8.5,7.8,13.7,7.8c0.5,0,0.9,0,1.4,0C228.7,304.1,232.8,302.8,237.5,300.6z"/>
	<path class="st2" d="M190.7,258.9c-1.8,1.1-3.7,2.7-5.7,4.7c-0.1,0.1-6.8,4.9-20,14.4c-3.5,2.5-6.4,4.7-8.8,6.6
		c-0.7-2-1.2-4.1-1.6-6.3c-2.9-10.9-4.9-19.2-6.1-24.7c-2-9.7-2.4-18-1.2-25.1c3.7-10.3,8.9-16,15.8-17.2c5-3.1,9.3-7,13.1-11.6
		c1.2-1.5,2.3-3,3.4-4.6c0.2-0.4,0.5-0.7,0.7-1.1c-0.2,0.3-0.4,0.7-0.7,1c0.3-0.1,0.5-0.2,0.8-0.4c3.8-1.7,6.3-2.6,7.5-2.6
		c0.1,0,3.8,0.9,10.9,2.8c7.2,1.9,11.2,2.8,11.9,2.8c9.8,0,17.2-2.3,22.4-6.9c4.1-3.7,6.1-7.9,6.1-12.8c0-1.9-0.4-2.9-1.2-3.2
		c-1.2,0-2.2-0.2-3-0.5c-2,0.2-4.4,1.8-7.2,4.9c-2.7,3-4.9,4.5-6.4,4.5c-3.6,0-8.1-1.6-13.6-4.9c-0.4-0.3-4.9-3.3-13.5-9.1
		c-1.6-1.1-3.1-2-4.4-2.8c1.4-2.9,3.7-5.5,6.9-7.9c3.1-2.4,8.4-5.2,15.7-8.3c4.9-2.2,10.1-2.2,15.6,0.1c4.9,2,9.1,5.4,12.5,10
		c1.3-0.1,3.2-0.2,5.8-0.6c2.3-0.3,4.2-0.2,5.7,0.1c1.9,1,5,2.9,9.4,5.8c3.9,2.6,7.1,4.4,9.6,5.5c6.2,2.8,11.6,6,16.1,9.6
		c-2.1,1.6-5.4,4.2-9.7,7.9c-4.5,4-8,6.7-10.4,8.2c-3,2-6.9,7.2-11.6,15.6c-4.1,7.4-7.4,11-9.9,11c-12,0-26.1,2.3-42.2,6.9
		c-17.5,5-26.3,10.1-26.3,15.1c0,1.9,0.2,3,0.7,3.3l0.7,0.4C183,250.7,187,253.8,190.7,258.9z"/>
</g>
<g>
	<path class="st6" d="M102.8,295.7c10.6-9.9,21.1-18.1,31.7-24.5c13.1-8,23.4-10.9,30.9-8.9c8.5,2.3,13.1,11,13.9,26.1
		c-4.1,3.5-8.9,6.1-14.6,8c-0.4,0-0.8-0.1-1.2-0.2c-2.9-2.5-5.8-6.2-8.9-11c-3.3-5.4-5.9-9.4-7.7-11.9c-4,1.2-8.6,3.3-13.8,6.6
		c-10.4,5.8-17.7,9.7-21.9,11.8l-7.5,3.5C103.4,295.5,103.1,295.6,102.8,295.7z"/>
	<path class="st7" d="M179.3,288.5c-0.8-15.1-5.4-23.8-13.9-26.1c-7.5-2-17.8,0.9-30.9,8.9c-10.6,6.4-21.2,14.6-31.7,24.5
		c-5.1,2.3-9.9,4.1-14.4,5.6c-18.1,5.7-34.1,9.8-48.2,12.5c-6.8,1.8-11.8,3-15.2,3.6c-6.1,1-11.2,0.5-15.3-1.6
		c-2.5-1.2-4.6-3.3-6.3-6.3c-0.7-1.3-1.8-4.2-3.4-8.6c0.7-4.6,2.4-8.8,5.3-12.7c3-4,6.6-6.8,10.8-8.5c1.4-0.6,4.3-1.9,8.9-3.8
		c1,1.5,1.8,3.1,2.5,4.9c8.9-2.1,18.8-6,29.6-11.7c6.3-3.3,15.6-8.6,27.9-15.8c10.2-6.3,17.8-12.4,22.9-18.4
		c9.7-11.1,19.3-18.4,28.8-22c5.2-2.1,11.1-3.2,17.9-3c2.9,0,6.3,0.3,10.1,0.8c23.7,5.9,33.3,22.8,28.6,50.7
		C191.4,273.2,186.7,282.2,179.3,288.5z"/>
</g>
<path class="st14" d="M180.2,162.2c-6.1-2.2-10.3-3.9-12.4-5.1c-4.4-2.6-7.2-5.8-8.5-9.8c-0.7-2.1-0.2-3.9,1.6-5.5
	c1.6-1.5,3.6-2.2,5.8-2.1c2.5,0.1,4.9,0.9,7.3,2.6c1.6,1.2,3.5,3,5.7,5.5l2.7,3.2c2.2,2.5,4.4,4.7,6.7,6.4
	C186.5,161.9,183.5,163.4,180.2,162.2z"/>
<path class="st15" d="M223,90.2c5.7,6.9,9.6,14.7,11.8,23.5c-3.2-0.1-6.3-1.5-9.1-4.2c-1.5-1.5-3.6-4.3-6.2-8.2
	c-1.3-2-2.2-4.6-2.7-7.9c-0.3-3.8-0.6-6.6-1-8.5C217,85.8,219.4,87.5,223,90.2z"/>
<path class="st16" d="M213.5,415c1.9-3,3.8-5.6,5.6-7.8c-0.3,2.4-1.4,6.7-3,12.7c-1.7,6.1-0.6,10.7,3.3,14c3.9,3.3,10.7,7,20.2,11.2
	c7.4,3.4,16.6,4.8,27.6,4.1c6.3-0.5,12.5-1.2,18.7-2.3c6.3-1,12.2-2.6,17.9-4.9c0.7-0.3,1.5-0.6,2.2-0.9c1.7-0.6,3.3-1.3,4.9-2
	c9.4-4,18.1-9.3,26-15.9l2.4-2.9l-1.6-7.9c0.7,0.9,1.5,1.9,2.2,2.8c0.8,1,1.2,2.5,1.2,4.3c0,1,0,2.5-0.1,4.4c0,0.3,0.2,4.8,0.5,13.5
	c0.2,5.4-0.2,9.9-1.3,13.3c-0.9,3.3-2.8,7.4-5.6,12.4c-3.3,5.9-5.4,9.9-6.3,12.2c-0.9,2.1-3.5,6.3-7.7,12.4c-3.5,5-5.5,9.3-6.2,13
	c-1.4,5.4-2.9,9.5-4.6,12.4c-2.6,4.3-6,6.9-10.1,7.6c-3.6,0.9-7.8,0.3-12.8-1.8c-1.9-0.8-3.6-1.5-5-2.1l-3.5-1.4
	c-6.4-24.7-20.8-43-43.3-54.9c-1.2-0.6-2.3-1.2-3.5-1.7c-1.5-0.8-3.2-1.5-4.9-2.1c-1.8-0.7-3.6-1.3-5.5-1.8
	c-1.7-0.3-3.4-0.5-5.2-0.6c-1.6,0.2-3.1,0.8-4.6,1.6c-11.1,6.4-15.4,22.2-12.9,47.3c-4-17.3-3.4-34.7,1.8-52
	c0.1-0.4,0.2-0.8,0.3-1.2c3.3-10.9,6-18.9,7.9-24.1C210.5,420.9,212.1,417.3,213.5,415z"/>
<g>
	<path class="st17" d="M272.9,538.2c0.6-6.1,2.3-13,5.1-20.7c3.5-9.8,5.3-14.8,5.3-15c0-1.2-0.5-2.3-1.6-3.4c-1.1-1-1.6-2.1-1.6-3.4
		c0-1,0.7-3.8,2-8.1c1.3-4.4,2-8,2-10.7c0-2,0.6-3.8,1.8-5.4c0.6-0.8,2.4-2.7,5.6-5.8c-2.3-1.8-4-3.4-5-4.8
		c-0.6-0.9-0.9-1.6-0.9-2.2c0-3,7.4-9.4,22.1-19.2c5.8-3.9,14.2-9.1,25-15.6c2.3-1.4,5.8-3.6,10.6-6.7c-0.4-2.3-0.8-4.6-1.3-7
		c0.2-2.3-0.1-4.4-0.8-6.5c-0.1-0.2-0.1-0.3-0.2-0.5c-3.8-7-9.2-12.7-16.3-17v-0.1c-6.8-4.1-14.2-6.5-22.3-7.2
		c-10.2-0.8-17.4-1-21.6-0.8h-0.1c-8.7,0.5-16,2.7-21.9,6.6c-0.3,0.1-0.4,0.2-0.5,0.3c-2.4,2-4.9,5.6-7.6,10.9
		c-2.2,4.2-4.1,7.1-5.8,8.6c-0.1,0.1-0.2,0.2-0.2,0.3c-0.7,0.7-1.7,1.6-3.1,2.7c-0.1,0-0.2,0.1-0.3,0.1c-2,1.9-3.3,3.8-3.8,5.8
		c-2.5,8-3.8,16.2-4,24.4c-1.1,4-1.7,8.6-1.8,13.8c-0.1,2.8-0.1,7.4,0.1,13.8v0.1c0.3,5.4,0.6,9.6,1.1,12.4
		c0.8,4.9,2.1,9.1,3.8,12.7c4.5,9.5,12.4,17.5,23.7,24.1l-0.1-0.3c2.9,1.9,4.8,3.2,5.6,3.8l-0.2-0.1c1.3,1.2,2.2,2.4,2.4,3.7
		c0,0.1,0,0.1,0.1,0.2l-0.1-0.1c0,0.1,0,0.2,0.1,0.3C269.4,527,270.9,532.3,272.9,538.2z"/>
	<path class="st18" d="M337.1,641.7c9-0.1,18-2.3,27-6.5c2.5-2.6,4.5-5.3,6-8.1v0.1c2.8-5.1,4.1-10.1,3.9-15.2c0,0,0-0.1,0-0.2
		c0-4.2,0-10.7,0.2-19.5c0.3-8.6,0.4-15.2,0.2-19.8c0-0.1,0-0.2,0-0.2c-0.9-9.4-1.6-16.5-2.1-21.2c-0.8-8.5-1.8-15.6-2.9-21.3
		c-1.8-10.3-4.8-21.2-8.8-32.8c-3.1-9-7.3-19.5-12.5-31.5c-0.5-1-0.9-2.1-1.3-3.1c-5.8,7.4-9.9,12.9-12.4,16.4
		c-16.6,23.1-24.9,42.2-24.9,57.3c0,11.2,5.3,33.8,15.9,67.8c6.1,19.5,9.8,31.4,11,35.5C336.6,640.1,336.8,640.9,337.1,641.7z"/>
	<path class="st19" d="M272.9,538.2c0.6,1.9,1.2,3.8,1.9,5.8c0.2,0.5,0.4,1,0.6,1.6c1.8,5.1,4.4,12.7,8,22.8l11.8,32.7
		c4.8,13.2,9.1,24,12.9,32.5c0.2,0.5,0.5,1,1,1.5c9.3,4.4,18.7,6.6,28,6.5c-0.3-0.8-0.5-1.6-0.7-2.4c-1.2-4.2-4.9-16-11-35.5
		c-10.6-34-15.9-56.6-15.9-67.8c0-15.2,8.3-34.3,24.9-57.3c2.5-3.5,6.6-8.9,12.4-16.4c-0.1-0.2-0.1-0.4-0.2-0.6v-0.1
		c-2-5.3-3.1-10.7-3.3-16.2c-0.1-2.6,0-5.2,0.3-7.8c0-0.2,0-0.3,0.1-0.5c0-0.2,0-0.4,0.1-0.5c0-0.1,0-0.2,0.1-0.3c0-0.2,0-0.4,0-0.6
		c0-0.2,0-0.3,0.1-0.4c0-0.2,0-0.3,0-0.5c0-0.2,0-0.3,0.1-0.4c0-0.1,0-0.2,0-0.3c0-0.1,0-0.3,0.1-0.4l-0.8-15.7
		c0-0.3-0.1-0.5-0.1-0.8c-4.8,3.1-8.3,5.3-10.6,6.7c-10.8,6.5-19.2,11.7-25,15.6c-14.7,9.9-22.1,16.3-22.1,19.2
		c0,0.6,0.3,1.3,0.9,2.2c1,1.5,2.7,3.1,5,4.8c-3.1,3-5,5-5.6,5.8c-1.2,1.5-1.8,3.3-1.8,5.4c0,2.7-0.7,6.2-2,10.7
		c-1.3,4.4-2,7.1-2,8.1c0,1.3,0.5,2.4,1.6,3.4c1.1,1.1,1.6,2.2,1.6,3.4c0,0.2-1.8,5.2-5.3,15C275.2,525.2,273.5,532.1,272.9,538.2z"
		/>
</g>
<g>
	<g>
		<path class="st8" d="M165.2,536.6c4.5,1.6,7.8,2.5,9.9,2.6c4.7,0.3,8.9,1,12.8,2c-1.8,2.2-3.7,5.1-5.5,8.7
			c-3.4,6.6-5.7,13.4-7,20.5c-1.4,7.7-1.2,13.7,0.8,17.8c2.2,4.7,4.2,8,5.9,9.9c4.3,4.5,9.4,5.4,15.2,2.6c2.1-1,3.8-2.3,5.1-4l5.8-3
			c0.7,3.8,0,8.2-2,13.4c-1.3-1.1-4-2.1-8.2-3c-5.4-1.2-10.7-1.5-16-1.1c-6.2,0.4-10.6,1.9-13.3,4.5c-3.2,3.1-3.5,7.6-0.8,13.3
			c0.7,1.5,1.8,3.9,3.3,7.3c1.4,2.9,2.9,5.2,4.4,6.7c3.6,3.8,8.3,4.7,14.1,2.8c-1.1,2.8-2.4,5.4-4.1,7.9c-1.5,2-3.4,3.5-5.8,4.5
			c-9.1-3.6-15.4-9.1-18.8-16.5c-2.8-5.9-3.6-15.1-2.5-27.7c0.6-8.3,1-13.1,1.1-14.5c0.2-5.3-0.1-9.7-1-13.2
			c-2.8-11.6-1.3-23.8,4.3-36.7C163.8,539.7,164.5,538,165.2,536.6z"/>
		<path class="st9" d="M206.2,607.2c-0.1,0.3-0.2,0.5-0.3,0.8c0,0.1-0.1,0.2-0.1,0.2c-1.3,1.8-3.4,3.7-6.3,5.7c-3.9,2.6-6.2,4.2-7,5
			c0.4,6.8-0.5,13-2.7,18.7c-5.8,2-10.5,1-14.1-2.8c-1.5-1.6-3-3.8-4.4-6.7c-1.5-3.4-2.6-5.8-3.3-7.3c-2.7-5.8-2.4-10.2,0.8-13.3
			c2.7-2.6,7.2-4.1,13.3-4.5c5.3-0.4,10.6,0,16,1.1C202.2,605.1,204.9,606.1,206.2,607.2z M202.4,596.7c-1.3,1.7-3,3-5.1,4
			c-5.8,2.7-10.9,1.8-15.2-2.6c-1.8-1.9-3.8-5.2-5.9-9.9c-1.9-4.1-2.2-10-0.8-17.8c1.3-7.1,3.7-14,7-20.5c1.8-3.6,3.6-6.5,5.5-8.7
			c0.2,0.1,0.5,0.1,0.7,0.2c3.6,1,6.8,2.2,9.6,3.8c0.5,0.7,0.8,1.5,0.8,2.4c0,0.6-0.1,1.2-0.2,1.8c-0.9,4.9-3.8,8.2-8.5,9.9
			c-0.5,0.3-0.9,0.6-1.4,0.9c-3.1,1.8-5.4,3.5-7,5.1c0.1,5.6,0.7,12.8,1.7,21.7c0.1,2.6,1.2,5.2,3.1,8c1.1,1.6,2.9,3.9,5.4,6.9
			L202.4,596.7z M165.2,536.6c-0.7,1.5-1.5,3.1-2.4,4.9c-5.6,12.9-7.1,25.2-4.3,36.7c0.9,3.5,1.2,7.9,1,13.2
			c-0.1,1.4-0.4,6.2-1.1,14.5c-1.1,12.5-0.3,21.8,2.5,27.7c3.4,7.3,9.7,12.8,18.8,16.5c-1.1,0.5-2.3,0.8-3.6,1
			c-2.9,0.5-6.7,0.5-11.4,0c-4.3-2.3-7.8-5.6-10.6-9.9c-2.7-4.3-4.3-8.9-4.6-13.9c-0.5-4.2,0-9.7,1.5-16.5c1.7-8,2.7-13.5,2.8-16.4
			c0.1-4.5-1.9-11.7-6.1-21.5c-3.7-8.9-5.1-16-4.1-21.5c0.8-4.3,1.9-7.6,3.2-10.2c1.8-3.6,4.3-6,7.4-7c2.6-0.1,6,0.6,10.4,2.2
			C164.9,536.5,165.1,536.5,165.2,536.6z"/>
	</g>
	<path class="st10" d="M207,594.7l1.3-0.6c0.7,3.9-0.2,8.6-2.5,14.1c-1.3,1.8-3.4,3.7-6.3,5.7c-3.9,2.6-6.2,4.2-7,5
		c-4.4,4.6-8.3,7.8-11.6,9.5c1-1.3,2.3-2.9,4-4.7l-1.6-4.9c-1.9-0.5-4.9-1.2-9.1-2.2c-4-0.8-7.1-1.6-9.2-2.2c2,0.1,5.1,0.3,9.1,0.7
		c3.5,0.2,6.5-0.2,8.9-1c5.6-1.6,9.5-2.9,11.8-3.9c4.3-1.8,7.8-3.9,10.5-6.4C206.1,601.7,206.7,598.6,207,594.7z"/>
</g>
<g>
	<path class="st20" d="M220.4,414.1c-1.4-1.2-3-2.1-4.9-2.7c0-0.2,0-0.5,0.1-0.7c0,0,0.1,0,0.1,0c0.8-0.2,1.6-0.1,2.3,0.2
		c0.7,0.4,1.3,0.9,1.6,1.7C219.8,413,220.1,413.6,220.4,414.1z M226.1,421.3c-0.4-0.3-0.7-0.6-1.1-1c-0.4,0-0.9-0.1-1.3-0.1
		c0-0.5-0.1-1-0.2-1.6c-0.2-0.2-0.3-0.4-0.5-0.6C223.9,419.2,225,420.2,226.1,421.3z"/>
	<path class="st21" d="M241.2,682.8c-0.9-10.9-2.9-28.7-6-53.3c-0.6-4.7-1.2-9.3-1.7-13.8c0.8,0.1,1.6,0.1,2.4,0.1
		c4.3,0,6.9-4.2,7.7-12.5c0-8.7,0-13.6,0-14.5c0-0.2-0.2-6.7-0.7-19.4c-0.5-12.7-0.7-22.2-0.7-28.4c0-6.1,0.5-15.6,1.5-28.5
		c1-12.9,1.5-19.5,1.5-19.8c0-2.8-1.8-6.5-5.3-11c-1.1-1.4-2.2-2.6-3.3-3.7c0.2,0.2,0.4,0.4,0.5,0.5c4.6-23,6.9-34.9,6.9-35.8
		c0-1.3-0.6-2.5-1.7-3.6c-1.4-1.3-3.2-1.9-5.3-1.9c0.6-2.1,1.1-3.8,1.5-5c0.2-0.8,0.4-1.6,0.5-2.3c0,0,0,0,0.1,0
		c2.5,1.5,5.9,2.6,10.4,3.2c7.3,1,11.5,1.7,12.6,1.9c0.1,0,0.2,0,0.3,0.1c1.2,0.4,2.9,0.7,5.2,0.9v0c2.6,0.2,11.3,0,26.2-0.9
		c5.5-0.3,9.1,1.8,10.9,6.3c1.6,3.5,1.7,8.8,0.4,15.9c-2.4,12.8-9.8,32.2-22.2,58.1c-0.2,0.5-0.6,0.9-1,1.2
		c0.3,11.3,0.5,17.5,0.5,18.6v0.1c0.1,7.4-0.1,13.9-0.8,19.5l0-0.1c0,0.3-0.1,0.7-0.1,1c0,0.1,0,0.3,0,0.4c-0.3,2.1-0.5,4.3-0.6,6.5
		c-1.2,14.9-1.5,31.2-0.8,48.7v0c0.5,10.3,0.1,21.6-1.3,33.8c-0.9,7.8-2.3,17.3-4.2,28.4C263.3,680.5,252.3,683.5,241.2,682.8z"/>
	<path class="st18" d="M236.5,478.1l-8-5.4c-0.1,0-0.1,0-0.2-0.1c-4.9-1.6-8.7,0-11.6,4.8c-3.5,6-5.3,16.4-5.3,31.3
		c0,4.6,0.9,13.7,2.7,27.3c1.8,13.2,2.6,22.1,2.5,26.6c0,2.2-0.3,6.8-0.7,13.8c-0.3,7-0.1,12.9,0.6,17.7c1.9,13.4,7.5,20.6,17,21.6
		c0.5,4.4,1.1,9,1.7,13.8c3.1,24.6,5.1,42.4,6,53.3c-8.5-0.5-17-3.2-25.5-8.1c-0.1-0.1-0.3-0.2-0.4-0.3c-0.3-0.2-0.6-0.3-0.9-0.5
		c-2-1.5-3.3-3.5-3.9-5.9c0-0.1,0-0.2-0.1-0.3c-3.4-17.4-6-37-7.9-59c-1.2-13.8-2.5-33.6-3.9-59.3c0-0.1,0-0.2,0-0.3
		c0.2-5.9-0.9-20.9-3.3-44.9c-1.9-19-1.4-34.4,1.3-46.2c0,0,0-0.1,0-0.1c3-11.8,5.2-19.7,6.5-23.5v0c3-8.9,6.5-16.4,10.7-22.5
		c0.4-0.7,1-1.1,1.8-1.3c0,0.2,0,0.5-0.1,0.7c1.9,0.6,3.5,1.5,4.9,2.7l2.7,4c0.2,0.2,0.3,0.4,0.5,0.6c0.2,0.5,0.2,1,0.2,1.6
		c0.4,0,0.9,0.1,1.3,0.1c0.3,0.3,0.7,0.7,1.1,1l1.1,1c0,0,0.1,0.1,0.1,0.1l0,0c2.6,2.2,6.4,4.7,11.4,7.4l0,0c0,0,0.1,0,0.1,0.1
		c-0.1,0.7-0.2,1.5-0.5,2.3c-0.4,1.2-0.8,2.9-1.5,5c2.2,0,4,0.6,5.3,1.9c1.1,1.1,1.7,2.3,1.7,3.6c0,0.9-2.3,12.8-6.9,35.8
		C236.9,478.4,236.7,478.2,236.5,478.1z"/>
	<path class="st1" d="M233.5,615.7c-9.5-1-15.2-8.2-17-21.6c-0.7-4.8-0.9-10.7-0.6-17.7c0.4-7,0.7-11.6,0.7-13.8
		c0.1-4.5-0.7-13.4-2.5-26.6c-1.8-13.6-2.7-22.7-2.7-27.3c0-14.9,1.8-25.4,5.3-31.3c2.9-4.9,6.7-6.5,11.6-4.8c0.1,0,0.1,0,0.2,0.1
		l8,5.4c1.1,1.1,2.2,2.3,3.3,3.7c3.5,4.5,5.3,8.1,5.3,11c0,0.3-0.5,6.9-1.5,19.8c-1,12.9-1.5,22.4-1.5,28.5c0,6.2,0.2,15.7,0.7,28.4
		c0.5,12.7,0.7,19.2,0.7,19.4c0,0.9,0,5.8,0,14.5c-0.8,8.3-3.4,12.5-7.7,12.5C235.1,615.8,234.3,615.8,233.5,615.7z"/>
</g>
<g>
	<path class="st22" d="M276.2,166.8c-4.8,3.9-10.1,8-15.9,12.2c1.9,1.8,3.7,3.7,5.3,5.6c6.1,7.1,9.1,13.1,9.1,18
		c0,5.9-3.4,11.9-10.1,17.8c-8.9,7.9-20.9,11.8-36.2,11.8c-7,0-16.5-4.1-28.5-12.4c-3.8,2.2-7.2,4.2-10.3,5.8
		c5.7,6.4,8.5,13.1,8.5,20c0,8.1-1.1,16.2-3.4,24.3c0.1,0.1,0.3,0.2,0.4,0.3c4,3,7.8,7.1,11.6,12.3c0.2,0.3,0.5,0.6,0.7,0.9
		c-0.1,0-0.3,0.1-0.4,0.2c6.1,6.5,12.5,16.5,19.2,29.9c4.4,8.8,8.5,18.1,12.2,27.9c0.8,2.3,1.6,4.3,2.3,6.1c0,0-0.1,0-0.1,0
		c0.8,2,1.4,4,2.1,6.1c2.3,7.6,3.4,14.7,3.4,21.1c0,4.8-0.1,9.6-0.3,14.5c-0.3,10.4-1,19.9-2,28.4c-0.9,7.9-2,14.5-3.3,20.1
		c9.4,5.1,20.7,7.6,33.6,7.6c10.8,0,28-6.4,51.5-19.2c6.6-3.6,12.8-7.2,18.8-10.8c-2.8-19.6-4.3-39.2-4.6-59c0-2,0.2-3.9,0.7-5.8
		c0-0.1,0.1-0.2,0.1-0.3c4.2-14.4,6-28.9,5.4-43.5c-0.1-1.1-0.1-2.2-0.2-3.3l-0.2-2c-0.1-1.8-0.3-3.6-0.6-5.3c0-0.4-0.1-0.8-0.1-1.1
		c-0.2-1.6-0.4-3.2-0.6-4.8c-0.5-3.5-1.1-6.9-1.8-10.3c-1.5-7.7-3.2-15.4-5.3-22.9v-0.1c-1.6-5.5-2.9-11.2-4-16.9v-0.1
		c-0.8-4-1.8-7.8-3-11.5c-0.8-2.3-1.7-4.6-2.6-6.8c-2.1-4.9-4.6-9.6-7.6-14.2c-4.9-7.4-11-14.2-18.2-20.3c-0.8-0.7-1.6-1.3-2.3-2
		c-0.1-0.1-0.2-0.2-0.3-0.2C292.2,178.1,284.5,172.1,276.2,166.8z M288,250.3c-0.3-1-1.5-1.4-3.8-1.4c-2.8,0-5.1,0.2-6.6,0.5
		c-1.6,0.3-2.9,0.9-4.1,1.8c-0.4,3.5-0.5,6.4-0.4,8.6c0.2,3.6,1.1,7,2.6,10c-0.4,1.1-1.5,2.1-3.4,2.8c-6.4-1.9-9.6-7.9-9.6-18
		c0-6.3,2-11.2,5.9-14.5c3.6-3.1,8-4.3,13-3.5c5.2,0.8,9.5,3.4,13,7.9c3.9,5.1,5.9,11.7,5.9,19.7c0,5.9-1.8,13.4-5.3,22.5
		c-1.8,4.6-3.6,9.1-5.4,13.6c0,3.8,0.2,4.2,0.6,1.4c2.8-1.2,5.8-2.5,9-4c2.2-1,4.5-1.8,6.8-2.5c1.1,1,2.6,2.4,4.4,3.9
		c1.2,1.3,1.8,2.5,1.8,3.7c0,1.4-3.7,4.6-11.2,9.6c-7.9,5.3-13.7,7.9-17.5,7.9c-3.3,0-5.3-2.8-6.1-8.3c-0.1-5.7-0.1-8.7-0.1-9
		c0-6.2,2-12.6,6-19.1c3.9-6.5,5.9-13,5.9-19.5c0-5.1-0.2-9.3-0.6-12.7C288.5,251.7,288.3,251.2,288,250.3z"/>
	<path class="st21" d="M189.7,225.7c3.1-1.7,6.6-3.6,10.3-5.8c-4-2.8-8.3-6-12.8-9.6c-0.4-0.3-0.8-0.6-1.2-0.9
		c-5.4-4.4-10.4-8.8-15-13.2c-2.9,3.3-6.7,7.4-11.6,12c2.3,0.5,4.7,1.2,7.2,2.1c8.6,3.2,15.8,7.8,21.7,14
		C188.8,224.7,189.3,225.2,189.7,225.7z M194.8,270c-0.1,0.2-0.2,0.4-0.2,0.6l-0.8,2.6c-0.1,0.2-0.1,0.4-0.2,0.6
		c-0.1,0.1-0.1,0.3-0.2,0.4c-2.3,7.1-5.2,12.5-8.7,16.2c-1.5,1.5-3,2.7-4.5,3.7c-1.5,0.9-3,1.6-4.5,2.1c-0.2,0-0.3,0-0.4,0.1
		c-0.2,0-0.3,0.1-0.4,0.1c-1.6,0.4-3.2,0.6-4.8,0.6c-0.1,0-0.2,0-0.2,0c-0.1,0-0.3,0-0.4,0c-0.1,0-0.2,0-0.2,0c-0.1,0-0.2,0-0.3,0
		c-0.1,0-0.1,0-0.2,0c0,0-0.1,0-0.3,0l-9.4-1.9c-0.4-0.2-0.8-0.3-1.1-0.5c-2.1-1-4-2.3-5.6-3.8c0.5,1.5,1.2,3,1.9,4.4
		c2,4,4.9,7.5,8.5,10.3c1.3,1.1,2.7,2.2,4,3.3c6.9,5.6,13.8,10.9,21,16.2c0.4,0.3,0.8,0.6,1.3,0.9l11.7,8.2c0.1,0.2,0.2,0.3,0.4,0.4
		c1.4,1,2.6,2.3,3.5,4c0.3,0.6,0.7,1.3,1,1.9c0.5,1,1,2,1.6,3.1c9.1,19.1,11.2,39,6.3,59.7c0.3,2.1,1.2,4.9,2.8,8.3
		c2.3,5.3,5.5,10.1,9.3,14.4c4.3,4.9,9.4,8.9,15.1,12c1.3-5.5,2.4-12.2,3.3-20.1c1-8.5,1.7-17.9,2-28.4c0.2-4.9,0.3-9.7,0.3-14.5
		c0-6.4-1.1-13.4-3.4-21.1c-0.6-2.1-1.3-4.2-2.1-6.1c0,0,0.1,0,0.1,0c-0.7-1.8-1.4-3.8-2.3-6.1c-3.8-9.8-7.8-19.1-12.2-27.9
		c-6.8-13.4-13.2-23.4-19.2-29.9c0.1-0.1,0.2-0.1,0.4-0.2c-0.2-0.3-0.4-0.6-0.7-0.9c-3.8-5.2-7.6-9.3-11.6-12.3
		C195.1,270.2,195,270,194.8,270z M230.4,158.6c4.4,1.6,9.4,4.4,15.2,8.3c5.6,3.8,10.5,7.9,14.9,12.2c5.7-4.3,11-8.3,15.9-12.2
		c-3.5-2.3-7.1-4.4-10.8-6.3c-0.6-0.4-1.2-0.7-1.8-1c-0.1,0-0.2-0.1-0.3-0.1c-3.5-1.9-6.8-3.3-10-4.1h-0.1c-3.1-0.8-6.3-1-9.6-0.8
		c-0.6,0.1-1.2,0.1-1.7,0.2C236.3,155.3,232.4,156.7,230.4,158.6z"/>
	<path class="st1" d="M240.6,437.7c-5.7-3-10.8-7-15.1-12c-3.9-4.3-7-9.1-9.3-14.4c-1.6-3.5-2.5-6.2-2.8-8.3
		c-0.3,1.2-0.6,2.4-0.9,3.6c-2.4,8.4-2.8,16.7-1,24.8c0.8,3.8,2.8,6.9,6,9.1c0.1,0.1,0.3,0.2,0.4,0.2c13.6,9.4,28.1,14.3,43.6,14.9
		c10,1.4,19.3,0.7,27.8-2.2c4.2-1.2,9.2-2.8,15-4.9c10.5-3.8,19.2-8.3,26.1-13.3c6.9-5,10.3-7.5,10.3-7.5c1.9-1.1,3.4-2.8,4.3-5
		c0,0,0.1-0.1,0.1-0.1c0.3-0.7,0.4-1.3,0.4-2c0-0.1,0-0.1,0-0.2c-0.1-0.2-0.1-0.5-0.2-0.8c-0.1-0.7-0.2-1.4-0.3-2.1
		c-0.1-0.7-0.2-1.4-0.3-2.1h-0.1c-6,3.6-12.2,7.2-18.8,10.8c-23.5,12.8-40.7,19.2-51.5,19.2C261.2,445.4,250,442.8,240.6,437.7z
		 M194.8,270c2.3-8.1,3.4-16.2,3.4-24.3c0-6.9-2.8-13.6-8.5-20c-0.4-0.5-0.9-1-1.4-1.4c-5.9-6.1-13.2-10.8-21.7-14
		c-2.5-0.9-4.9-1.6-7.2-2.1c-0.5,0.4-1,0.9-1.5,1.4c15.1,7.5,23.4,12.4,24.9,14.5c1.4,2.1,2.9,4.3,4.5,6.6c1.6,2.3,2.9,6.8,4.1,13.3
		c1.1,6.5,1.7,11.5,1.8,15c0.1,3.5-1.6,8.6-5,15.3c-5.6,11-14,16.5-25.2,16.5c-2.8,0-7.7-4.4-14.7-13.2c1.2,4.1,2.5,8.1,3.8,12.2
		c0.1,0.3,0.2,0.6,0.3,0.9c1.6,1.5,3.5,2.8,5.6,3.8c0.4,0.2,0.8,0.3,1.1,0.5l9.4,1.9c0.1,0,0.2,0,0.3,0c0,0,0.1,0,0.2,0
		c0.1,0,0.2,0,0.3,0c0.1,0,0.2,0,0.2,0c0.1,0,0.3,0,0.4,0c0.1,0,0.2,0,0.2,0c1.6,0,3.2-0.2,4.8-0.6c0.1,0,0.2-0.1,0.4-0.1
		c0.1,0,0.3-0.1,0.4-0.1c1.5-0.5,3-1.2,4.5-2.1c1.5-1,3-2.2,4.5-3.7c3.5-3.8,6.4-9.2,8.7-16.2c0-0.2,0.1-0.3,0.2-0.4
		c0-0.2,0.1-0.4,0.2-0.6l0.8-2.6C194.6,270.3,194.7,270.1,194.8,270z M171,196.1c4.6,4.4,9.6,8.8,15,13.2c0.4,0.3,0.8,0.6,1.2,0.9
		c4.6,3.6,8.8,6.8,12.8,9.6c12,8.3,21.5,12.4,28.5,12.4c15.3,0,27.4-3.9,36.2-11.8c6.7-5.9,10.1-11.9,10.1-17.8c0-4.9-3-10.9-9.1-18
		c-1.7-1.9-3.4-3.8-5.3-5.6c-4.3-4.3-9.3-8.3-14.9-12.2c-5.7-3.9-10.8-6.6-15.2-8.3c-0.4,0.3-0.7,0.7-0.9,1.1
		c-0.3,0.4-0.5,0.8-0.6,1.3c-0.1,0.4-0.2,0.9-0.3,1.3c0,0.1,0,0.2,0,0.3c0,3.5,2.8,7,8.3,10.7c1.3,0.9,2.5,1.8,3.6,2.5
		c9.1,4.1,15.5,8,19,11.7c4,4.2,6,10.1,6,17.6c0,3.6-2.5,7.7-7.6,12.2c-6.8,6-15.7,9-26.8,9c-7.9,0-16.3-3.1-25.1-9.3
		c-2.8-2-5.4-4.2-7.9-6.6c-2-2-3.1-3.1-3.3-3.2c-5.2-5.3-8.7-8.8-10.4-10.4c-2.7-2.5-6.1-4.2-10.1-5.1c-0.9,1.3-1.8,2.5-2.9,3.8v0.1
		C171.2,195.8,171.1,195.9,171,196.1z M288,250.3c0.3,0.9,0.5,1.4,0.8,1.4c0.4,3.4,0.6,7.6,0.6,12.7c0,6.5-2,13-5.9,19.5
		c-4,6.5-6,12.9-6,19.1c0,0.3,0,3.3,0.1,9c0.8,5.5,2.8,8.3,6.1,8.3c3.8,0,9.6-2.6,17.5-7.9c7.5-5,11.2-8.2,11.2-9.6
		c0-1.2-0.6-2.4-1.8-3.7c-1.8-1.6-3.3-2.9-4.4-3.9c-2.3,0.7-4.6,1.5-6.8,2.5c-3.2,1.5-6.2,2.8-9,4c-0.4,2.8-0.6,2.3-0.6-1.4
		c1.8-4.5,3.6-9,5.4-13.6c3.6-9.1,5.3-16.6,5.3-22.5c0-8.1-2-14.6-5.9-19.7c-3.5-4.5-7.8-7.1-13-7.9c-5.1-0.8-9.4,0.4-13,3.5
		c-3.9,3.4-5.9,8.2-5.9,14.5c0,10.2,3.2,16.2,9.6,18c1.9-0.8,3-1.7,3.4-2.8c-1.5-3-2.4-6.3-2.6-10c-0.1-2.3,0-5.1,0.4-8.6
		c1.1-0.8,2.5-1.4,4.1-1.8c1.6-0.3,3.8-0.5,6.6-0.5C286.5,248.8,287.7,249.3,288,250.3z"/>
</g>
<path class="st5" d="M217.1,93.8c0.7,4,1.7,6.8,3,8.5c0.8,1.4,3.3,4.3,7.6,8.6c3.3,3.3,5,6.6,5.2,9.8c0.6,4,2.3,8.4,5,13.3
	c1.5,2.8,3.9,6.9,7.2,12.4c1.4,2.9,3.6,5.4,6.8,7.6c1.7,1.2,4.7,2.9,9,5c-1.6,2.4-2.7,3.8-3.1,4.4c-1.3,1.6-2.5,2.9-3.8,3.8
	c-0.7,0.5-2.6,1.7-5.8,3.5c-2.4,1.3-4.2,2.7-5.3,4.2c-0.3,2.3-1,4.3-2.3,6c-1.5,2-3.3,3.1-5.4,3.5c-6.4,1.6-11.4,2.5-15.1,2.8
	c-5.8,0.4-10.8-0.4-15-2.5c-4.6-2.1-7.2-3.5-8.1-4c-3-1.7-5.3-3.6-7-5.6c-0.7-1.1-1.3-3.2-1.9-6.3c-0.5-2.9-1.3-4.9-2.5-6.1
	c-1.7-1.6-4-3.3-7-5.3c-4.3-2.8-6.8-4.4-7.4-4.9c-7.4-5.8-12.9-10.5-16.5-14.2c-5.7-5.9-9.6-11.9-11.9-18.1
	c-3.3-8.3-4.2-16.9-2.6-25.9c1.6-9.2,5.5-17,11.6-23.2c5.1-6.5,12.1-10.6,21.1-12.4c8.9-1.6,17-0.4,24.3,3.8c3.5,2,6.7,5.4,9.6,10.3
	c1.6,2.7,4,6.9,7.2,12.4C215.3,87,216.4,89.8,217.1,93.8z"/>
<path class="st7" d="M243.4,90.2c0.4,2.6,1.8,6.4,4.2,11.4c2.3,4.8,3.6,8.7,3.8,11.6c1.5,15.2,4.6,28.1,9.4,38.9
	c1.4,2.7,1.1,5.5-0.7,8.5c-1,1.6-3.1,3.9-6.1,6.7c-2.4,2.3-5.7,3.8-10.1,4.4c-5.1,0.3-8.9,0.5-11.3,0.8c-5.3-0.1-9.2-0.1-11.9-0.2
	c-4.7-0.1-8.6-0.4-11.8-1.1c-3.4-0.7-7-2.7-10.8-6.2c-5.2-4.7-8.4-7.4-9.6-8.2c-1.8-1.2-4.7-4.1-8.7-8.8c-3.4-4-6.7-6.5-9.8-7.4
	c-2.6-0.5-5.1-2.1-7.4-4.6c-1-1.1-2.8-3.5-5.4-7.2c-5.4-8.7-8.9-17.5-10.4-26.2c-1.8-10.2-0.7-19.4,3.4-27.5
	c3.7-8.6,12.2-14.4,25.4-17.4c7.4-1.7,14.8-1.9,22.5-0.6c7.6,1.4,14.6,4.1,20.9,8.3c1.9,1.4,4.5,3.5,7.7,6.3c3.5,3,6,5.1,7.6,6.3
	c2.6,2,4.5,3.8,5.8,5.2C241.9,85.5,243.1,87.8,243.4,90.2z"/>
<g>
	<path class="st23" d="M135.4,83.3c2.7-1.2,5.6-2.6,8.8-4.2c14.3-7.2,26-12,35.2-14.2c15-3.5,30.5-6.6,46.6-9.2
		c0.6,1.3,1,2.8,1.2,4.4c0.4,3.7-0.2,7.2-2.1,10.5c0,0.1-0.8,2-2.3,5.5c-2,0.1-4.1,0.3-6.5,0.6c-11,1.5-24.8,4.9-41.2,10.2
		c-16,5.2-29.7,10.7-41.2,16.4c-0.8,0.4-1.5,0.8-2.3,1.2C131.2,96.9,132.4,89.9,135.4,83.3z"/>
	<path class="st24" d="M131.8,104.6c0.7-0.4,1.5-0.8,2.3-1.2c11.4-5.7,25.1-11.2,41.2-16.4c16.4-5.3,30.1-8.7,41.2-10.2
		c2.4-0.3,4.6-0.5,6.5-0.6c-0.3,0.6-0.6,1.3-0.9,2c-1.3,3-2.5,5.4-3.7,7.2c-3.5,2.9-9.5,5.9-18.2,9.1c-8.5,3-14.4,6.1-17.9,9.2
		c-3.3,2.2-5.8,3.8-7.4,4.9c-2.9,2-5.3,3.7-7.2,5.3c1.4,1.5,3.8,3.8,7.1,6.8c2.7,2.8,4.3,5.6,4.8,8.3c1.2,5.2,1.2,10.1,0,14.6
		c-0.1,1.4-0.8,2.1-2.2,2.3c-1.1,0.2-2.3,0-3.5-0.6c-1.8-0.7-4-1.6-6.5-2.8c-2.9-1.4-5-2.4-6.4-3l-2.2,8.1c-3.4-1.3-6.7-3.8-10-7.3
		c-3.5-4.4-6.1-7.7-7.8-9.8c-4.9-7.2-7.8-15.1-8.8-23.6C131.9,106.1,131.8,105.3,131.8,104.6z"/>
	<path class="st25" d="M226,55.8c-16.1,2.6-31.6,5.7-46.6,9.2c-9.2,2.2-20.9,6.9-35.2,14.2c-3.2,1.6-6.1,3-8.8,4.2
		c0.1-0.2,0.2-0.4,0.2-0.5l0.2-0.5c0-0.1,0.1-0.1,0.1-0.2c1.8-3.9,4.6-7.6,8.5-11.1c2.6-2.4,6.4-5.3,11.3-8.6
		c2.4-1.6,5.9-3.4,10.5-5.2c5.3-2.1,8.9-3.7,10.8-4.8c8.1-4.2,17.2-5.3,27.5-3.2c1.1,0.3,4.1,0.2,9.1-0.3c3.7-0.4,6.4,0.3,8.2,2.1
		C223.7,52.3,225.1,53.8,226,55.8z"/>
</g>
<g>
	<path class="st3" d="M196.4,264.5c-3-3.4-7.3-5.8-12.9-7.1c-10.4-2.5-23.7-1.4-39.8,3.6c-13.4,4.1-25.4,9.6-35.9,16.6
		c0.1,1.3,0.1,2.7,0,4.1c0,3.8-0.8,7.1-2.4,9.8c-2.4,4-6.6,6.9-12.6,8.8l0.2,0.3c1,0.8,2.2,1.5,3.6,2.1c2.4-0.9,4.8-1.9,7.4-3
		c0.1,0,0.2-0.1,0.3-0.1c0,0,0.1-0.1,0.1-0.1c0.2-0.1,0.4-0.2,0.6-0.3l7.5-3.6c4.2-2.1,11.5-6.1,22-11.8c0,0,0.1-0.1,0.1-0.1
		c4.1-2.5,7.7-4.3,11-5.5c1,1.5,2.9,6.2,5.5,14c14,6.7,23.1,8.3,27.3,4.9c1.3-1.1,4-3.2,8.4-6.3
		C190.2,288.2,193.4,279.5,196.4,264.5z"/>
	<path class="st1" d="M107.8,277.6c10.5-7,22.5-12.5,35.9-16.6c16.1-4.9,29.4-6.1,39.8-3.6c5.6,1.4,9.9,3.7,12.9,7.1
		c0.7-3.8,1.5-7.9,2.2-12.5c3.5-22.7-7.5-37.1-33.1-43.3c-0.1,0-0.2-0.1-0.4-0.1c-4-0.5-7.5-0.8-10.5-0.9h-0.1
		c-7.2-0.1-13.5,1-19,3.3l0.1-0.1c-9.9,3.7-20,11.3-30.1,22.9v0.1c-4.9,5.7-12.3,11.6-22.1,17.7l-0.1,0.1c-0.7,0.4-1.4,0.9-2.2,1.3
		c-1.2,2.1-1.8,3.5-1.8,4.1c0,0.5,0.1,0.8,0.2,0.9c0.1,0,0.2,0.1,0.3,0.1c0.4-0.7,0.9-1.3,1.6-1.9c1.4-1.1,3.6-1.7,6.6-1.7
		c8.9,0,14.9,4.3,17.9,13C107,270.8,107.6,274.1,107.8,277.6z"/>
</g>
<g>
	<path class="st7" d="M94.7,141.5c0.5,0.6,1,1.3,1.5,2c3.4-0.2,7.9-2.3,13.5-6.5c5.4-4,9.9-5.9,13.7-5.7c0.7,2,0.5,4-0.6,6.1
		c-0.7,1.2-2,2.9-3.9,5c-1.8,2.1-4.5,4.1-8.2,6.2c-5.2,2.9-8.2,4.6-9,5.1c-2.6,1.8-6.1,3.5-10.5,5c-6.7,2.3-10.3,3.6-11,3.8
		c-4.5,2.4-8.2,7-11,14c-4.7,11.2-8.6,24.7-11.7,40.7c-1.6,7.9-3.5,19.2-5.8,33.8c-0.4,2.7-0.8,5.4-1.2,8.1c-0.8,5.1-2.4,9.8-5,14.2
		c-1.2,2.1-1.9,4.4-2.1,6.8c-0.2,3-0.2,5.9,0,8.8c0.4,4,0.7,8,1.1,11.8L34,305c-10.1,3.4-18.9,3.7-26.6,0.8
		c-2.6-0.4-4.4-1.8-5.6-4.2c-1.2-2.3-1.4-4.7-0.6-7.2c0.5-1.8,2.4-8.3,5.6-19.5c2.3-7.9,4.3-14.3,6.2-19.3
		c3.2-12.3,8.4-27.5,15.9-45.9c10.3-25.3,16.3-40.3,18-45.1c2.4-4.9,4-11.1,5-18.5c0.8-8.6,1.4-15.1,1.8-19.3c0.2-1.1,1-2.2,2.2-3.5
		c1.6-1.7,2.6-2.7,2.9-3.1c0.4-1.5,0.5-3.9,0.5-7.1c-0.1-3.2,0.1-5.5,0.4-7.1c1.6-3,4.1-5.9,7.5-8.7c1-1,3.1-1.5,6.2-1.6
		c1.6-0.1,2.9-0.4,3.8-0.9c0.3,0.6,0.4,1,0.4,1.2c0,2.4-2.6,5.7-7.8,10c-5.2,4.3-7.9,7.6-7.9,9.6c0,0.6,0.1,1,0.4,1.2
		c0.8,0.4,3.2,1,7,1.8v0.4c-2.2,2.9-4.3,5.2-6.2,7.1c-1.8,1.8-2.7,2.7-2.8,2.9c-0.4,0.6-0.6,3.9-0.6,10c0,0.4,0.1,3.5,0.4,9.5
		c1.1,5.9,3.7,8.8,7.6,8.8c0.7,0,3-1.9,6.8-5.6c3.9-3.9,6.4-6.1,7.5-6.4C85.3,144.3,89.5,143,94.7,141.5z M85.4,97.8
		c-0.3-2.3-1.6-4.8-3.9-7.4c4.2-4.3,9.4-7.1,15.7-8.6c0.6,2.3,0,4.4-1.7,6.2c-0.8,1-2.6,2.3-5.4,4C88.4,93.5,86.9,95.5,85.4,97.8z
		 M105,103.7c0.3-0.1,0.7-0.3,1.1-0.4c-0.7-0.4-1.6-0.6-2.7-0.6c-4.2,0-11.9,4.5-23.1,13.5l-0.2-0.4c0.7-2.2,1.6-4.5,2.6-6.9l0,0
		c3.1-2.5,5.7-4.5,7.7-5.9c5.1-3.7,10-6,14.6-7c3.7-0.4,7.8,0.1,12.2,1.7c-1.2,2.1-3.7,3.7-7.3,4.6C108,102.7,106.4,103.2,105,103.7
		z"/>
	<path class="st2" d="M81.4,90.4c2.4,2.6,3.7,5,3.9,7.4c-2.7,4.1-5.2,9.2-7.7,15.5c1.9-1.6,3.6-3,5.1-4.3c-1,2.4-1.9,4.7-2.6,6.9
		l0.2,0.4c11.2-9,18.9-13.5,23.1-13.5c1.1,0,2,0.2,2.7,0.6c-0.4,0.1-0.7,0.3-1.1,0.4c-1.5,0.6-2.6,1.1-3.2,1.7
		c-5.2,3.8-8.8,7-11,9.5c-0.9,1-1.7,2.1-2.4,3.1c-2,3.1-2.9,6.4-2.8,9.7c1.1,2.5,2.6,5.2,4.7,8.1c0.2,0.2,0.8,1.1,2,2.6
		c0.6,0.8,1.4,1.8,2.3,3c-5.2,1.5-9.3,2.8-12.5,3.9c-1.1,0.4-3.6,2.5-7.5,6.4c-3.8,3.7-6.1,5.6-6.8,5.6c-3.9,0-6.5-2.9-7.6-8.8
		c-0.3-6-0.4-9.2-0.4-9.5c0-6.1,0.2-9.4,0.6-10c0.1-0.1,1-1.1,2.8-2.9c1.9-1.9,4-4.3,6.2-7.1v-0.4c-3.8-0.8-6.1-1.4-7-1.8
		c-0.3-0.2-0.4-0.6-0.4-1.2c0-2.1,2.6-5.3,7.9-9.6c5.2-4.3,7.8-7.6,7.8-10c0-0.3-0.1-0.7-0.4-1.2c0.7-0.4,1.3-0.9,1.7-1.6
		C79.7,92.3,80.5,91.3,81.4,90.4z"/>
</g>
</svg>
